{"glyphs":{"0":{"ha":5713,"x_min":69,"x_max":5643,"o":"m 3008 96 q 3037 70 3018 82 q 3075 47 3056 58 q 3112 24 3094 35 q 3136 0 3129 13 l 3264 0 q 3285 11 3276 0 q 3301 38 3294 22 q 3310 68 3307 53 q 3313 92 3313 83 q 3312 104 3313 96 q 3311 113 3311 113 q 3298 118 3308 115 q 3276 124 3288 121 q 3253 128 3264 126 q 3239 128 3243 129 l 3239 304 l 3200 336 q 3188 433 3194 385 q 3169 528 3181 482 q 3138 618 3157 574 q 3088 703 3118 663 q 3035 745 3065 729 q 2976 778 3004 761 q 2929 817 2949 794 q 2910 879 2910 839 q 2922 916 2910 901 q 2951 942 2933 931 q 2991 961 2969 953 q 3031 979 3013 969 q 3060 1001 3049 989 q 3072 1031 3072 1013 q 3052 1091 3072 1065 q 3001 1137 3032 1117 q 2933 1172 2969 1157 q 2862 1201 2896 1188 q 2802 1230 2828 1215 q 2768 1263 2776 1244 q 2783 1310 2776 1276 q 2799 1381 2790 1344 q 2819 1448 2807 1417 q 2849 1486 2831 1479 l 3599 1757 q 3988 1848 3786 1824 q 4388 1872 4189 1872 q 4613 1861 4501 1872 q 4837 1838 4725 1850 q 5060 1814 4949 1825 q 5285 1803 5172 1803 q 5365 1801 5315 1803 q 5466 1801 5414 1799 q 5566 1817 5518 1804 q 5643 1861 5614 1831 l 5356 1861 l 4461 2029 q 4337 2042 4406 2039 q 4201 2046 4268 2046 l 4119 2046 q 3797 2031 3957 2046 q 3480 1992 3638 2017 q 3165 1936 3322 1968 q 2849 1869 3007 1904 q 2816 1868 2839 1869 q 2785 1867 2793 1867 q 2651 1884 2717 1867 q 2523 1927 2586 1901 q 2397 1981 2460 1953 q 2274 2029 2335 2008 q 2096 2068 2182 2058 q 1917 2078 2010 2078 q 1815 2072 1865 2078 q 1715 2060 1765 2067 q 1614 2049 1664 2054 q 1513 2044 1564 2044 q 1474 2052 1493 2044 q 1437 2069 1456 2060 q 1399 2087 1418 2079 q 1363 2094 1381 2094 q 1342 2085 1347 2094 q 1322 2075 1336 2075 q 1261 2100 1289 2075 q 1206 2163 1233 2125 q 1149 2244 1178 2200 q 1087 2325 1121 2288 q 1010 2388 1053 2363 q 915 2413 968 2413 l 581 2413 q 527 2385 565 2404 q 445 2346 489 2367 q 363 2308 401 2325 q 308 2285 324 2290 q 238 2265 279 2274 q 160 2240 197 2256 q 96 2195 122 2224 q 69 2117 69 2167 q 79 2090 69 2101 q 101 2069 89 2079 q 127 2049 114 2058 q 149 2029 140 2039 l 449 2029 q 443 2003 449 2019 q 428 1970 438 1986 q 406 1942 418 1954 q 381 1931 393 1931 q 356 1949 361 1931 q 350 1985 350 1967 l 350 2004 q 322 1996 335 2004 q 298 1974 308 1988 q 281 1946 288 1961 q 275 1917 275 1931 q 282 1886 275 1896 q 299 1870 289 1876 q 321 1858 310 1864 q 340 1838 332 1851 q 340 1825 342 1835 q 335 1804 338 1815 q 330 1784 332 1793 q 328 1774 328 1775 q 285 1773 294 1774 q 275 1750 275 1772 l 275 1704 q 292 1672 275 1683 q 335 1654 310 1660 q 385 1647 360 1649 q 428 1646 411 1646 l 453 1646 q 493 1669 465 1653 q 556 1705 521 1685 q 628 1748 590 1725 q 701 1791 667 1771 q 764 1828 736 1811 q 804 1853 792 1844 q 883 1890 846 1878 q 972 1901 921 1901 q 1038 1880 1011 1901 q 1081 1827 1064 1858 q 1108 1760 1099 1796 q 1124 1693 1118 1724 l 1156 1469 q 1218 1447 1178 1461 q 1298 1413 1258 1433 q 1367 1363 1338 1392 q 1396 1294 1396 1333 q 1378 1231 1396 1264 q 1333 1166 1360 1199 q 1276 1103 1307 1133 q 1218 1050 1244 1074 q 1174 1010 1192 1026 q 1156 990 1156 994 l 1156 703 q 1188 651 1156 671 q 1263 621 1219 632 q 1353 603 1307 610 q 1426 592 1399 597 q 1438 590 1428 592 q 1451 589 1447 589 q 1497 602 1475 589 q 1535 635 1518 615 q 1561 680 1551 656 q 1571 726 1571 704 q 1567 750 1571 735 q 1557 782 1563 765 q 1546 813 1551 799 q 1539 831 1540 826 q 1534 831 1536 831 q 1531 832 1532 832 q 1501 825 1514 832 q 1472 810 1489 818 q 1430 796 1456 803 q 1363 789 1404 789 l 1363 958 q 1380 988 1363 972 q 1422 1017 1397 1003 q 1472 1041 1446 1031 q 1514 1054 1497 1051 l 1514 863 q 1632 847 1576 856 q 1746 815 1688 838 q 1826 887 1793 850 q 1860 982 1860 924 q 1859 994 1860 986 q 1858 1007 1858 1003 l 1818 990 l 1818 1058 q 1808 1058 1818 1058 q 1794 1054 1799 1057 q 1764 1038 1775 1046 q 1742 1026 1753 1031 q 1719 1017 1732 1021 q 1682 1014 1706 1014 l 1682 1163 q 1751 1148 1719 1163 q 1813 1115 1782 1133 q 1878 1083 1844 1097 q 1951 1068 1911 1068 q 2029 1077 1992 1068 q 2107 1086 2067 1086 l 2114 1086 l 2210 1022 q 2263 1008 2231 1010 q 2329 1003 2296 1006 q 2392 992 2363 1000 q 2433 958 2421 983 q 2405 958 2426 958 q 2376 957 2383 957 q 2305 962 2340 957 q 2234 973 2269 967 q 2162 985 2199 979 q 2088 990 2125 990 q 2035 984 2064 990 q 1983 964 2007 978 q 1944 929 1960 950 q 1928 879 1928 908 l 2047 879 q 2038 803 2047 839 q 2015 732 2028 767 q 1993 663 2003 697 q 1983 592 1983 629 q 1985 551 1983 568 q 2001 511 1988 535 q 2022 535 2013 519 q 2042 568 2032 551 q 2064 597 2053 585 q 2090 608 2075 608 q 2095 608 2093 608 q 2097 607 2097 607 q 2101 599 2099 606 q 2105 583 2103 592 q 2109 568 2107 575 q 2114 560 2111 561 q 2117 556 2114 557 q 2121 556 2119 556 q 2129 560 2126 556 q 2226 672 2169 622 q 2349 758 2282 722 q 2489 813 2415 793 q 2638 832 2563 832 q 2708 806 2682 832 q 2751 743 2735 781 q 2777 664 2767 706 q 2800 592 2788 622 q 2824 565 2804 578 q 2867 539 2843 551 q 2913 515 2890 526 q 2944 496 2935 504 q 2983 451 2963 481 q 3020 391 3003 422 q 3051 331 3038 360 q 3072 288 3065 303 q 3073 281 3072 286 q 3074 272 3074 275 q 3058 239 3074 249 q 3017 224 3042 229 q 2965 216 2993 219 q 2913 201 2938 213 q 2873 165 2889 189 q 2857 96 2857 140 l 3008 96 z "},"1":{"ha":5024,"x_min":69,"x_max":4954,"o":"m 3042 185 q 3047 235 3042 211 q 3056 283 3051 260 q 3066 331 3061 307 q 3071 382 3071 354 q 3060 498 3071 442 q 3049 617 3049 554 q 3056 722 3049 669 q 3071 827 3063 775 q 3086 931 3079 879 q 3093 1035 3093 983 l 3093 1068 q 2793 990 2946 1022 q 2489 929 2640 957 q 2515 849 2508 896 q 2527 754 2521 801 q 2544 666 2533 707 q 2582 604 2554 625 q 2594 599 2583 603 q 2616 592 2604 596 q 2638 585 2628 588 q 2650 582 2649 582 q 2704 555 2681 571 q 2749 518 2728 539 q 2792 472 2771 497 q 2838 418 2813 447 q 2838 409 2838 417 q 2839 396 2839 401 q 2819 353 2839 368 q 2772 328 2799 338 q 2717 315 2744 319 q 2676 304 2690 310 q 2662 290 2672 301 q 2639 265 2651 278 q 2617 242 2626 253 q 2606 232 2607 232 q 2582 231 2604 231 q 2548 231 2565 231 q 2510 232 2531 232 l 2489 232 q 2441 207 2456 229 q 2417 160 2426 185 q 2394 114 2407 135 q 2350 93 2381 93 l 2071 93 q 1990 178 2029 143 q 1922 250 1951 213 q 1876 337 1893 288 q 1858 468 1858 386 q 1870 526 1858 500 q 1896 577 1882 553 q 1922 626 1910 601 q 1933 678 1933 650 q 1906 726 1933 694 q 1841 787 1878 757 q 1769 839 1804 817 q 1721 861 1735 861 q 1690 858 1714 861 q 1638 849 1665 854 q 1588 841 1611 844 q 1560 838 1565 838 l 1535 838 q 1484 835 1511 838 q 1425 833 1457 833 l 1382 833 q 1033 885 1200 833 q 719 1028 865 936 q 453 1247 574 1119 q 248 1525 333 1374 q 116 1847 163 1676 q 69 2196 69 2017 q 113 2473 69 2347 q 226 2703 156 2599 q 387 2897 297 2808 q 571 3063 476 2985 q 755 3213 665 3142 q 915 3356 844 3285 q 1029 3501 986 3426 q 1072 3658 1072 3575 q 1060 3730 1072 3696 q 1034 3797 1049 3764 q 1008 3863 1019 3831 q 996 3932 996 3896 q 1115 3890 1068 3932 q 1190 3789 1163 3849 q 1227 3663 1217 3729 q 1238 3544 1238 3596 q 1206 3374 1238 3450 q 1124 3233 1175 3299 q 1007 3110 1072 3168 q 874 2995 942 3053 q 740 2876 806 2938 q 624 2744 675 2815 q 541 2587 572 2672 q 510 2394 510 2501 q 553 2158 510 2272 q 673 1957 596 2044 q 858 1817 750 1869 q 1096 1764 967 1764 q 1253 1796 1181 1764 q 1397 1883 1326 1828 q 1583 2032 1493 1958 q 1761 2176 1672 2106 q 1942 2313 1850 2247 q 2139 2440 2035 2379 q 2167 2453 2146 2443 q 2219 2479 2189 2464 q 2283 2513 2249 2494 q 2352 2547 2318 2531 q 2416 2578 2386 2564 q 2465 2601 2446 2593 q 2619 2660 2539 2636 q 2778 2709 2700 2685 q 2926 2764 2856 2733 q 3049 2842 2996 2794 q 3133 2958 3101 2889 q 3164 3132 3164 3028 q 3124 3424 3164 3283 q 3025 3697 3085 3564 q 2897 3961 2965 3831 q 2768 4224 2828 4092 q 2669 4496 2708 4357 q 2629 4785 2629 4635 q 2677 5081 2629 4939 q 2808 5344 2725 5222 q 3006 5565 2892 5465 q 3253 5734 3119 5664 q 3532 5842 3386 5804 q 3825 5881 3678 5881 l 3838 5881 q 3869 5874 3850 5878 q 3908 5865 3889 5869 q 3940 5858 3926 5861 q 3953 5856 3953 5856 q 3979 5827 3960 5849 q 4025 5776 3999 5806 q 4080 5715 4051 5747 q 4132 5653 4108 5682 q 4171 5603 4156 5624 q 4186 5576 4186 5582 q 4161 5515 4186 5542 q 4100 5471 4136 5489 q 4025 5444 4064 5453 q 3957 5435 3986 5435 q 3874 5442 3915 5435 q 3792 5460 3833 5450 q 3710 5477 3751 5469 q 3626 5485 3668 5485 q 3519 5460 3571 5485 q 3420 5392 3467 5435 q 3335 5295 3374 5350 q 3267 5181 3296 5240 q 3223 5063 3239 5122 q 3207 4953 3207 5004 q 3219 4817 3207 4886 q 3253 4683 3232 4749 q 3306 4555 3275 4617 q 3372 4440 3336 4493 l 4071 3371 q 4170 3178 4126 3281 q 4244 2967 4214 3075 q 4289 2748 4274 2858 q 4304 2533 4304 2638 q 4291 2386 4304 2456 q 4278 2244 4278 2317 q 4285 2199 4278 2221 q 4302 2156 4293 2178 q 4319 2113 4311 2135 q 4326 2069 4326 2092 q 4303 1975 4326 2017 q 4253 1897 4281 1933 q 4204 1830 4226 1861 q 4182 1768 4182 1799 q 4213 1660 4182 1707 q 4291 1577 4243 1614 q 4398 1510 4339 1540 q 4514 1448 4457 1479 q 4620 1381 4571 1417 q 4697 1301 4669 1346 q 4726 1231 4714 1276 q 4751 1138 4738 1186 q 4783 1045 4764 1090 q 4833 975 4801 1000 q 4881 944 4858 953 q 4919 926 4903 935 q 4944 901 4935 917 q 4954 849 4954 885 q 4947 810 4954 821 q 4926 796 4939 800 q 4895 788 4913 792 q 4860 768 4878 783 q 4826 732 4836 749 q 4806 700 4815 715 q 4783 672 4796 685 q 4742 650 4769 660 q 4721 647 4738 650 q 4685 641 4704 644 q 4649 634 4665 638 q 4628 629 4632 631 q 4613 616 4624 628 q 4590 591 4601 604 q 4569 567 4579 578 q 4557 557 4560 557 q 4534 554 4556 556 q 4499 553 4513 553 q 4424 597 4460 553 q 4348 706 4388 640 q 4260 847 4308 771 q 4146 988 4211 922 q 3996 1097 4081 1053 q 3797 1140 3911 1140 q 3744 1110 3768 1140 q 3702 1037 3721 1079 q 3670 951 3683 994 q 3650 883 3657 908 l 3650 849 q 3649 794 3650 821 q 3647 742 3647 768 l 3647 710 q 3645 628 3647 678 q 3647 527 3643 579 q 3661 427 3650 475 q 3699 350 3672 379 q 3737 308 3707 335 q 3800 251 3767 282 q 3859 185 3833 219 q 3885 118 3885 150 q 3882 89 3885 100 q 3860 71 3879 78 q 3769 55 3817 67 q 3674 31 3722 43 q 3578 10 3625 19 q 3488 0 3531 0 q 3424 6 3465 0 q 3333 22 3382 11 q 3231 47 3283 32 q 3138 83 3179 63 q 3069 129 3096 104 q 3042 185 3042 154 m 978 3974 q 996 3950 996 3974 q 978 3929 996 3929 q 961 3950 961 3929 q 978 3974 961 3974 z "},"2":{"ha":6639,"x_min":69,"x_max":6569,"o":"m 6556 19 q 6569 0 6569 19 q 6556 -19 6569 -19 q 6540 0 6540 -19 q 6556 19 6540 19 m 2404 93 l 2293 93 l 2367 183 l 2239 183 q 2267 214 2250 197 q 2303 244 2283 231 q 2344 267 2324 258 q 2386 276 2365 276 l 2882 276 q 2964 311 2931 276 q 3020 393 2997 346 q 3058 490 3043 440 q 3085 571 3072 540 q 3099 605 3088 582 q 3124 656 3110 628 q 3154 717 3138 685 q 3186 778 3171 750 q 3213 830 3201 807 q 3232 864 3225 853 q 3219 879 3229 868 q 3197 902 3208 890 q 3174 924 3185 914 q 3158 938 3163 935 q 3116 969 3144 947 q 3051 1017 3088 990 q 2976 1074 3015 1044 q 2899 1132 2936 1104 q 2834 1181 2863 1160 q 2790 1213 2806 1203 q 2716 1240 2750 1224 q 2643 1268 2682 1257 q 2551 1285 2594 1279 q 2475 1306 2508 1292 q 2422 1349 2442 1321 q 2403 1433 2403 1378 q 2411 1499 2403 1468 q 2419 1564 2419 1531 l 2399 1564 q 2367 1563 2383 1564 q 2332 1563 2350 1563 l 2313 1563 q 2235 1567 2285 1564 q 2135 1572 2185 1569 q 2046 1577 2085 1575 q 2000 1579 2007 1579 q 1972 1585 1994 1579 q 1925 1597 1950 1590 q 1878 1609 1900 1603 q 1853 1617 1857 1615 l 1842 1617 l 1835 1617 q 1829 1605 1832 1613 q 1824 1589 1826 1597 q 1819 1573 1821 1581 q 1817 1563 1817 1565 q 1730 1533 1781 1550 q 1624 1503 1679 1517 q 1513 1485 1568 1490 q 1413 1489 1458 1479 q 1387 1457 1404 1465 q 1347 1449 1369 1449 q 1299 1451 1324 1449 q 1254 1447 1275 1453 q 1220 1422 1233 1440 q 1207 1361 1207 1403 q 1223 1274 1207 1311 q 1267 1210 1239 1238 q 1332 1161 1294 1182 q 1413 1121 1369 1140 q 1400 1105 1410 1110 q 1380 1099 1390 1100 q 1360 1099 1369 1097 q 1347 1100 1350 1100 q 1273 1115 1307 1100 q 1211 1153 1239 1129 q 1160 1206 1183 1176 q 1118 1268 1138 1236 q 1101 1240 1104 1250 q 1097 1213 1097 1231 q 1119 1099 1097 1158 q 1174 992 1142 1039 q 1160 991 1169 992 q 1146 990 1150 990 q 1098 1008 1119 990 q 1062 1052 1076 1026 q 1038 1107 1047 1078 q 1028 1158 1029 1136 q 1022 1204 1025 1171 q 1015 1276 1018 1238 q 1010 1348 1013 1314 q 1008 1396 1008 1382 q 944 1352 975 1376 q 881 1306 913 1328 l 881 1313 l 881 1322 l 897 1396 l 897 1406 l 897 1415 l 788 1342 q 778 1333 785 1339 q 769 1322 772 1326 q 780 1307 772 1318 q 796 1285 788 1296 q 812 1263 804 1274 q 824 1249 819 1253 q 829 1232 829 1242 l 696 1232 q 674 1217 682 1232 q 663 1182 667 1201 q 658 1142 658 1163 q 657 1114 657 1122 q 692 963 657 1032 q 769 828 726 893 q 756 826 765 828 q 742 824 746 824 q 726 826 736 824 q 714 828 715 828 q 704 833 713 828 q 687 846 696 839 q 669 858 678 853 q 660 864 661 864 l 639 864 q 604 863 621 864 q 568 861 588 861 q 550 864 553 861 q 502 894 521 875 q 473 938 483 914 q 459 988 463 961 q 456 1042 456 1015 l 456 1111 l 456 1131 q 456 1161 456 1146 q 457 1192 457 1176 l 457 1213 q 561 1319 507 1278 q 674 1391 615 1360 q 793 1452 732 1422 q 917 1525 854 1482 q 983 1585 956 1549 q 1035 1661 1011 1621 q 1083 1743 1060 1701 q 1138 1819 1107 1785 q 1101 1854 1126 1842 q 1043 1875 1075 1867 q 977 1891 1011 1883 q 917 1910 943 1899 q 781 1973 843 1938 q 662 2050 718 2008 q 551 2140 606 2092 q 439 2240 497 2188 q 424 2253 435 2244 q 403 2269 414 2261 q 381 2285 392 2278 q 365 2297 371 2293 q 145 2499 221 2383 q 69 2783 69 2615 l 69 2842 q 71 2892 69 2865 q 76 2944 72 2918 q 88 2992 81 2969 q 108 3032 96 3015 q 243 3160 165 3107 q 411 3251 321 3214 q 601 3310 501 3289 q 801 3344 701 3332 q 999 3360 901 3357 q 1182 3364 1096 3364 l 1207 3364 q 1251 3363 1231 3364 q 1292 3363 1272 3363 l 1321 3363 q 1358 3340 1344 3354 q 1376 3310 1371 3326 q 1383 3274 1382 3293 q 1383 3235 1383 3254 q 1381 3215 1383 3229 q 1377 3191 1379 3201 q 1375 3179 1375 3181 l 1339 3142 l 861 2975 q 761 2922 807 2957 q 672 2847 715 2886 q 586 2767 629 2807 q 493 2701 543 2728 q 483 2686 489 2699 q 471 2658 476 2674 q 461 2628 465 2642 q 457 2608 457 2614 q 481 2564 458 2585 q 539 2527 504 2543 q 615 2499 574 2511 q 696 2477 657 2486 q 767 2464 735 2468 q 815 2460 800 2460 q 1008 2472 915 2460 q 1192 2505 1101 2485 q 1372 2552 1282 2525 q 1558 2608 1463 2579 q 1576 2613 1561 2610 q 1608 2619 1590 2617 q 1644 2625 1626 2622 q 1669 2628 1661 2628 q 1714 2632 1683 2629 q 1782 2638 1744 2635 q 1862 2646 1819 2642 q 1942 2653 1904 2650 q 2011 2660 1981 2657 q 2056 2664 2042 2663 q 2086 2673 2056 2664 q 2164 2696 2117 2682 q 2268 2726 2211 2710 q 2376 2757 2325 2743 q 2465 2781 2426 2771 q 2514 2792 2503 2790 q 2582 2797 2536 2793 q 2685 2807 2628 2801 q 2808 2819 2743 2813 q 2930 2832 2872 2826 q 3033 2842 2988 2838 q 3101 2847 3079 2846 l 3115 2847 q 3142 2849 3128 2847 q 3172 2850 3157 2850 l 3197 2850 q 3548 2817 3381 2850 q 3875 2731 3715 2783 q 4193 2612 4035 2678 q 4517 2481 4351 2546 q 4624 2428 4572 2458 q 4726 2368 4675 2399 q 4828 2309 4776 2338 q 4939 2260 4881 2281 q 5191 2168 5064 2210 q 5445 2086 5318 2126 q 5699 2003 5572 2046 q 5950 1910 5826 1961 q 5992 1878 5964 1900 q 6057 1830 6021 1857 q 6133 1773 6093 1803 q 6208 1716 6172 1743 q 6274 1667 6244 1689 q 6317 1636 6303 1646 q 6400 1558 6360 1599 q 6472 1474 6440 1518 q 6521 1378 6503 1429 q 6539 1268 6539 1328 q 6502 1117 6539 1182 q 6405 1009 6465 1053 q 6268 942 6344 965 q 6114 918 6192 919 q 6023 915 6085 917 q 5883 911 5961 913 q 5719 908 5806 910 q 5556 904 5633 906 q 5416 902 5478 903 q 5325 901 5354 901 q 5194 876 5256 892 q 5074 838 5132 860 q 4961 785 5017 815 q 4847 717 4906 756 q 4928 827 4863 783 q 5090 899 4993 871 q 5308 942 5188 926 q 5553 967 5428 957 q 5801 986 5679 976 q 6026 1011 5924 996 q 6200 1052 6128 1026 q 6299 1121 6272 1078 q 6317 1183 6317 1153 q 6318 1249 6318 1214 l 6318 1264 q 6317 1286 6318 1275 q 6317 1307 6317 1297 l 6317 1322 q 6125 1483 6233 1428 q 5895 1568 6017 1539 q 5647 1613 5774 1597 q 5399 1653 5519 1628 q 5356 1663 5389 1654 q 5287 1681 5324 1671 q 5218 1699 5250 1690 q 5178 1710 5186 1707 q 5120 1715 5158 1711 q 5033 1725 5082 1719 q 4931 1737 4985 1731 q 4828 1749 4876 1743 q 4740 1758 4779 1754 q 4682 1764 4701 1763 l 4644 1782 q 4608 1789 4639 1783 q 4529 1803 4576 1794 q 4424 1822 4482 1811 q 4310 1842 4367 1832 q 4201 1860 4253 1851 q 4113 1874 4149 1868 l 4099 1874 q 4076 1874 4089 1874 q 4049 1875 4064 1875 l 4031 1875 q 3867 1867 3950 1875 q 3701 1842 3783 1860 q 3542 1797 3619 1825 q 3396 1726 3464 1768 q 3369 1704 3385 1718 q 3335 1677 3353 1690 q 3299 1652 3317 1664 q 3268 1636 3282 1640 q 3232 1624 3246 1626 q 3206 1619 3218 1621 q 3184 1613 3194 1617 q 3158 1599 3174 1610 q 3203 1558 3168 1579 q 3281 1517 3239 1538 q 3360 1481 3322 1497 q 3415 1451 3399 1464 q 3622 1274 3521 1364 q 3819 1085 3724 1185 q 3820 1075 3819 1081 q 3821 1065 3821 1069 q 3817 1037 3821 1047 q 3800 1011 3814 1026 l 3563 754 q 3524 674 3551 722 q 3465 574 3497 625 q 3399 476 3432 522 q 3342 404 3365 431 q 3313 373 3331 392 q 3276 337 3294 354 q 3245 307 3258 319 q 3232 294 3232 294 l 3158 294 q 3187 269 3171 283 q 3217 240 3203 256 q 3240 205 3231 224 q 3250 167 3250 186 q 3249 155 3250 161 q 3249 147 3249 149 q 3189 188 3217 171 q 3121 204 3161 204 q 3038 185 3076 204 q 2963 143 3000 167 q 2889 99 2926 119 q 2808 74 2851 78 q 2597 46 2707 58 q 2382 33 2486 33 q 2388 65 2382 51 q 2404 93 2394 78 m 3471 901 q 3436 810 3471 853 q 3360 726 3401 768 q 3283 640 3318 685 q 3249 542 3249 596 l 3249 533 l 3286 551 q 3308 581 3286 551 q 3361 653 3331 611 q 3422 738 3392 694 q 3469 808 3453 782 q 3499 856 3482 828 q 3530 913 3515 883 q 3554 974 3544 943 q 3564 1029 3564 1004 q 3540 1065 3564 1042 q 3478 1118 3515 1089 q 3394 1176 3440 1147 q 3304 1231 3349 1206 q 3222 1271 3260 1256 q 3165 1286 3185 1286 l 3158 1286 q 3212 1186 3174 1239 q 3297 1083 3250 1133 q 3390 989 3343 1032 q 3469 918 3436 946 q 3470 910 3469 917 q 3471 901 3471 904 m 550 1139 l 550 956 q 558 946 550 956 q 577 924 565 936 q 601 899 589 911 q 624 882 614 888 q 626 881 624 882 q 631 881 629 881 q 635 881 632 881 q 640 882 639 882 q 588 1007 613 947 q 550 1139 564 1067 m 1394 1746 q 1343 1703 1379 1729 q 1268 1651 1307 1678 q 1197 1599 1229 1624 q 1156 1563 1164 1575 q 1169 1562 1160 1563 q 1188 1560 1178 1561 q 1208 1559 1199 1560 q 1219 1558 1217 1558 q 1373 1583 1301 1558 q 1522 1636 1444 1608 q 1501 1669 1511 1650 q 1481 1706 1492 1689 q 1457 1735 1471 1724 q 1422 1747 1443 1747 q 1407 1747 1417 1747 q 1394 1746 1397 1746 z "},"3":{"ha":6893,"x_min":69,"x_max":6824,"o":"m 3985 426 q 3985 440 3985 432 q 3984 457 3985 449 q 3983 471 3983 465 q 3983 478 3983 478 q 3919 694 3961 610 q 3813 839 3876 778 q 3665 950 3750 900 q 3469 1065 3579 1000 q 3438 1083 3463 1068 q 3381 1118 3414 1097 q 3312 1163 3349 1139 q 3242 1208 3275 1186 q 3187 1247 3210 1231 q 3158 1268 3164 1263 q 3139 1278 3153 1272 q 3121 1286 3125 1285 q 3087 1184 3114 1232 q 3021 1097 3060 1136 q 2935 1026 2982 1057 q 2844 975 2889 996 q 2808 956 2833 968 q 2750 928 2783 943 q 2680 897 2717 914 q 2610 867 2643 881 q 2551 842 2578 853 q 2514 828 2525 832 l 2440 681 q 2432 666 2438 675 q 2421 648 2426 657 q 2410 632 2415 639 q 2404 625 2406 625 q 2370 601 2396 617 q 2315 567 2344 585 q 2258 535 2285 550 q 2221 514 2231 519 q 2212 513 2218 514 q 2203 513 2206 513 q 2165 521 2179 513 q 2129 533 2150 529 l 1946 571 q 1944 578 1946 572 q 1942 588 1942 585 q 1967 643 1942 622 q 2025 676 1992 664 q 2093 697 2058 689 q 2147 717 2128 706 q 2196 758 2176 735 q 2233 806 2215 782 q 2269 856 2250 831 q 2313 901 2288 881 q 2367 931 2338 919 q 2429 952 2397 943 q 2492 969 2461 961 q 2551 992 2524 978 q 2620 1033 2586 1008 q 2687 1085 2654 1057 q 2750 1141 2719 1113 q 2808 1194 2781 1169 q 2809 1202 2808 1196 q 2810 1213 2810 1208 q 2796 1247 2810 1232 q 2763 1272 2782 1261 q 2726 1291 2744 1283 q 2697 1306 2707 1299 q 2588 1370 2642 1335 q 2478 1441 2533 1406 q 2368 1508 2424 1476 q 2257 1563 2313 1540 q 2256 1556 2257 1558 q 2256 1553 2256 1554 q 2259 1540 2256 1544 q 2267 1530 2263 1535 q 2274 1519 2271 1525 q 2278 1506 2278 1514 q 2265 1474 2278 1481 q 2228 1468 2251 1468 l 2200 1468 q 2140 1472 2174 1468 q 2073 1485 2106 1475 q 2015 1513 2040 1494 q 1982 1563 1990 1532 l 1908 1782 q 1879 1813 1900 1804 q 1840 1833 1858 1822 q 1811 1863 1821 1843 q 1817 1929 1801 1883 q 1772 1942 1804 1932 q 1706 1963 1740 1951 q 1640 1985 1671 1974 q 1596 2003 1608 1996 q 1515 2055 1542 2022 q 1471 2127 1488 2088 q 1440 2210 1454 2167 q 1394 2297 1425 2254 q 1293 2422 1344 2364 q 1192 2539 1242 2481 q 1095 2658 1142 2597 q 1008 2792 1049 2719 q 951 2897 976 2846 q 903 2999 925 2949 q 863 3103 882 3050 q 824 3215 843 3157 q 769 3381 793 3308 q 721 3508 746 3453 q 663 3603 696 3563 q 582 3674 631 3644 q 463 3726 533 3704 q 293 3767 393 3749 q 263 3769 279 3768 q 226 3769 246 3769 q 172 3772 200 3769 q 122 3785 144 3775 q 84 3811 99 3794 q 69 3857 69 3828 q 110 3926 69 3894 q 208 3983 151 3958 q 324 4028 264 4008 q 421 4060 383 4047 l 440 4060 q 471 4060 456 4060 q 501 4061 486 4061 l 521 4061 q 645 4046 594 4061 q 731 4003 696 4031 q 788 3938 765 3976 q 828 3853 811 3900 q 860 3751 844 3806 q 897 3638 876 3696 q 955 3481 919 3569 q 1038 3298 990 3392 q 1144 3113 1086 3204 q 1272 2950 1203 3022 q 1419 2834 1340 2878 q 1583 2790 1497 2790 q 1840 2801 1714 2790 q 2099 2813 1965 2813 l 2157 2813 q 2224 2812 2192 2813 q 2285 2811 2257 2811 l 2313 2811 q 2374 2800 2328 2810 q 2483 2776 2421 2790 q 2615 2747 2544 2763 q 2747 2717 2685 2731 q 2856 2693 2810 2703 q 2918 2682 2903 2683 q 2952 2676 2925 2679 q 3010 2672 2979 2674 q 3068 2667 3042 2669 q 3101 2664 3094 2665 q 3239 2634 3174 2653 q 3367 2591 3304 2615 q 3492 2538 3431 2567 q 3617 2481 3553 2510 q 3833 2389 3717 2428 q 4069 2320 3949 2350 q 4309 2267 4190 2290 q 4535 2224 4428 2244 q 4622 2205 4569 2215 q 4734 2185 4675 2194 q 4853 2165 4793 2175 q 4963 2147 4913 2154 q 5046 2135 5013 2140 q 5086 2131 5079 2131 l 5913 2131 q 6071 2143 5988 2131 q 6238 2176 6154 2156 q 6403 2224 6322 2197 q 6556 2278 6485 2250 q 6605 2299 6572 2283 q 6676 2331 6638 2314 q 6755 2360 6715 2347 q 6824 2374 6794 2374 q 6806 2322 6824 2346 q 6764 2280 6789 2299 q 6712 2247 6739 2261 q 6665 2224 6685 2233 q 6281 2059 6474 2121 q 5888 1964 6088 1997 q 5483 1920 5689 1931 q 5064 1910 5278 1910 q 4487 1919 4771 1910 q 3910 1929 4203 1929 l 3653 1929 q 3596 1904 3635 1929 q 3513 1847 3557 1879 q 3426 1785 3468 1815 q 3360 1746 3385 1756 q 3335 1735 3353 1743 q 3296 1717 3317 1726 q 3257 1699 3275 1707 q 3232 1690 3239 1692 q 3212 1651 3213 1671 q 3211 1607 3211 1631 q 3231 1556 3211 1579 q 3283 1513 3251 1533 q 3353 1476 3314 1493 q 3428 1445 3392 1460 q 3496 1419 3465 1431 q 3543 1396 3526 1407 q 3655 1295 3608 1351 q 3749 1183 3701 1239 q 3856 1076 3797 1126 q 4003 992 3914 1025 q 4035 930 4024 958 q 4057 864 4047 901 q 4071 807 4061 846 q 4093 719 4081 768 q 4120 617 4106 671 q 4147 514 4135 563 q 4170 426 4160 465 q 4186 368 4181 386 l 4186 321 q 4188 253 4186 292 q 4187 177 4190 215 q 4172 106 4183 139 q 4131 56 4160 74 q 4110 44 4119 47 q 4094 36 4101 40 q 4083 24 4088 32 q 4076 0 4078 17 l 3642 0 q 3667 77 3642 51 q 3731 119 3693 103 q 3813 151 3768 136 q 3896 197 3858 167 q 3959 281 3933 228 q 3985 426 3985 335 m 3101 1322 q 3088 1306 3088 1322 q 3101 1286 3088 1286 q 3117 1306 3117 1286 q 3101 1322 3117 1322 m 3085 1342 q 3068 1322 3068 1342 q 3085 1306 3068 1306 q 3099 1322 3099 1306 q 3085 1342 3099 1342 m 2992 1378 q 3019 1352 3001 1363 q 3056 1342 3038 1342 l 3065 1342 q 3038 1367 3056 1357 q 3001 1378 3019 1378 l 2992 1378 m 2974 1415 q 2958 1396 2958 1415 q 2974 1378 2958 1378 q 2989 1396 2989 1378 q 2974 1415 2989 1415 m 2956 1433 q 2940 1415 2940 1433 q 2956 1396 2940 1396 q 2969 1415 2969 1396 q 2956 1433 2969 1433 m 2938 1451 q 2921 1433 2921 1451 q 2938 1415 2921 1415 q 2951 1433 2951 1415 q 2938 1451 2951 1451 m 2036 1710 q 2052 1666 2042 1692 q 2077 1616 2063 1640 q 2112 1575 2092 1592 q 2157 1558 2132 1558 q 2194 1565 2179 1558 q 2221 1599 2210 1571 q 2179 1649 2201 1619 q 2147 1710 2157 1679 l 2036 1710 z "},"4":{"ha":7857,"x_min":69,"x_max":7788,"o":"m 3268 308 q 3259 309 3267 308 q 3247 310 3251 310 q 3206 298 3222 310 q 3176 273 3190 286 q 3146 248 3161 260 q 3108 236 3131 236 q 3126 314 3108 278 q 3166 383 3144 350 q 3206 449 3188 417 q 3224 518 3224 482 l 3224 529 q 3192 510 3208 518 q 3156 501 3175 501 q 3162 539 3156 521 q 3176 574 3168 557 q 3192 607 3185 590 q 3203 640 3200 624 l 3203 671 l 3203 725 l 3203 783 l 3203 817 q 3212 838 3203 822 q 3224 861 3221 854 l 3224 1096 q 3176 1080 3211 1096 q 3097 1039 3142 1064 q 3004 982 3053 1014 q 2915 919 2956 950 q 2849 862 2875 889 q 2822 818 2822 835 q 2837 765 2822 789 q 2869 724 2851 742 q 2902 694 2888 707 q 2917 672 2917 681 q 2916 666 2917 671 q 2915 661 2915 661 q 2906 649 2914 657 q 2894 640 2899 642 q 3051 586 2958 586 q 3040 546 3051 563 q 3011 518 3028 529 q 2974 499 2994 507 q 2938 486 2954 492 l 3003 419 q 3004 415 3003 419 q 3006 408 3006 411 q 2988 383 3006 392 q 2949 373 2971 375 q 2907 372 2926 371 q 2883 372 2888 372 q 2819 377 2846 372 q 2770 392 2793 382 q 2725 420 2747 403 q 2674 464 2703 438 l 2650 419 l 2586 529 q 2526 490 2549 517 q 2492 428 2503 463 q 2483 356 2482 393 q 2497 288 2485 319 l 2386 396 q 2377 385 2385 393 q 2367 375 2369 376 q 2361 374 2367 375 q 2353 372 2356 372 q 2299 401 2322 372 q 2260 468 2276 429 q 2237 548 2244 507 q 2229 614 2229 589 q 2257 742 2229 681 q 2327 860 2285 804 q 2419 963 2369 915 q 2510 1051 2468 1011 q 2581 1124 2553 1092 q 2608 1181 2608 1157 q 2591 1219 2608 1197 q 2547 1264 2574 1240 q 2488 1312 2521 1288 q 2422 1359 2454 1336 q 2363 1401 2390 1382 q 2321 1435 2336 1421 q 2256 1497 2281 1468 q 2209 1551 2231 1526 q 2163 1595 2188 1575 q 2101 1631 2139 1615 q 1910 1713 2004 1667 q 1722 1799 1817 1758 q 1529 1869 1626 1840 q 1328 1897 1432 1897 l 1303 1897 q 1262 1897 1283 1897 q 1221 1896 1240 1896 l 1197 1896 q 1050 1817 1115 1863 q 930 1715 985 1771 q 827 1593 875 1658 q 733 1456 779 1528 q 702 1374 713 1424 q 678 1276 692 1324 q 642 1196 665 1229 q 568 1163 618 1163 q 526 1179 539 1163 q 509 1219 513 1196 q 508 1269 506 1243 q 510 1313 510 1294 q 510 1390 510 1356 q 516 1456 511 1424 q 531 1525 521 1489 q 558 1610 540 1561 l 514 1654 q 509 1656 514 1654 q 501 1657 504 1657 q 447 1628 481 1657 q 371 1565 413 1600 q 281 1502 329 1531 q 182 1474 233 1474 q 69 1588 69 1474 q 114 1784 69 1686 q 233 1970 158 1882 q 403 2134 307 2058 q 604 2265 500 2210 q 813 2352 708 2321 q 1007 2383 917 2383 q 1232 2365 1121 2383 q 1452 2326 1343 2347 q 1670 2286 1561 2304 q 1892 2268 1779 2268 l 1965 2268 q 2073 2281 2024 2268 q 2167 2336 2122 2293 l 2740 2910 q 2765 2929 2744 2914 q 2816 2965 2786 2944 q 2882 3010 2846 2986 q 2953 3058 2918 3035 q 3019 3100 2988 3081 q 3071 3131 3050 3119 q 3662 3369 3360 3297 q 4294 3442 3964 3442 q 4689 3412 4497 3442 q 5058 3316 4881 3382 q 5394 3144 5235 3250 q 5693 2888 5554 3039 q 5816 2703 5765 2810 q 5907 2477 5867 2597 q 5983 2229 5947 2357 q 6060 1980 6018 2101 q 6156 1751 6101 1858 q 6288 1562 6210 1643 q 6473 1433 6365 1481 q 6729 1386 6581 1386 q 6983 1432 6867 1386 q 7192 1558 7099 1478 q 7356 1744 7285 1638 q 7474 1970 7426 1850 q 7545 2218 7521 2090 q 7569 2469 7569 2346 q 7520 2808 7569 2647 q 7383 3108 7471 2969 q 7174 3363 7296 3247 q 6908 3565 7053 3478 q 6600 3710 6763 3653 q 6267 3792 6438 3768 l 6267 3831 q 6613 3778 6435 3831 q 6960 3631 6790 3725 q 7279 3408 7129 3538 q 7542 3126 7429 3279 q 7722 2803 7656 2974 q 7788 2457 7788 2633 q 7733 2052 7788 2254 q 7579 1667 7679 1850 q 7336 1333 7479 1485 q 7015 1082 7193 1182 q 6941 1042 6981 1063 q 6860 1006 6901 1022 q 6777 980 6819 990 q 6694 969 6735 969 q 6376 1015 6532 969 q 6075 1136 6221 1061 q 5795 1306 5929 1211 q 5540 1499 5661 1400 q 5467 1573 5497 1531 q 5408 1661 5436 1615 q 5348 1751 5379 1707 q 5275 1831 5317 1796 q 5106 1863 5183 1835 q 4956 1924 5029 1892 q 4806 1983 4882 1957 q 4640 2010 4729 2010 q 4553 2008 4597 2010 q 4465 2001 4508 2007 q 4381 1980 4422 1994 q 4306 1939 4340 1965 q 4281 1489 4283 1718 q 4283 1036 4278 1260 q 4228 931 4260 979 q 4160 840 4196 883 q 4088 753 4125 796 q 4018 661 4051 710 q 3985 606 4000 636 q 3954 547 3969 576 q 3922 490 3939 518 q 3885 440 3906 463 q 3792 339 3836 386 q 3709 242 3747 292 q 3642 133 3671 192 q 3599 0 3614 75 q 3565 44 3578 15 q 3544 105 3551 72 q 3534 171 3536 138 q 3532 232 3532 204 l 3532 288 q 3463 219 3501 251 q 3388 154 3425 188 q 3318 83 3350 121 q 3268 0 3286 46 l 3238 0 l 3238 61 q 3239 124 3238 90 q 3243 190 3240 157 q 3252 254 3246 224 q 3268 308 3258 285 m 2367 440 q 2347 419 2347 440 q 2367 396 2347 396 q 2382 419 2382 396 q 2367 440 2382 440 m 3532 1014 q 3572 975 3546 982 q 3624 966 3597 968 q 3676 958 3651 964 q 3710 926 3700 953 q 3772 994 3751 961 q 3804 1062 3792 1028 q 3828 1133 3817 1096 q 3864 1214 3839 1171 l 3864 1236 q 3865 1279 3864 1258 q 3865 1319 3865 1300 l 3865 1344 q 3835 1613 3865 1486 q 3753 1875 3806 1740 q 3707 1864 3738 1872 q 3640 1844 3676 1856 q 3565 1817 3604 1832 q 3495 1785 3526 1801 q 3444 1751 3464 1768 q 3424 1718 3424 1735 q 3430 1707 3424 1717 q 3444 1686 3436 1697 q 3458 1665 3451 1675 q 3468 1654 3465 1656 q 3488 1594 3481 1629 q 3498 1525 3494 1560 q 3504 1459 3501 1490 q 3511 1410 3507 1428 q 3515 1365 3513 1396 q 3519 1295 3517 1335 q 3524 1213 3521 1256 q 3528 1130 3526 1169 q 3531 1059 3529 1090 q 3532 1014 3532 1028 z "},"5":{"ha":4311,"x_min":69,"x_max":4242,"o":"m 1053 18 q 1125 14 1074 17 q 1234 8 1176 11 q 1343 2 1292 4 q 1415 0 1394 0 l 1436 0 q 1478 -1 1456 0 q 1525 -1 1501 -1 l 1561 -1 l 1590 -1 q 1635 -1 1611 -1 q 1678 0 1658 0 l 1708 0 q 1726 6 1713 3 q 1743 8 1739 8 q 1772 14 1749 10 q 1823 22 1796 18 q 1873 30 1850 26 q 1903 35 1896 33 q 2033 75 1975 51 q 2142 132 2092 99 q 2237 209 2192 165 q 2328 310 2282 253 q 2329 317 2329 311 l 2329 324 q 2315 354 2329 344 q 2282 364 2301 364 q 2240 358 2261 364 q 2197 342 2218 351 q 2156 324 2176 333 q 2115 310 2135 315 q 1942 279 2028 286 q 1768 272 1857 272 q 1585 283 1668 272 q 1427 315 1503 294 q 1276 366 1351 336 q 1114 433 1201 396 q 981 494 1046 463 q 859 565 917 525 q 751 654 801 604 q 663 769 701 704 q 634 820 647 799 q 611 863 621 842 q 597 905 601 883 q 592 956 592 926 q 611 1069 592 1015 q 662 1173 631 1124 q 731 1267 693 1222 q 804 1354 768 1313 l 840 1389 q 960 1467 899 1432 q 1079 1540 1021 1503 q 1137 1579 1101 1556 q 1206 1626 1172 1603 q 1265 1665 1240 1649 q 1292 1682 1290 1682 l 1326 1718 q 1354 1738 1328 1718 q 1423 1788 1381 1757 q 1518 1860 1465 1819 q 1624 1940 1571 1900 q 1728 2017 1678 1981 q 1814 2081 1778 2054 q 1843 2099 1829 2092 q 1875 2107 1857 2107 l 1885 2107 q 1835 1959 1854 2029 q 1807 1818 1817 1889 q 1793 1673 1797 1747 q 1788 1514 1789 1599 q 1756 1429 1781 1468 q 1705 1352 1732 1390 q 1657 1274 1678 1314 q 1636 1186 1636 1233 q 1646 1140 1636 1161 q 1670 1099 1656 1118 q 1701 1062 1685 1079 q 1733 1026 1718 1044 q 1746 1002 1743 1015 q 1752 974 1749 989 q 1760 941 1756 958 q 1779 903 1765 924 q 1794 868 1789 888 q 1801 828 1799 849 q 1803 787 1803 807 q 1804 751 1804 767 q 1812 744 1807 744 q 1822 743 1817 743 q 1876 764 1858 743 q 1903 810 1893 785 q 1924 856 1914 835 q 1956 876 1933 876 q 1959 873 1957 876 q 1964 868 1961 869 l 2008 779 l 2008 769 l 2008 761 q 2007 754 2008 760 q 2004 742 2006 749 q 2001 731 2003 736 q 2000 726 2000 726 q 2005 710 2000 714 q 2017 707 2010 707 q 2050 728 2035 707 q 2076 776 2065 749 q 2095 829 2088 803 q 2106 868 2103 856 q 2122 849 2115 861 q 2134 826 2128 838 q 2148 805 2140 814 q 2168 796 2156 796 q 2195 810 2186 796 q 2209 844 2204 824 q 2219 888 2214 865 q 2233 929 2224 911 q 2260 956 2242 947 q 2310 956 2278 964 q 2318 974 2318 964 q 2298 1040 2318 1008 q 2247 1099 2278 1071 q 2181 1154 2217 1128 q 2114 1204 2144 1181 q 2063 1250 2083 1228 q 2043 1293 2043 1272 q 2048 1314 2043 1306 q 2063 1336 2053 1322 q 2085 1373 2067 1344 q 2124 1433 2103 1401 q 2164 1494 2146 1465 q 2186 1531 2182 1522 q 2194 1550 2188 1535 q 2210 1585 2201 1565 q 2226 1625 2218 1606 q 2239 1656 2235 1644 q 2260 1731 2253 1693 q 2272 1806 2267 1768 q 2282 1881 2276 1843 q 2300 1956 2288 1918 q 2317 1993 2306 1974 q 2342 2032 2328 2013 q 2368 2071 2356 2051 q 2389 2107 2381 2090 q 2392 2113 2390 2107 q 2396 2124 2394 2118 q 2398 2136 2397 2131 q 2399 2143 2399 2142 q 2408 2175 2401 2156 q 2419 2213 2414 2194 q 2429 2244 2425 2231 q 2433 2257 2433 2257 l 2442 2267 q 2462 2281 2443 2268 q 2506 2310 2481 2293 q 2558 2344 2532 2326 q 2601 2372 2585 2361 q 2619 2381 2610 2381 l 2624 2381 l 2629 2381 q 2659 2353 2644 2369 q 2687 2320 2674 2338 q 2714 2286 2700 2303 q 2743 2257 2728 2269 q 2772 2236 2751 2251 q 2815 2204 2792 2221 q 2861 2172 2839 2188 q 2894 2151 2883 2157 q 2906 2144 2896 2150 q 2928 2133 2917 2139 q 2951 2122 2940 2128 q 2965 2115 2963 2117 q 2974 2107 2974 2115 q 2974 2106 2974 2107 q 2975 2103 2975 2104 q 2960 2065 2975 2082 q 2927 2030 2946 2047 q 2890 1994 2908 2013 q 2867 1956 2872 1976 q 2842 1838 2851 1897 q 2832 1719 2832 1779 l 2832 1682 q 2834 1652 2832 1675 q 2840 1602 2836 1629 q 2846 1551 2843 1575 q 2850 1522 2849 1528 l 2850 1518 q 2836 1458 2850 1485 q 2806 1406 2822 1432 q 2775 1354 2789 1381 q 2761 1296 2761 1328 q 2765 1231 2761 1263 q 2796 1176 2769 1200 q 2826 1152 2807 1168 q 2863 1121 2844 1136 q 2895 1094 2881 1106 q 2913 1081 2910 1082 q 2936 1067 2919 1075 q 2956 1058 2953 1058 l 3150 1058 q 3157 1055 3150 1058 q 3172 1047 3164 1051 q 3190 1036 3181 1042 q 3204 1026 3199 1031 q 3222 1004 3217 1017 q 3233 980 3228 992 q 3247 959 3239 968 q 3275 947 3256 950 q 3298 962 3288 944 q 3316 1003 3308 979 q 3329 1050 3324 1028 q 3338 1081 3335 1072 q 3341 1081 3339 1081 q 3346 1082 3343 1082 q 3351 1081 3349 1082 q 3354 1081 3354 1081 q 3372 1069 3363 1078 q 3391 1050 3382 1060 q 3408 1033 3400 1040 q 3421 1026 3415 1026 q 3441 1042 3435 1026 q 3449 1077 3447 1057 q 3451 1116 3451 1097 q 3451 1142 3450 1135 q 3457 1147 3451 1143 q 3469 1156 3463 1151 q 3482 1163 3476 1160 q 3488 1168 3488 1167 l 3488 1172 q 3477 1224 3488 1194 q 3449 1283 3467 1254 q 3408 1333 3431 1311 q 3363 1364 3386 1356 q 3316 1372 3347 1369 q 3264 1374 3285 1374 q 3190 1360 3226 1374 q 3119 1346 3154 1346 q 3108 1353 3110 1346 q 3106 1368 3106 1360 q 3106 1375 3106 1371 q 3107 1381 3107 1379 q 3137 1439 3115 1397 q 3183 1527 3158 1481 q 3228 1615 3207 1574 q 3257 1672 3249 1656 q 3298 1803 3289 1739 q 3310 1939 3307 1868 q 3337 1990 3322 1972 q 3363 2026 3351 2008 q 3383 2068 3375 2043 q 3392 2139 3392 2093 q 3385 2187 3392 2164 q 3370 2231 3379 2210 q 3352 2274 3361 2253 q 3338 2319 3343 2296 q 3334 2331 3336 2321 q 3330 2352 3332 2340 q 3326 2376 3328 2364 q 3322 2399 3324 2389 q 3319 2417 3319 2414 q 3315 2431 3318 2419 q 3310 2443 3313 2440 q 3299 2464 3307 2449 q 3283 2496 3292 2479 q 3268 2528 3275 2513 q 3257 2550 3261 2543 q 3233 2586 3250 2564 q 3194 2635 3215 2608 q 3149 2690 3172 2661 q 3106 2744 3125 2718 q 3075 2792 3088 2771 q 3063 2824 3063 2813 l 3063 2833 l 3204 3046 q 3209 3059 3206 3050 q 3217 3078 3213 3068 q 3225 3096 3221 3088 q 3231 3107 3229 3104 q 3251 3149 3236 3119 q 3282 3210 3265 3178 q 3315 3271 3299 3242 q 3338 3311 3331 3300 q 3349 3310 3346 3308 q 3355 3313 3353 3311 q 3359 3318 3357 3315 q 3368 3321 3361 3321 q 3397 3304 3382 3321 q 3429 3267 3413 3288 q 3463 3231 3446 3247 q 3497 3214 3481 3214 q 3523 3222 3514 3214 q 3537 3242 3532 3231 q 3544 3268 3542 3254 q 3550 3293 3547 3282 q 3552 3294 3551 3293 q 3554 3294 3553 3294 l 3558 3293 q 3578 3281 3571 3286 q 3590 3273 3585 3276 q 3600 3268 3594 3269 q 3615 3267 3606 3267 q 3635 3279 3629 3267 q 3646 3307 3642 3292 q 3654 3335 3650 3322 q 3668 3347 3658 3347 l 3674 3347 l 3717 3338 l 3728 3338 q 3738 3339 3732 3338 q 3744 3347 3744 3340 l 3744 3431 l 3811 3431 q 3810 3446 3811 3431 q 3806 3471 3808 3461 q 3783 3515 3799 3496 q 3747 3547 3768 3533 q 3702 3567 3726 3560 q 3656 3576 3678 3575 q 3655 3581 3656 3578 q 3654 3585 3654 3583 q 3666 3627 3654 3607 q 3697 3662 3678 3647 q 3738 3685 3715 3676 q 3781 3693 3760 3693 q 3815 3671 3800 3693 q 3844 3622 3831 3649 q 3872 3572 3858 3594 q 3900 3550 3885 3550 q 3921 3558 3913 3550 q 3935 3576 3929 3565 q 3943 3599 3940 3588 q 3947 3621 3946 3611 q 3951 3622 3949 3621 q 3957 3622 3954 3622 q 3976 3614 3968 3622 q 3988 3594 3983 3606 q 3996 3570 3993 3582 q 4000 3550 3999 3558 l 4010 3550 q 4039 3564 4028 3550 q 4056 3597 4050 3578 q 4064 3635 4063 3615 q 4063 3665 4065 3654 q 4103 3645 4083 3656 q 4142 3621 4124 3635 q 4161 3638 4154 3625 q 4172 3665 4168 3650 q 4176 3693 4175 3679 q 4178 3714 4178 3707 l 4178 3718 q 4173 3728 4178 3721 q 4169 3736 4168 3735 q 4179 3752 4172 3749 q 4196 3756 4186 3756 q 4212 3750 4206 3756 q 4228 3744 4218 3744 q 4242 3763 4242 3744 q 4217 3815 4242 3789 q 4169 3851 4192 3840 l 4028 3922 q 4036 3931 4031 3931 q 4058 3950 4044 3938 q 4071 3963 4071 3963 l 4169 3963 q 4173 3967 4171 3963 q 4178 3975 4175 3972 l 4178 3979 q 4166 4021 4178 4003 q 4135 4051 4154 4039 q 4095 4068 4117 4063 q 4056 4074 4074 4074 q 3969 4058 4008 4074 q 3892 4023 3929 4042 q 3815 3989 3854 4004 q 3729 3974 3776 3974 l 3715 3974 q 3689 3974 3703 3974 q 3674 3975 3675 3975 q 3616 3984 3651 3978 q 3547 3998 3581 3990 q 3488 4012 3513 4006 q 3461 4019 3463 4018 l 3443 4038 q 3439 4059 3443 4039 q 3430 4108 3435 4079 q 3419 4165 3425 4136 q 3408 4214 3413 4194 q 3408 4222 3408 4215 q 3407 4232 3407 4229 q 3412 4274 3407 4257 q 3425 4321 3417 4290 l 3646 5019 q 3683 5197 3674 5107 q 3693 5374 3693 5286 q 3676 5563 3693 5468 q 3623 5747 3658 5658 q 3534 5914 3588 5835 q 3408 6056 3481 5993 q 3305 6131 3356 6100 q 3204 6206 3254 6161 q 3130 6254 3172 6235 q 3041 6285 3088 6274 q 2947 6301 2994 6297 q 2858 6306 2900 6306 q 2783 6293 2826 6306 q 2694 6258 2740 6281 q 2602 6207 2647 6236 q 2522 6144 2557 6178 q 2464 6074 2486 6110 q 2442 6001 2442 6038 q 2463 5958 2442 5965 q 2518 5950 2483 5950 q 2576 5956 2547 5950 q 2634 5969 2606 5961 q 2692 5982 2663 5976 q 2751 5988 2721 5988 q 2772 5986 2757 5988 q 2788 5985 2786 5985 l 2796 5976 q 2772 5951 2786 5964 q 2743 5932 2758 5939 q 2704 5914 2732 5926 q 2645 5887 2676 5901 q 2586 5860 2614 5872 q 2549 5843 2558 5847 q 2547 5835 2549 5842 q 2546 5826 2546 5828 q 2563 5792 2546 5806 q 2603 5769 2581 5778 q 2651 5758 2626 5761 q 2690 5756 2675 5756 q 2748 5763 2719 5756 q 2804 5778 2776 5769 q 2860 5793 2832 5786 q 2917 5800 2888 5800 q 2947 5798 2933 5800 q 2975 5792 2961 5796 q 3005 5783 2989 5788 q 3044 5772 3021 5778 q 3099 5758 3078 5764 q 3133 5741 3119 5751 q 3157 5711 3147 5731 q 3178 5657 3167 5692 q 3182 5639 3179 5650 q 3188 5617 3185 5628 q 3193 5597 3190 5606 q 3196 5586 3196 5588 q 3197 5567 3196 5581 q 3200 5540 3199 5554 q 3203 5514 3201 5526 q 3204 5497 3204 5501 q 3181 5291 3204 5389 q 3114 5103 3157 5193 q 3013 4930 3071 5014 q 2885 4764 2954 4846 q 2826 4692 2865 4738 q 2747 4600 2788 4646 q 2675 4519 2707 4554 q 2638 4481 2643 4485 l 1885 3772 q 1874 3759 1882 3769 q 1857 3736 1867 3749 q 1838 3711 1847 3724 q 1822 3692 1828 3699 q 1792 3649 1811 3676 q 1752 3590 1774 3622 q 1708 3524 1731 3558 q 1667 3461 1686 3490 q 1635 3410 1649 3432 q 1619 3382 1622 3389 q 1588 3329 1608 3365 q 1542 3248 1567 3293 q 1489 3152 1517 3203 q 1436 3056 1461 3101 q 1392 2975 1411 3011 q 1363 2922 1372 2939 q 1353 2909 1360 2919 q 1344 2894 1347 2899 q 1274 2761 1308 2829 q 1199 2627 1239 2693 q 1113 2501 1160 2561 q 1008 2390 1067 2440 l 583 2026 q 528 1991 556 2013 q 474 1946 500 1969 q 424 1897 447 1922 q 379 1850 400 1872 q 291 1734 328 1792 q 226 1615 254 1676 q 175 1487 197 1553 q 132 1346 153 1421 q 90 1188 111 1269 q 69 1022 69 1106 q 76 905 69 969 q 97 774 83 840 q 133 646 111 707 q 185 539 156 585 q 196 522 188 533 q 215 497 204 511 q 239 468 226 483 q 261 440 251 453 q 283 415 276 422 q 300 397 289 408 q 335 362 315 382 q 375 322 356 342 q 410 287 394 303 q 433 265 426 271 q 444 258 435 264 q 464 246 453 253 q 486 232 475 239 q 504 221 497 225 q 769 92 638 146 q 1053 18 901 38 m 3221 5481 q 3229 5472 3229 5481 q 3221 5463 3229 5463 q 3214 5472 3214 5463 q 3221 5481 3214 5481 z "},"6":{"ha":9113,"x_min":69,"x_max":9043,"o":"m 7821 14 q 7832 0 7832 14 q 7821 -14 7832 -14 q 7810 0 7810 -14 q 7821 14 7810 14 m 3224 431 q 3223 444 3224 433 q 3222 458 3222 456 q 3237 544 3222 501 q 3251 631 3251 586 q 3237 806 3251 719 q 3222 982 3222 893 q 3237 1109 3222 1047 q 3251 1236 3251 1171 l 3251 1250 q 3226 1226 3244 1243 q 3189 1188 3208 1208 q 3151 1146 3169 1167 q 3126 1111 3133 1125 q 3117 1089 3124 1107 q 3104 1049 3111 1071 q 3092 1009 3097 1028 q 3085 986 3086 990 q 3074 960 3082 981 q 3056 917 3065 940 q 3038 873 3046 893 q 3029 847 3031 853 q 3024 814 3025 833 q 3021 774 3024 794 q 3011 736 3018 754 q 2988 708 3004 718 q 2933 694 2956 700 q 2889 685 2910 689 q 2847 681 2868 682 q 2799 679 2825 679 q 2722 692 2758 679 q 2651 722 2686 706 q 2581 751 2615 738 q 2508 764 2546 764 l 2501 764 l 2418 736 l 2411 736 l 2404 736 q 2396 743 2401 739 q 2390 750 2390 747 q 2417 824 2390 793 q 2481 882 2444 856 q 2554 933 2517 908 q 2613 986 2592 957 q 2644 1039 2631 1011 q 2669 1096 2657 1067 q 2694 1153 2682 1125 q 2724 1208 2707 1182 l 2765 1264 q 2806 1304 2774 1272 q 2877 1374 2839 1336 q 2948 1444 2915 1411 q 2988 1486 2981 1476 q 3010 1521 2993 1494 q 3050 1583 3028 1547 q 3099 1660 3072 1619 q 3147 1736 3125 1700 q 3187 1799 3169 1772 q 3210 1833 3204 1825 q 3224 1849 3213 1838 q 3247 1876 3235 1861 q 3269 1908 3260 1892 q 3279 1938 3279 1925 l 3279 1944 q 3233 2097 3251 2019 q 3197 2251 3214 2174 q 3161 2406 3181 2329 q 3113 2556 3142 2482 q 3108 2567 3111 2560 q 3099 2584 3104 2575 q 3090 2601 3094 2593 q 3085 2611 3086 2608 q 3049 2666 3075 2626 q 2994 2750 3024 2706 q 2940 2834 2965 2794 q 2904 2889 2914 2874 l 2890 2931 l 2890 3292 q 2860 3390 2890 3347 q 2788 3470 2829 3433 q 2701 3541 2746 3507 q 2626 3611 2656 3575 q 2505 3763 2565 3683 q 2381 3920 2444 3843 q 2247 4067 2317 3997 q 2099 4191 2178 4138 q 1929 4276 2019 4244 q 1732 4307 1839 4307 q 1513 4263 1604 4307 q 1357 4147 1422 4219 q 1249 3978 1292 4074 q 1176 3780 1206 3883 q 1126 3572 1147 3676 q 1085 3375 1106 3467 q 1059 3302 1076 3338 q 1022 3233 1042 3267 q 981 3165 1001 3199 q 946 3097 961 3132 q 929 3045 933 3069 q 924 2995 925 3021 q 922 2940 922 2969 q 918 2875 922 2913 q 895 2806 913 2832 q 853 2761 878 2781 q 798 2724 828 2742 q 738 2681 768 2706 q 706 2651 728 2672 q 660 2606 683 2629 q 615 2560 636 2582 q 585 2528 593 2538 q 563 2516 576 2519 q 535 2512 550 2513 q 508 2512 521 2511 q 488 2513 494 2513 q 439 2525 463 2513 q 394 2551 415 2538 q 351 2572 372 2564 q 307 2569 329 2579 q 253 2639 272 2607 q 224 2704 233 2671 q 211 2776 214 2738 q 208 2864 208 2814 q 222 2977 208 2922 q 251 3086 235 3032 q 281 3194 268 3140 q 294 3306 294 3249 q 287 3365 294 3338 q 279 3424 279 3393 q 299 3512 279 3476 q 342 3578 318 3547 q 386 3640 367 3608 q 406 3715 406 3671 q 381 3792 406 3754 q 318 3864 356 3829 q 238 3931 281 3899 q 157 3990 194 3963 q 94 4039 119 4017 q 69 4076 69 4061 q 84 4102 69 4093 q 117 4117 99 4111 q 155 4131 136 4124 q 182 4153 174 4139 q 227 4220 201 4185 q 265 4292 253 4256 q 266 4308 265 4296 q 267 4333 267 4319 q 269 4359 268 4347 q 269 4375 269 4371 q 269 4397 269 4383 q 267 4423 268 4410 q 266 4447 267 4436 q 265 4458 265 4457 q 252 4492 263 4468 q 228 4544 242 4517 q 201 4594 214 4571 q 182 4625 189 4617 q 181 4631 182 4626 q 181 4639 181 4636 q 196 4672 181 4658 q 231 4697 211 4685 q 268 4721 250 4708 q 293 4750 286 4733 q 287 4764 294 4753 q 279 4778 279 4775 q 278 4788 279 4779 q 278 4800 278 4796 q 293 4831 278 4822 q 331 4845 308 4840 q 381 4856 354 4850 q 433 4874 408 4861 q 477 4913 458 4888 q 501 4986 496 4939 q 507 5038 503 5000 q 515 5117 511 5075 q 524 5197 519 5160 q 529 5250 528 5235 q 551 5274 536 5264 q 581 5290 565 5283 q 613 5299 597 5296 q 640 5306 629 5303 q 641 5331 640 5308 q 647 5378 642 5353 q 664 5424 653 5403 q 696 5444 675 5444 l 849 5444 q 882 5464 867 5444 q 911 5513 897 5483 q 940 5577 925 5543 q 970 5641 954 5611 q 1005 5690 986 5671 q 1047 5710 1024 5710 q 1094 5702 1072 5710 q 1140 5694 1117 5694 q 1218 5717 1186 5694 q 1278 5765 1250 5739 q 1335 5813 1307 5790 q 1404 5835 1364 5835 q 1422 5830 1414 5835 q 1438 5819 1431 5825 q 1453 5809 1446 5814 q 1472 5804 1461 5804 q 1519 5817 1497 5804 q 1563 5847 1542 5831 q 1607 5877 1585 5864 q 1654 5890 1629 5890 q 1712 5874 1685 5890 q 1765 5840 1739 5858 q 1821 5806 1792 5821 q 1885 5790 1850 5790 q 1918 5797 1903 5790 q 1948 5812 1933 5804 q 1977 5826 1963 5819 q 2008 5833 1992 5833 q 2048 5818 2033 5833 q 2076 5784 2063 5803 q 2108 5750 2090 5765 q 2156 5735 2125 5735 q 2232 5743 2196 5735 q 2308 5751 2268 5751 q 2369 5735 2342 5751 q 2424 5701 2397 5719 q 2480 5667 2451 5682 q 2542 5651 2508 5651 q 2576 5656 2560 5651 q 2608 5667 2592 5661 q 2641 5677 2625 5672 q 2675 5682 2657 5682 q 2721 5667 2711 5682 q 2733 5631 2731 5651 q 2738 5588 2735 5610 q 2765 5556 2742 5567 l 2835 5528 q 2851 5520 2840 5525 q 2863 5514 2861 5515 q 2895 5480 2875 5503 q 2940 5433 2915 5457 q 2991 5388 2964 5408 q 3043 5361 3018 5367 q 3121 5340 3093 5350 q 3164 5320 3149 5331 q 3188 5297 3179 5310 q 3206 5267 3196 5285 q 3236 5224 3217 5249 q 3293 5167 3256 5200 q 3326 5144 3310 5151 q 3361 5133 3343 5138 q 3397 5125 3379 5129 q 3432 5111 3414 5121 q 3464 5086 3456 5097 q 3475 5064 3472 5075 q 3482 5038 3478 5053 q 3501 5000 3486 5022 q 3539 4964 3510 4988 q 3608 4913 3568 4940 q 3695 4856 3649 4885 q 3785 4803 3742 4826 q 3865 4764 3829 4779 q 3921 4749 3901 4749 q 3959 4753 3942 4749 q 3993 4764 3976 4758 q 4026 4774 4010 4769 q 4063 4779 4043 4779 q 4099 4772 4082 4779 q 4133 4764 4115 4764 q 4172 4773 4151 4764 q 4212 4794 4192 4782 q 4252 4817 4232 4806 q 4293 4833 4272 4828 q 4478 4873 4389 4857 q 4669 4889 4568 4889 q 4797 4881 4729 4889 q 4933 4856 4865 4874 q 5061 4808 5000 4838 q 5168 4736 5122 4779 l 6043 3917 q 6224 3768 6128 3836 q 6425 3640 6321 3700 q 6636 3529 6529 3581 q 6849 3431 6743 3478 q 6859 3430 6851 3431 q 6869 3429 6867 3429 q 6906 3436 6888 3429 q 6944 3452 6925 3443 q 6981 3471 6963 3461 q 7015 3486 6999 3481 q 7410 3592 7213 3557 q 7815 3626 7607 3626 q 7953 3616 7871 3626 q 8133 3585 8036 3606 q 8335 3535 8231 3565 q 8541 3465 8440 3506 q 8733 3375 8642 3425 q 8894 3265 8825 3325 q 9003 3135 8963 3206 q 9043 2986 9043 3065 q 9003 2839 9043 2906 q 8897 2718 8964 2772 q 8743 2622 8831 2664 q 8558 2547 8656 2579 q 8359 2492 8460 2515 q 8165 2456 8258 2469 q 7994 2435 8072 2442 q 7864 2429 7915 2429 q 7723 2431 7793 2429 q 7585 2444 7653 2432 l 6488 2639 q 6467 2640 6485 2639 q 6442 2640 6450 2640 q 6342 2602 6386 2640 q 6262 2503 6297 2564 q 6201 2365 6226 2442 q 6158 2214 6175 2289 q 6133 2072 6142 2139 q 6125 1961 6125 2004 q 6139 1771 6125 1863 q 6177 1590 6153 1679 q 6235 1413 6201 1500 q 6307 1236 6268 1325 l 6307 1222 l 6279 1250 q 6263 1281 6278 1251 q 6228 1349 6249 1310 q 6188 1431 6208 1389 q 6154 1500 6167 1472 q 6074 1719 6106 1601 q 6043 1950 6043 1838 q 6049 2108 6043 2029 q 6071 2264 6056 2188 l 6113 2431 q 6112 2443 6114 2433 q 6110 2456 6110 2453 q 6036 2440 6078 2456 q 5950 2399 5994 2425 q 5863 2338 5906 2372 q 5785 2267 5819 2304 q 5729 2190 5750 2229 q 5708 2117 5708 2151 l 5708 2101 q 5709 2082 5708 2092 q 5710 2064 5710 2072 l 5710 2056 q 5712 2042 5710 2053 q 5717 2021 5714 2032 q 5722 1999 5719 2010 q 5724 1986 5724 1989 q 5725 1951 5724 1979 q 5728 1889 5726 1922 q 5733 1827 5731 1856 q 5738 1792 5736 1799 q 5751 1749 5739 1783 q 5778 1674 5764 1714 q 5806 1599 5793 1633 q 5821 1556 5818 1564 q 5833 1509 5825 1543 q 5850 1438 5842 1475 q 5866 1366 5858 1400 q 5876 1319 5874 1332 q 5881 1289 5878 1313 q 5889 1234 5885 1265 q 5897 1167 5893 1203 q 5906 1099 5901 1131 q 5913 1044 5910 1068 q 5918 1014 5917 1021 l 6029 625 q 6036 594 6033 607 q 6041 569 6039 581 q 6044 544 6043 557 q 6044 515 6044 532 q 6027 476 6044 500 q 5983 426 6010 453 q 5922 373 5956 400 q 5856 323 5889 346 q 5796 284 5824 300 q 5751 264 5768 268 q 5726 260 5746 263 q 5682 257 5706 258 q 5638 253 5658 256 q 5613 250 5618 251 q 5605 248 5611 250 q 5592 243 5599 246 q 5578 238 5585 240 q 5571 236 5572 236 q 5533 245 5549 236 q 5503 265 5517 254 q 5474 284 5489 275 q 5440 293 5460 293 q 5415 288 5426 293 q 5390 278 5403 283 q 5366 267 5378 272 q 5340 263 5354 263 q 5337 263 5339 263 q 5335 264 5335 264 q 5330 278 5332 268 q 5324 297 5328 288 q 5315 313 5321 306 q 5300 319 5310 319 q 5263 316 5275 319 q 5241 305 5250 313 q 5222 287 5232 297 q 5196 264 5213 276 q 5193 263 5196 264 q 5189 263 5190 263 q 5173 269 5178 263 q 5167 284 5168 275 q 5166 302 5165 293 q 5167 318 5167 311 q 5199 428 5167 389 q 5293 500 5231 468 q 5270 522 5283 513 q 5243 540 5257 531 q 5217 559 5229 549 q 5196 583 5204 569 q 5171 667 5176 615 q 5163 776 5165 718 q 5153 894 5160 835 q 5126 1000 5147 953 q 5059 1122 5099 1064 q 4976 1235 5019 1181 q 4888 1345 4932 1290 q 4807 1458 4844 1400 q 4786 1496 4803 1465 q 4750 1564 4769 1526 q 4711 1638 4731 1601 q 4682 1694 4692 1675 q 4665 1729 4678 1700 q 4639 1792 4653 1758 q 4613 1853 4625 1825 q 4599 1889 4601 1882 q 4567 1957 4582 1928 q 4515 2000 4553 1986 l 3946 2208 q 3927 2190 3939 2211 q 3904 2143 3915 2169 q 3885 2094 3893 2117 q 3876 2069 3876 2071 q 3851 1986 3861 2026 q 3828 1908 3840 1946 q 3799 1835 3817 1871 q 3751 1764 3782 1799 l 3751 1625 l 3585 958 q 3584 938 3585 956 q 3583 913 3583 921 q 3592 801 3583 857 q 3613 690 3601 746 q 3633 578 3624 635 q 3642 465 3642 522 l 3642 453 q 3641 434 3642 444 q 3640 415 3640 424 l 3640 403 q 3591 357 3615 374 q 3542 328 3567 340 q 3490 305 3517 315 q 3432 278 3463 294 q 3418 262 3429 275 q 3394 233 3407 249 q 3369 206 3381 218 q 3356 193 3357 193 q 3351 194 3354 193 q 3349 194 3349 194 q 3336 217 3340 203 q 3330 245 3332 231 q 3326 272 3328 260 q 3321 292 3325 285 q 3303 320 3317 300 q 3274 363 3289 340 q 3244 404 3258 385 q 3224 431 3229 424 m 7057 3347 q 7063 3340 7058 3344 q 7071 3333 7068 3335 q 7322 3222 7193 3267 q 7585 3139 7450 3176 q 7638 3124 7597 3135 q 7738 3099 7679 3114 q 7864 3069 7796 3085 q 7997 3037 7932 3053 q 8119 3008 8063 3021 q 8210 2986 8175 2994 q 8356 2970 8285 2969 q 8501 2971 8426 2971 l 8540 2971 q 8599 2972 8568 2971 q 8657 2972 8629 2972 l 8696 2972 q 8712 2977 8700 2974 q 8738 2985 8724 2981 q 8763 2993 8751 2989 q 8779 3000 8775 2997 q 8788 3006 8782 3001 q 8793 3014 8793 3011 q 8784 3034 8790 3022 q 8767 3056 8778 3046 q 8735 3087 8753 3069 q 8710 3111 8717 3104 q 8477 3268 8606 3204 q 8210 3372 8349 3332 q 7927 3428 8071 3411 q 7647 3446 7783 3446 q 7378 3428 7508 3446 q 7113 3375 7247 3411 q 7083 3367 7101 3372 q 7057 3347 7064 3363 z "},"7":{"ha":6197,"x_min":69,"x_max":6128,"o":"m 3226 367 q 3228 335 3228 351 q 3228 301 3228 318 q 3236 203 3228 253 q 3271 111 3244 154 q 3283 86 3275 104 q 3304 49 3292 68 q 3332 14 3317 29 q 3365 -1 3347 -1 q 3399 19 3382 -1 q 3428 68 3415 40 q 3450 124 3442 96 q 3460 167 3458 151 q 3460 193 3460 174 q 3461 233 3461 213 q 3460 274 3461 254 q 3460 300 3460 293 q 3475 305 3464 301 q 3499 311 3486 308 q 3522 317 3511 314 q 3538 322 3533 321 q 3542 323 3539 322 q 3549 324 3546 324 q 3603 313 3583 324 q 3640 287 3624 303 q 3672 251 3656 271 q 3715 211 3689 231 q 3734 199 3717 208 q 3773 180 3751 190 q 3816 159 3794 169 q 3849 144 3838 149 q 3856 142 3850 143 q 3870 139 3863 140 q 3885 136 3878 138 q 3893 133 3892 135 q 3917 113 3908 126 q 3935 87 3926 100 q 3956 64 3944 74 q 3988 54 3967 54 q 4030 74 4021 54 q 4039 124 4039 94 q 4020 215 4039 171 q 3982 300 4001 260 q 3994 303 3985 301 q 4015 306 4004 304 q 4036 310 4026 308 q 4049 311 4046 311 l 4056 311 l 4060 311 q 4073 299 4061 310 q 4101 276 4085 289 q 4132 253 4117 264 q 4154 243 4147 243 q 4176 250 4168 243 q 4189 267 4185 257 q 4194 290 4193 278 q 4196 310 4196 301 q 4190 342 4196 329 q 4176 367 4185 356 q 4160 392 4168 379 q 4149 422 4153 404 l 4149 431 l 4149 444 l 4149 458 l 4149 467 q 4141 472 4149 468 q 4126 478 4133 475 l 4093 489 q 4081 495 4089 492 q 4071 500 4072 499 q 4062 519 4065 507 q 4054 543 4058 531 q 4044 565 4050 556 q 4026 578 4038 575 q 3972 586 3999 585 q 3919 589 3946 588 q 3867 594 3893 590 q 3815 611 3842 599 l 3793 622 q 3768 628 3788 624 q 3726 639 3749 633 q 3685 649 3704 644 q 3660 656 3665 654 q 3627 672 3635 664 q 3617 688 3619 679 q 3612 704 3615 696 q 3593 722 3608 713 q 3565 737 3578 732 q 3542 747 3553 742 q 3523 758 3532 751 q 3504 778 3514 765 q 3433 903 3465 828 q 3375 1068 3401 979 q 3329 1253 3349 1157 q 3297 1440 3310 1349 q 3276 1613 3283 1532 q 3269 1754 3269 1694 l 3269 1786 q 3270 1826 3269 1807 q 3271 1861 3271 1846 l 3271 1878 q 3276 1934 3272 1900 q 3283 2000 3279 1968 q 3289 2055 3286 2032 q 3293 2078 3292 2078 l 3304 2078 q 3323 2010 3308 2043 q 3353 1944 3338 1976 q 3381 1878 3368 1911 q 3393 1811 3393 1844 l 3393 1467 q 3410 1435 3393 1449 q 3442 1421 3426 1421 q 3467 1430 3458 1421 q 3481 1451 3475 1439 q 3494 1478 3488 1464 q 3515 1500 3501 1492 q 3534 1476 3528 1493 q 3538 1444 3540 1458 q 3587 1369 3561 1408 q 3644 1296 3613 1329 q 3714 1242 3675 1263 q 3804 1222 3753 1221 q 3831 1149 3810 1169 q 3881 1117 3853 1128 q 3936 1097 3908 1107 q 3982 1056 3964 1086 q 3988 1044 3983 1053 q 3997 1028 3992 1036 q 4008 1011 4003 1019 q 4015 1000 4013 1003 q 4020 999 4017 1000 q 4026 999 4024 999 q 4060 1022 4049 999 l 4060 1033 q 4060 1050 4060 1040 q 4061 1067 4061 1060 l 4061 1078 q 4054 1139 4061 1114 q 4047 1200 4047 1164 q 4048 1222 4047 1207 q 4049 1244 4049 1238 q 4063 1249 4053 1246 q 4083 1257 4072 1253 q 4105 1264 4094 1261 q 4121 1267 4115 1267 l 4126 1267 q 4154 1215 4142 1238 q 4182 1176 4167 1192 q 4218 1151 4197 1160 q 4271 1143 4239 1143 q 4312 1150 4297 1143 q 4350 1157 4326 1157 q 4378 1147 4367 1157 q 4401 1126 4390 1138 q 4426 1106 4413 1114 q 4460 1100 4439 1097 q 4472 1110 4464 1101 q 4482 1122 4481 1118 q 4484 1144 4483 1129 q 4485 1167 4485 1160 q 4484 1192 4485 1176 q 4482 1211 4483 1208 q 4476 1221 4482 1213 q 4465 1239 4471 1229 q 4453 1256 4458 1249 q 4449 1267 4449 1264 q 4458 1303 4449 1285 q 4477 1342 4467 1322 q 4497 1382 4488 1361 q 4506 1424 4506 1403 q 4489 1478 4506 1454 q 4449 1522 4472 1503 q 4374 1573 4410 1554 q 4304 1602 4339 1592 q 4235 1615 4269 1613 q 4163 1618 4200 1618 q 4049 1622 4111 1618 q 4009 1628 4024 1624 q 3983 1638 3994 1632 q 3960 1648 3972 1643 q 3926 1656 3949 1653 q 3843 1744 3882 1696 q 3776 1847 3804 1793 q 3731 1960 3747 1901 q 3714 2081 3714 2019 q 3715 2144 3714 2115 q 3717 2202 3715 2174 q 3724 2262 3719 2231 q 3738 2333 3729 2293 q 3778 2391 3753 2364 q 3835 2442 3804 2418 q 3899 2485 3867 2465 q 3960 2522 3932 2506 l 3971 2522 q 3988 2523 3978 2522 q 4004 2524 3997 2524 l 4015 2524 q 4073 2522 4042 2524 q 4136 2515 4104 2519 q 4197 2501 4168 2510 q 4249 2478 4226 2492 q 4337 2417 4288 2453 q 4433 2340 4386 2382 q 4521 2254 4481 2299 q 4582 2167 4561 2210 q 4585 2154 4583 2164 q 4588 2133 4586 2144 q 4590 2111 4589 2121 q 4593 2100 4592 2101 q 4610 2078 4600 2081 q 4635 2076 4621 2076 q 4667 2080 4649 2076 q 4701 2092 4686 2083 q 4728 2113 4717 2100 q 4739 2144 4739 2125 q 4728 2172 4739 2154 q 4703 2210 4717 2190 q 4676 2245 4689 2229 q 4660 2267 4663 2261 l 4682 2267 l 4815 2200 q 4820 2199 4817 2200 q 4826 2199 4824 2199 q 4858 2208 4844 2199 q 4872 2238 4872 2218 q 4858 2274 4872 2250 q 4823 2324 4843 2299 q 4782 2372 4803 2350 q 4749 2400 4761 2393 q 4700 2421 4735 2408 q 4628 2449 4665 2433 q 4564 2481 4592 2464 q 4536 2518 4536 2499 q 4554 2535 4536 2525 q 4601 2555 4572 2544 q 4664 2576 4629 2565 q 4731 2595 4699 2586 q 4789 2611 4763 2604 q 4826 2622 4815 2618 q 4844 2629 4829 2624 q 4880 2642 4860 2635 q 4919 2656 4900 2649 q 4949 2667 4938 2663 q 4981 2686 4967 2674 q 5010 2712 4996 2699 q 5038 2738 5024 2725 q 5071 2756 5053 2750 q 5162 2781 5122 2769 q 5238 2808 5201 2793 q 5310 2845 5274 2824 q 5393 2900 5347 2867 q 5404 2902 5396 2901 q 5415 2903 5413 2903 q 5460 2889 5443 2903 q 5493 2844 5476 2875 q 5509 2862 5496 2849 q 5526 2878 5522 2875 q 5528 2878 5526 2878 q 5532 2879 5531 2879 q 5535 2878 5533 2879 q 5538 2878 5538 2878 l 5638 2822 q 5643 2824 5639 2824 q 5649 2822 5647 2824 q 5706 2794 5675 2810 q 5767 2765 5736 2779 q 5831 2742 5799 2751 q 5893 2733 5863 2733 q 5930 2736 5915 2733 q 5957 2742 5944 2739 q 5983 2749 5969 2746 q 6015 2756 5996 2753 l 6021 2756 q 6040 2750 6032 2756 q 6057 2738 6049 2744 q 6074 2726 6065 2732 q 6093 2721 6082 2721 q 6111 2728 6104 2721 q 6122 2744 6118 2735 q 6126 2764 6125 2753 q 6128 2783 6128 2775 q 6113 2841 6128 2821 q 6074 2872 6097 2861 q 6024 2887 6051 2882 q 5971 2900 5996 2892 q 5942 2914 5958 2903 q 5910 2937 5926 2925 q 5877 2958 5893 2949 q 5850 2968 5861 2968 q 5843 2967 5847 2968 q 5838 2967 5839 2967 q 5826 2960 5835 2965 q 5815 2956 5818 2956 q 5771 2977 5793 2958 q 5728 3019 5749 2996 q 5690 3066 5707 3043 q 5660 3100 5672 3089 q 5613 3110 5638 3096 q 5564 3149 5589 3124 q 5516 3207 5539 3175 q 5475 3272 5493 3239 q 5447 3333 5457 3304 q 5436 3378 5436 3361 q 5442 3398 5436 3390 q 5449 3417 5449 3406 l 5449 3422 q 5444 3428 5447 3424 q 5438 3433 5440 3432 q 5415 3454 5424 3443 q 5398 3477 5406 3465 q 5381 3501 5390 3489 q 5360 3522 5372 3513 q 5389 3661 5381 3593 q 5415 3800 5397 3729 l 5426 3800 q 5469 3794 5450 3800 q 5513 3788 5488 3788 q 5553 3796 5522 3788 q 5618 3818 5585 3804 q 5678 3851 5651 3832 q 5704 3889 5704 3869 l 5704 4067 q 5695 4097 5704 4081 q 5676 4130 5686 4113 q 5656 4167 5665 4147 q 5647 4210 5647 4188 q 5653 4285 5647 4246 q 5682 4356 5658 4325 l 5682 4678 q 5658 4753 5667 4710 q 5649 4828 5649 4796 q 5659 4847 5649 4838 q 5683 4867 5669 4856 q 5706 4893 5696 4878 q 5717 4932 5717 4908 q 5712 4962 5717 4949 q 5701 4988 5707 4975 q 5689 5015 5694 5001 q 5682 5044 5683 5029 q 5660 5178 5674 5111 q 5620 5305 5646 5244 q 5553 5416 5594 5365 q 5449 5500 5511 5467 q 5434 5508 5446 5501 q 5410 5522 5422 5515 q 5385 5536 5397 5529 q 5371 5544 5374 5543 q 5355 5545 5369 5544 q 5331 5546 5340 5546 q 5290 5538 5307 5546 q 5259 5522 5274 5531 q 5229 5506 5244 5514 q 5193 5499 5214 5499 q 5127 5511 5160 5499 q 5058 5524 5094 5524 q 5040 5523 5053 5524 q 5026 5522 5028 5522 q 5010 5517 5024 5522 q 4993 5511 4996 5511 q 4976 5517 4990 5511 q 4960 5522 4963 5522 l 4949 5522 q 4865 5490 4900 5522 q 4806 5413 4831 5458 q 4762 5317 4781 5367 q 4726 5233 4743 5268 q 4693 5178 4711 5204 q 4656 5125 4675 5151 q 4621 5070 4638 5099 q 4593 5011 4604 5042 q 4584 4977 4588 4996 q 4576 4940 4581 4958 q 4563 4904 4571 4921 q 4543 4878 4556 4888 l 4543 4511 q 4535 4500 4540 4508 q 4526 4489 4529 4492 l 4526 4483 l 4526 4478 q 4531 4467 4528 4475 q 4538 4456 4535 4458 l 4538 4278 q 4449 4306 4493 4288 q 4362 4344 4406 4324 q 4273 4386 4318 4365 q 4182 4422 4228 4407 q 4171 4427 4179 4424 q 4160 4433 4163 4431 l 3615 4467 q 3515 4533 3585 4506 q 3363 4578 3444 4560 q 3202 4604 3281 4596 q 3076 4613 3124 4613 q 2923 4605 3000 4613 q 2771 4578 2846 4597 l 2493 4578 q 2383 4607 2443 4594 q 2260 4628 2322 4619 q 2136 4642 2197 4638 q 2022 4646 2075 4646 q 1880 4635 1947 4646 q 1738 4622 1813 4625 q 1721 4613 1726 4617 q 1697 4607 1715 4610 q 1674 4602 1688 4604 q 1647 4597 1661 4600 q 1622 4592 1633 4594 q 1604 4589 1610 4590 l 1593 4589 q 1567 4580 1586 4586 q 1527 4567 1549 4574 q 1487 4553 1506 4560 q 1460 4544 1468 4547 q 1230 4451 1351 4506 q 992 4328 1108 4396 q 771 4180 875 4260 q 593 4011 667 4100 q 569 3981 585 4001 q 533 3935 553 3961 q 492 3879 514 3908 q 451 3824 471 3850 q 415 3776 431 3797 q 393 3744 400 3754 q 333 3625 369 3686 q 260 3511 296 3564 l 226 3478 q 224 3465 225 3475 q 220 3444 222 3456 q 217 3423 218 3433 q 215 3411 215 3413 q 163 3205 189 3307 q 117 2999 138 3103 q 83 2790 96 2896 q 69 2575 69 2685 l 69 2513 q 72 2395 69 2464 q 81 2251 74 2326 q 102 2100 89 2175 q 138 1965 115 2025 q 191 1869 160 1906 q 267 1832 222 1832 q 306 1856 294 1832 q 317 1903 317 1879 q 304 2025 317 1965 q 292 2147 292 2085 q 300 2394 292 2263 q 331 2660 308 2526 q 395 2922 354 2793 q 501 3160 436 3050 q 660 3356 567 3271 q 882 3489 754 3442 q 1081 3535 979 3525 q 1288 3546 1183 3546 l 1425 3546 q 1565 3538 1496 3546 q 1704 3520 1635 3531 q 1843 3498 1774 3510 q 1982 3478 1913 3486 q 2111 3466 2049 3468 q 2238 3444 2174 3464 q 2322 3390 2283 3429 q 2382 3311 2360 3351 q 2419 3208 2407 3261 q 2439 3100 2431 3154 q 2458 2992 2447 3046 q 2493 2889 2469 2939 q 2538 2801 2513 2846 q 2585 2711 2563 2757 q 2624 2617 2608 2665 q 2640 2519 2640 2569 q 2633 2438 2640 2478 q 2617 2358 2625 2397 q 2601 2277 2608 2318 q 2593 2193 2593 2236 q 2615 2022 2593 2096 q 2667 1880 2636 1947 q 2733 1747 2699 1813 q 2793 1600 2767 1681 q 2823 1481 2811 1543 q 2847 1358 2835 1419 q 2875 1236 2860 1296 q 2915 1122 2890 1176 l 3049 844 q 3084 751 3069 799 q 3111 656 3099 704 q 3138 561 3124 608 q 3171 467 3151 514 q 3199 417 3182 439 q 3226 367 3215 394 m 3971 322 q 3979 311 3979 322 q 3971 300 3979 300 q 3963 311 3963 300 q 3971 322 3963 322 z "},"8":{"ha":6007,"x_min":69,"x_max":5938,"o":"m 1910 93 q 1922 115 1910 103 q 1951 140 1935 128 q 1981 160 1967 151 q 1997 172 1994 169 q 2022 462 2017 319 q 2028 754 2028 604 l 2028 807 q 2027 888 2028 846 q 2026 968 2026 929 l 2026 1021 q 1985 1103 1999 1053 q 1961 1206 1972 1154 q 1933 1301 1950 1257 q 1882 1365 1917 1346 q 1833 1244 1849 1313 q 1811 1104 1817 1176 q 1807 962 1806 1032 q 1811 833 1808 892 q 1803 813 1807 829 q 1796 790 1799 796 q 1777 646 1788 721 q 1759 495 1767 571 q 1749 345 1751 419 q 1753 201 1746 271 q 1741 176 1750 186 q 1719 160 1732 167 q 1693 149 1707 153 q 1667 144 1679 146 q 1633 137 1654 142 q 1590 127 1611 132 q 1554 119 1569 122 q 1538 115 1539 115 q 1487 118 1517 113 q 1426 134 1457 124 q 1367 158 1394 144 q 1322 188 1339 172 q 1443 372 1396 274 q 1518 575 1490 469 q 1557 792 1546 681 q 1568 1014 1568 903 q 1558 1138 1568 1076 q 1538 1262 1549 1200 q 1517 1385 1526 1324 q 1507 1510 1507 1447 l 1507 1531 q 1508 1560 1507 1543 q 1508 1589 1508 1576 l 1508 1610 q 1517 1624 1513 1614 q 1524 1639 1522 1635 l 1524 1646 l 1524 1653 q 1512 1667 1521 1654 q 1493 1696 1503 1681 q 1475 1724 1483 1711 q 1465 1739 1467 1736 l 1465 1749 l 1465 1768 l 1465 1786 l 1465 1797 q 1456 1837 1463 1815 q 1442 1880 1450 1858 q 1425 1921 1433 1901 q 1408 1956 1417 1940 l 1408 2343 q 1423 2367 1422 2357 q 1424 2393 1424 2378 q 1405 2475 1424 2426 q 1356 2580 1386 2524 q 1286 2695 1325 2636 q 1209 2809 1247 2754 q 1136 2911 1171 2864 q 1078 2990 1101 2958 q 1063 3008 1069 3003 q 1052 3018 1057 3014 q 1043 3028 1047 3022 q 1035 3047 1039 3033 l 331 4025 q 274 4133 306 4083 q 215 4240 243 4182 q 190 4309 200 4274 q 169 4380 179 4344 q 146 4449 158 4415 q 114 4514 133 4483 q 105 4561 111 4526 q 92 4635 99 4596 q 78 4709 85 4674 q 71 4758 72 4744 l 71 4769 q 70 4797 71 4783 q 69 4826 69 4811 l 69 4851 q 91 5044 69 4949 q 157 5222 113 5139 q 269 5370 201 5304 q 431 5476 338 5436 q 485 5494 457 5488 q 540 5505 513 5500 q 594 5516 567 5510 q 646 5535 621 5522 q 672 5535 654 5535 q 714 5536 690 5536 q 756 5537 738 5536 q 782 5538 774 5538 q 873 5537 836 5538 q 941 5529 910 5536 q 1003 5507 972 5522 q 1078 5463 1035 5492 q 1115 5438 1083 5457 q 1184 5397 1147 5418 q 1253 5356 1221 5375 q 1293 5333 1285 5338 q 1307 5319 1306 5331 q 1314 5334 1310 5324 q 1322 5347 1318 5344 l 1328 5349 q 1333 5348 1331 5349 q 1336 5347 1336 5347 q 1361 5322 1351 5335 q 1394 5304 1371 5308 l 1413 5304 q 1444 5305 1426 5304 q 1475 5306 1463 5306 q 1494 5304 1493 5306 q 1522 5283 1513 5296 q 1538 5256 1531 5269 q 1553 5234 1544 5243 q 1583 5225 1563 5225 q 1574 5181 1583 5201 q 1553 5139 1565 5161 q 1533 5091 1542 5117 q 1524 5032 1524 5065 q 1526 5015 1524 5028 q 1531 4988 1528 5003 q 1535 4961 1533 4974 q 1538 4944 1538 4949 l 1538 4929 q 1522 4889 1538 4906 q 1482 4872 1506 4872 q 1419 4890 1451 4872 q 1355 4937 1388 4908 q 1290 5001 1322 4965 q 1228 5072 1258 5038 q 1171 5138 1199 5107 q 1121 5189 1143 5169 q 940 5282 1038 5258 q 735 5306 842 5306 q 622 5282 685 5306 q 503 5218 558 5258 q 411 5126 449 5178 q 374 5017 374 5074 l 374 4801 q 408 4724 394 4763 q 434 4647 422 4685 q 458 4572 446 4608 q 489 4500 471 4535 q 523 4440 501 4474 q 569 4370 544 4406 q 617 4301 593 4335 q 661 4240 642 4267 q 674 4226 664 4238 q 689 4213 685 4215 q 697 4206 690 4210 q 710 4197 703 4201 q 724 4189 717 4193 q 732 4183 731 4185 l 804 4068 q 814 4058 806 4067 q 832 4040 822 4050 q 851 4021 842 4029 q 863 4011 860 4013 l 1135 3694 q 1217 3595 1172 3650 q 1310 3482 1261 3540 q 1414 3367 1360 3424 q 1526 3265 1468 3311 q 1644 3188 1583 3219 q 1768 3149 1706 3157 l 2558 3033 q 2653 3007 2607 3025 q 2743 2967 2699 2989 q 2831 2920 2788 2944 q 2918 2875 2874 2896 q 3057 2810 2986 2842 q 3190 2732 3128 2778 q 3312 2631 3253 2683 q 3431 2525 3371 2578 q 3552 2422 3490 2472 q 3679 2329 3614 2372 q 3736 2297 3707 2311 q 3794 2266 3765 2282 q 3848 2231 3822 2250 q 3894 2185 3874 2211 q 3990 2027 3949 2110 q 4082 1869 4031 1944 q 4135 1809 4106 1833 q 4196 1765 4164 1785 q 4261 1726 4228 1744 q 4326 1682 4294 1707 q 4442 1586 4376 1643 q 4579 1476 4507 1529 q 4725 1386 4651 1424 q 4865 1349 4799 1349 q 4936 1360 4903 1349 q 5001 1388 4969 1372 q 5064 1417 5032 1403 q 5132 1438 5096 1432 q 5201 1449 5157 1442 q 5292 1463 5246 1456 q 5374 1476 5338 1471 q 5419 1481 5411 1481 l 5438 1481 q 5478 1481 5457 1481 q 5522 1482 5499 1482 l 5560 1482 q 5636 1481 5594 1482 q 5719 1476 5678 1481 q 5801 1459 5761 1471 q 5871 1426 5840 1447 q 5919 1370 5901 1404 q 5938 1286 5938 1336 q 5887 1181 5938 1232 q 5757 1087 5836 1131 q 5581 1007 5678 1043 q 5390 945 5483 971 q 5217 906 5296 919 q 5094 892 5138 892 q 4946 910 5019 892 q 4801 950 4872 928 q 4662 990 4731 972 q 4528 1008 4593 1008 q 4474 1000 4501 1008 q 4422 978 4447 992 q 4372 949 4396 965 q 4326 919 4347 933 l 4313 935 q 4339 956 4324 947 q 4367 976 4354 965 q 4390 999 4381 986 q 4400 1031 4400 1011 q 4376 1068 4400 1056 q 4320 1088 4351 1081 q 4257 1102 4289 1096 q 4211 1121 4225 1108 l 3894 1207 q 3885 1208 3893 1207 q 3872 1210 3878 1210 q 3849 1207 3861 1210 q 3838 1185 3838 1204 q 3844 1156 3838 1169 q 3859 1129 3850 1142 q 3878 1104 3868 1117 q 3894 1078 3888 1092 q 3981 869 3939 974 q 4068 661 4024 765 q 4097 610 4078 638 q 4134 555 4115 583 q 4167 499 4153 526 q 4182 446 4182 471 q 4172 388 4182 415 q 4154 331 4163 360 q 4135 274 4144 294 q 4110 244 4125 254 q 4072 231 4096 233 q 4011 228 4049 228 l 3967 228 q 3919 230 3944 228 q 3873 238 3894 232 q 3837 253 3851 243 q 3822 279 3822 264 q 3834 300 3822 283 q 3860 341 3846 317 q 3885 394 3874 365 q 3897 451 3897 422 q 3882 546 3897 501 q 3844 631 3867 590 q 3792 711 3821 672 q 3738 790 3764 750 q 3726 806 3733 796 q 3713 826 3719 817 q 3700 842 3706 835 q 3694 849 3694 849 l 3679 849 q 3654 718 3669 781 q 3625 593 3639 656 q 3601 466 3611 531 q 3592 331 3592 401 q 3597 282 3592 306 q 3608 235 3601 258 q 3619 190 3614 213 q 3624 144 3624 167 q 3597 78 3624 100 q 3532 49 3569 57 q 3453 41 3494 40 q 3382 42 3411 42 q 3357 44 3369 42 q 3349 72 3344 47 q 3206 86 3274 64 q 3205 92 3206 88 q 3204 100 3204 97 q 3222 163 3204 132 q 3264 225 3240 194 q 3312 285 3288 256 q 3349 344 3336 315 l 3349 381 q 3349 435 3349 408 q 3350 489 3350 461 l 3350 524 q 3347 707 3350 617 q 3340 887 3343 797 q 3334 1067 3336 976 q 3335 1250 3332 1157 q 3251 1279 3296 1278 q 3165 1281 3207 1281 q 2980 1272 3069 1281 q 2794 1264 2890 1264 l 2731 1264 q 2693 1265 2710 1264 q 2658 1267 2676 1265 q 2619 1272 2640 1269 q 2572 1279 2599 1275 q 2505 1297 2539 1286 q 2438 1319 2471 1308 q 2372 1337 2404 1329 q 2306 1344 2339 1344 q 2301 1319 2306 1336 q 2300 1294 2297 1303 q 2323 1181 2313 1232 q 2342 1083 2333 1131 q 2354 983 2350 1035 q 2358 867 2358 932 q 2349 729 2358 796 q 2329 597 2340 663 q 2309 466 2318 532 q 2300 332 2300 400 q 2307 226 2300 274 q 2314 119 2314 178 l 2314 99 q 2300 86 2314 94 l 2126 0 l 2119 0 q 2074 10 2108 0 q 2003 34 2040 19 q 1938 65 1967 49 q 1910 93 1910 81 m 4974 1279 q 5033 1228 4994 1247 q 5117 1197 5072 1208 q 5206 1183 5161 1186 q 5282 1179 5250 1179 q 5333 1187 5296 1179 q 5418 1208 5371 1194 q 5517 1238 5465 1221 q 5610 1272 5568 1254 q 5681 1309 5653 1290 q 5708 1343 5708 1328 q 5708 1347 5708 1344 q 5707 1351 5707 1350 q 5436 1382 5579 1382 q 5199 1357 5315 1382 q 4974 1279 5082 1332 m 1422 2343 q 1411 2329 1411 2343 q 1422 2314 1411 2314 q 1433 2329 1433 2314 q 1422 2343 1433 2343 z "},"9":{"ha":5906,"x_min":68,"x_max":5836,"o":"m 71 63 q 72 44 68 56 q 83 23 75 33 q 99 6 90 13 q 114 -1 107 -1 q 118 -1 115 -1 q 121 0 121 0 q 133 13 131 1 q 334 359 224 193 q 570 680 444 525 q 835 980 696 835 q 1121 1263 974 1125 q 1194 1328 1144 1285 q 1308 1427 1244 1372 q 1442 1542 1372 1482 q 1577 1656 1513 1601 q 1693 1751 1642 1710 q 1771 1813 1744 1793 q 2117 2011 1929 1933 q 2496 2138 2304 2089 q 2589 2158 2533 2146 q 2706 2185 2644 2171 q 2831 2213 2768 2199 q 2946 2238 2894 2226 q 3031 2256 2997 2249 q 3071 2263 3065 2263 l 3246 2263 q 3322 2225 3289 2239 q 3401 2211 3354 2211 l 3426 2211 q 3459 2218 3446 2211 q 3472 2249 3472 2225 q 3469 2270 3472 2261 q 3460 2288 3465 2279 q 3447 2304 3454 2296 q 3433 2325 3440 2313 q 3426 2301 3438 2303 q 3403 2299 3414 2299 q 3392 2299 3400 2299 q 3383 2300 3385 2300 q 3356 2306 3375 2301 q 3314 2317 3336 2311 q 3272 2329 3292 2324 q 3246 2338 3253 2335 q 3189 2422 3225 2376 q 3118 2513 3153 2467 q 3058 2606 3083 2560 q 3032 2694 3032 2653 q 3035 2714 3032 2713 q 3040 2715 3038 2715 q 3046 2724 3043 2715 q 3049 2769 3049 2733 q 3099 2770 3063 2769 q 3178 2772 3136 2771 q 3257 2774 3219 2774 q 3308 2775 3294 2775 q 3372 2769 3325 2772 q 3470 2762 3418 2765 q 3569 2755 3522 2758 q 3633 2750 3615 2751 q 3692 2729 3667 2747 q 3742 2690 3718 2711 q 3794 2653 3767 2669 q 3860 2636 3822 2636 q 3886 2640 3875 2636 q 3897 2661 3897 2643 q 3894 2687 3897 2676 q 3883 2713 3890 2697 q 3878 2692 3881 2697 q 3874 2686 3876 2686 q 3866 2690 3871 2686 q 3853 2693 3861 2693 q 3839 2744 3853 2732 q 3803 2763 3825 2757 q 3753 2779 3781 2769 q 3696 2825 3725 2789 l 3733 3575 q 3735 3591 3733 3578 q 3738 3620 3736 3604 q 3742 3651 3740 3636 q 3746 3675 3744 3667 q 3834 4019 3774 3851 q 3974 4347 3894 4188 q 4146 4660 4053 4507 q 4333 4963 4239 4814 q 4341 4974 4336 4967 q 4352 4988 4346 4981 q 4363 5003 4358 4996 q 4371 5013 4368 5010 l 4671 5313 l 5683 6138 q 5722 6156 5696 6149 q 5772 6172 5747 6164 q 5817 6193 5797 6181 q 5836 6229 5836 6206 q 5683 6213 5763 6229 q 5526 6169 5604 6196 q 5374 6111 5449 6143 q 5233 6050 5299 6079 q 5165 6019 5211 6040 q 5062 5970 5119 5997 q 4940 5913 5004 5943 q 4818 5855 4876 5882 q 4714 5806 4760 5828 q 4646 5775 4668 5785 q 4587 5753 4618 5768 q 4533 5725 4556 5738 q 4449 5675 4506 5708 q 4322 5599 4393 5642 q 4172 5511 4250 5557 q 4022 5423 4093 5465 q 3893 5348 3950 5381 q 3808 5300 3836 5315 q 3790 5290 3804 5297 q 3758 5274 3775 5282 q 3727 5258 3742 5265 q 3708 5250 3713 5251 q 3475 5081 3586 5168 q 3259 4899 3364 4993 q 3052 4706 3154 4806 q 2846 4500 2950 4606 q 2797 4483 2821 4489 q 2751 4469 2774 4476 q 2709 4449 2729 4461 q 2671 4413 2689 4436 q 2664 4267 2679 4339 q 2619 4124 2649 4194 q 2553 3988 2590 4054 q 2483 3863 2517 3922 q 2453 3811 2475 3846 q 2408 3739 2432 3776 q 2362 3669 2383 3701 q 2333 3625 2340 3636 q 2306 3591 2325 3615 q 2261 3535 2286 3567 q 2208 3469 2236 3504 q 2154 3401 2181 3433 q 2106 3341 2128 3368 q 2071 3300 2083 3314 q 2047 3275 2064 3293 q 2009 3237 2029 3257 q 1971 3199 1989 3217 q 1946 3175 1953 3181 q 1933 3174 1943 3175 q 1921 3174 1924 3174 q 1835 3196 1876 3174 q 1758 3238 1793 3218 q 1658 3331 1689 3276 q 1616 3450 1628 3386 q 1601 3584 1604 3514 q 1583 3725 1597 3654 q 1546 3846 1571 3788 q 1496 3963 1521 3904 q 1486 3983 1490 3972 q 1477 4002 1482 3993 q 1464 4017 1472 4011 q 1442 4022 1456 4022 q 1457 3839 1442 3931 q 1472 3656 1472 3747 l 1472 3638 q 1472 3615 1472 3626 q 1471 3596 1471 3604 l 1471 3588 q 1465 3528 1469 3571 q 1453 3437 1460 3485 q 1442 3347 1447 3389 q 1433 3288 1436 3304 q 1421 3246 1421 3267 l 1421 3206 q 1427 2998 1421 3100 q 1433 2788 1433 2896 l 1433 2713 q 1393 2676 1418 2690 q 1346 2650 1368 2661 q 1294 2623 1329 2642 q 1220 2584 1258 2604 q 1150 2547 1182 2564 q 1108 2525 1118 2531 q 1088 2517 1101 2522 q 1071 2513 1074 2513 q 1055 2517 1069 2513 q 1033 2525 1040 2522 q 1022 2531 1031 2526 q 1002 2539 1013 2535 q 982 2547 992 2543 q 971 2550 972 2550 q 941 2544 958 2551 q 908 2525 924 2538 q 881 2497 892 2513 q 869 2468 869 2482 q 878 2443 869 2454 q 895 2423 886 2432 q 913 2407 904 2414 q 921 2394 921 2400 l 921 2388 q 915 2368 919 2382 q 908 2350 911 2354 l 633 1725 q 619 1681 628 1708 q 608 1638 611 1653 l 121 175 l 71 63 m 896 2463 q 906 2450 906 2463 q 896 2438 906 2438 q 886 2450 886 2438 q 896 2463 886 2463 m 1839 3039 q 1855 3038 1843 3039 q 1871 3038 1867 3038 q 1827 2985 1857 3021 q 1763 2913 1797 2949 q 1694 2851 1728 2878 q 1639 2824 1660 2824 q 1637 2824 1639 2824 q 1633 2825 1635 2825 q 1649 2898 1631 2860 q 1697 2967 1667 2936 q 1765 3019 1728 2999 q 1839 3039 1803 3039 z "}," ":{"ha":2101,"x_min":0,"x_max":0,"o":""},"!":{"ha":5024,"x_min":69,"x_max":4954,"o":"m 1982 185 q 1977 235 1982 211 q 1967 283 1972 260 q 1958 331 1963 307 q 1953 382 1953 354 q 1964 498 1953 442 q 1975 617 1975 554 q 1968 722 1975 669 q 1953 827 1961 775 q 1938 931 1944 879 q 1931 1035 1931 983 l 1931 1068 q 2231 990 2078 1022 q 2535 929 2383 957 q 2509 849 2515 896 q 2497 754 2503 801 q 2480 666 2490 707 q 2442 604 2469 625 q 2430 599 2440 603 q 2408 592 2419 596 q 2385 585 2396 588 q 2374 582 2375 582 q 2319 555 2343 571 q 2274 518 2296 539 q 2232 472 2253 497 q 2186 418 2211 447 q 2185 409 2186 417 q 2185 396 2185 401 q 2205 353 2185 368 q 2252 328 2225 338 q 2306 315 2279 319 q 2347 304 2333 310 q 2362 290 2351 301 q 2385 265 2372 278 q 2407 242 2397 253 q 2418 232 2417 232 q 2442 231 2419 231 q 2476 231 2458 231 q 2514 232 2493 232 l 2535 232 q 2583 207 2568 229 q 2607 160 2597 185 q 2630 114 2617 135 q 2674 93 2643 93 l 2953 93 q 3033 178 2994 143 q 3101 250 3072 213 q 3148 337 3131 288 q 3165 468 3165 386 q 3153 526 3165 500 q 3128 577 3142 553 q 3102 626 3114 601 q 3090 678 3090 650 q 3118 726 3090 694 q 3183 787 3146 757 q 3254 839 3219 817 q 3303 861 3289 861 q 3334 858 3310 861 q 3385 849 3358 854 q 3435 841 3413 844 q 3464 838 3458 838 l 3489 838 q 3540 835 3513 838 q 3599 833 3567 833 l 3642 833 q 3991 885 3824 833 q 4304 1028 4158 936 q 4570 1247 4450 1119 q 4776 1525 4690 1374 q 4908 1847 4861 1676 q 4954 2196 4954 2017 q 4911 2473 4954 2347 q 4797 2703 4868 2599 q 4637 2897 4726 2808 q 4453 3063 4547 2985 q 4269 3213 4358 3142 q 4108 3356 4179 3285 q 3994 3501 4038 3426 q 3951 3658 3951 3575 q 3963 3730 3951 3696 q 3990 3797 3975 3764 q 4016 3863 4004 3831 q 4028 3932 4028 3896 q 3908 3890 3954 3932 q 3834 3789 3861 3849 q 3797 3663 3807 3729 q 3786 3544 3786 3596 q 3817 3374 3786 3450 q 3900 3233 3849 3299 q 4017 3110 3951 3168 q 4150 2995 4082 3053 q 4283 2876 4218 2938 q 4400 2744 4349 2815 q 4483 2587 4451 2672 q 4514 2394 4514 2501 q 4471 2158 4514 2272 q 4351 1957 4428 2044 q 4165 1817 4274 1869 q 3928 1764 4057 1764 q 3770 1796 3843 1764 q 3626 1883 3697 1828 q 3441 2032 3531 1958 q 3263 2176 3351 2106 q 3081 2313 3174 2247 q 2885 2440 2989 2379 q 2833 2465 2874 2444 q 2740 2513 2792 2486 q 2638 2564 2689 2539 q 2558 2601 2588 2589 q 2404 2660 2485 2636 q 2246 2709 2324 2685 q 2098 2764 2168 2733 q 1975 2842 2028 2794 q 1891 2958 1922 2889 q 1860 3132 1860 3028 q 1899 3424 1860 3283 q 1999 3697 1939 3564 q 2127 3961 2058 3831 q 2256 4224 2196 4092 q 2355 4496 2315 4357 q 2394 4785 2394 4635 q 2347 5081 2394 4939 q 2215 5344 2299 5222 q 2018 5565 2132 5465 q 1771 5734 1904 5664 q 1492 5842 1638 5804 q 1199 5881 1346 5881 l 1186 5881 q 1154 5874 1174 5878 q 1116 5865 1135 5869 q 1084 5858 1097 5861 q 1071 5856 1071 5856 q 1044 5827 1064 5849 q 999 5776 1025 5806 q 944 5715 972 5747 q 892 5653 915 5682 q 853 5603 868 5624 q 838 5576 838 5582 q 863 5515 838 5542 q 924 5471 888 5489 q 999 5444 960 5453 q 1067 5435 1038 5435 q 1149 5442 1108 5435 q 1231 5460 1190 5450 q 1314 5477 1272 5469 q 1397 5485 1356 5485 q 1504 5460 1451 5485 q 1603 5392 1557 5435 q 1689 5295 1650 5350 q 1756 5181 1728 5240 q 1801 5063 1785 5122 q 1817 4953 1817 5004 q 1804 4817 1817 4886 q 1770 4683 1792 4749 q 1718 4555 1749 4617 q 1651 4440 1688 4493 l 953 3371 q 853 3178 897 3281 q 780 2967 810 3075 q 735 2748 750 2858 q 719 2533 719 2638 q 733 2386 719 2456 q 746 2244 746 2317 q 738 2199 746 2221 q 722 2156 731 2178 q 705 2113 713 2135 q 697 2069 697 2092 q 719 1975 697 2017 q 769 1897 742 1933 q 819 1830 796 1861 q 842 1768 842 1799 q 811 1660 842 1707 q 733 1577 781 1614 q 626 1510 685 1540 q 510 1448 567 1479 q 403 1381 453 1417 q 326 1301 354 1346 q 298 1231 310 1276 q 273 1138 286 1186 q 241 1045 260 1090 q 190 975 222 1000 q 143 944 165 953 q 105 926 121 935 q 79 901 89 917 q 69 849 69 885 q 77 810 69 821 q 98 796 85 800 q 128 788 111 792 q 164 768 146 783 q 197 732 186 749 q 218 700 208 715 q 241 672 228 685 q 282 650 254 660 q 303 647 286 650 q 339 641 319 644 q 375 634 358 638 q 396 629 392 631 q 411 616 400 628 q 433 591 422 604 q 454 567 444 578 q 467 557 464 557 q 490 554 468 556 q 525 553 511 553 q 600 597 564 553 q 676 706 636 640 q 764 847 715 771 q 878 988 813 922 q 1028 1097 943 1053 q 1226 1140 1113 1140 q 1279 1110 1256 1140 q 1322 1037 1303 1079 q 1353 951 1340 994 q 1374 883 1367 908 l 1374 849 q 1375 794 1374 821 q 1376 742 1376 768 l 1376 710 q 1378 628 1376 678 q 1377 527 1381 579 q 1363 427 1374 475 q 1325 350 1351 379 q 1287 308 1317 335 q 1224 251 1257 282 q 1165 185 1190 219 q 1139 118 1139 150 q 1142 89 1139 100 q 1164 71 1144 78 q 1254 55 1207 67 q 1350 31 1301 43 q 1446 10 1399 19 q 1536 0 1493 0 q 1600 6 1558 0 q 1691 22 1642 11 q 1792 47 1740 32 q 1886 83 1844 63 q 1955 129 1928 104 q 1982 185 1982 154 m 4046 3974 q 4028 3950 4028 3974 q 4046 3929 4028 3929 q 4063 3950 4063 3929 q 4046 3974 4063 3974 z "},"\"":{"ha":4803,"x_min":69,"x_max":4733,"o":"m 3582 125 l 3556 99 q 3550 88 3550 97 l 3550 72 q 3529 36 3544 50 q 3494 14 3514 22 q 3451 3 3474 6 q 3406 0 3428 0 l 3354 0 l 3343 0 q 3289 3 3322 1 q 3222 7 3256 6 q 3164 9 3189 8 q 3136 10 3139 10 q 3089 17 3115 11 q 3038 33 3063 22 q 2997 60 3014 43 q 2981 103 2981 78 q 2997 163 2981 142 q 3033 200 3013 185 q 3075 230 3054 215 q 3106 268 3096 244 l 3106 303 q 3107 323 3106 314 q 3108 336 3108 332 q 3103 394 3108 369 q 3088 440 3097 418 q 3067 484 3079 461 q 3043 539 3056 507 q 2979 710 3006 626 q 2918 881 2953 793 q 2868 979 2897 933 q 2815 1088 2839 1025 q 2800 1149 2804 1117 q 2793 1213 2796 1181 q 2784 1277 2790 1246 q 2763 1336 2778 1308 q 2744 1356 2753 1354 q 2717 1358 2735 1358 q 2703 1358 2713 1358 q 2690 1357 2693 1357 q 2667 850 2678 1100 q 2649 343 2656 600 q 2626 288 2649 307 q 2572 259 2603 268 q 2506 249 2540 250 q 2449 247 2471 247 q 2406 248 2436 247 q 2339 252 2376 249 q 2260 262 2301 256 q 2186 278 2219 268 q 2131 305 2153 289 q 2110 343 2110 321 q 2128 387 2110 368 q 2169 422 2146 406 q 2218 452 2193 438 q 2256 486 2243 467 q 2305 588 2292 536 q 2318 701 2318 639 l 2318 718 l 2318 756 l 2318 767 l 2265 1565 q 2252 1592 2264 1578 q 2225 1621 2240 1607 q 2195 1647 2210 1635 q 2174 1668 2181 1660 l 2111 1731 l 2069 1782 q 2044 1819 2061 1792 q 2011 1874 2028 1846 q 1981 1925 1994 1903 q 1965 1947 1968 1947 q 1938 1931 1949 1947 q 1921 1892 1928 1914 q 1910 1847 1914 1869 q 1903 1813 1906 1825 q 1900 1749 1901 1792 q 1897 1653 1899 1707 q 1893 1539 1894 1599 q 1890 1425 1892 1479 q 1888 1328 1889 1371 q 1888 1264 1888 1285 l 1888 1232 l 1851 736 q 1828 597 1836 664 q 1819 456 1819 531 l 1819 438 q 1820 408 1819 422 q 1821 381 1821 393 l 1821 363 q 1844 315 1836 339 q 1853 264 1853 292 q 1844 226 1853 243 q 1820 195 1835 208 q 1787 174 1806 182 q 1749 167 1768 167 l 1542 167 q 1501 178 1518 167 q 1475 208 1485 190 q 1461 245 1465 225 q 1457 282 1457 265 q 1465 337 1457 308 q 1482 394 1472 365 q 1500 455 1492 424 q 1510 518 1508 486 q 1508 983 1506 749 q 1525 1450 1510 1218 l 1525 1481 q 1526 1526 1525 1494 q 1528 1594 1526 1557 q 1530 1672 1529 1632 q 1531 1746 1531 1713 l 1531 1813 q 1528 1863 1531 1822 q 1522 1948 1525 1903 q 1515 2033 1518 1993 q 1510 2082 1511 2072 l 1510 2114 q 1535 2421 1510 2269 q 1593 2724 1561 2572 q 1614 2801 1600 2761 q 1642 2883 1628 2842 q 1666 2963 1656 2924 q 1676 3040 1676 3003 q 1676 3053 1676 3043 q 1675 3067 1675 3064 q 1595 3260 1639 3165 q 1505 3447 1551 3354 q 1412 3633 1458 3540 q 1324 3822 1365 3726 q 1310 3851 1321 3829 q 1286 3903 1300 3874 q 1256 3967 1272 3933 q 1226 4031 1240 4001 q 1202 4083 1213 4061 q 1189 4113 1192 4106 q 1114 4319 1144 4214 q 1057 4533 1083 4425 q 1006 4749 1031 4642 q 950 4963 982 4857 q 944 4983 949 4968 q 940 5004 940 4999 q 894 5228 918 5121 q 836 5449 871 5336 q 827 5481 835 5457 q 809 5539 819 5506 q 786 5610 799 5572 q 763 5680 774 5647 q 744 5737 753 5713 q 733 5769 736 5761 q 703 5847 724 5799 q 656 5951 683 5896 q 597 6063 629 6007 q 531 6165 564 6119 q 464 6240 497 6211 q 401 6268 431 6268 q 348 6258 372 6268 q 301 6236 324 6249 q 256 6214 279 6224 q 208 6204 233 6204 q 157 6215 182 6204 q 113 6244 132 6226 q 81 6286 93 6263 q 69 6336 69 6310 l 69 6361 q 160 6526 97 6474 q 338 6579 224 6579 q 514 6553 438 6579 q 653 6479 590 6526 q 769 6367 715 6432 q 878 6226 824 6303 q 942 6145 906 6185 q 1001 6060 979 6106 q 1094 5866 1050 5964 q 1178 5667 1138 5768 q 1187 5642 1181 5660 q 1200 5603 1193 5624 q 1213 5566 1207 5583 q 1219 5543 1218 5549 q 1236 5510 1225 5539 q 1263 5436 1247 5481 q 1294 5340 1278 5392 q 1324 5240 1310 5289 q 1350 5153 1339 5192 q 1365 5097 1361 5114 q 1390 5015 1375 5056 q 1423 4935 1406 4975 q 1458 4856 1440 4896 q 1489 4775 1475 4815 q 1605 4476 1539 4624 q 1760 4194 1671 4329 q 1821 4110 1788 4151 q 1872 4018 1854 4068 q 2035 3853 1951 3935 q 2224 3718 2119 3771 q 2278 3693 2239 3711 q 2359 3656 2317 3675 q 2440 3618 2401 3636 q 2494 3593 2479 3600 q 2615 3560 2550 3588 q 2751 3490 2681 3532 q 2892 3396 2821 3447 q 3028 3292 2963 3344 q 3151 3192 3094 3240 q 3250 3107 3208 3143 q 3317 3057 3282 3079 q 3385 3004 3353 3035 q 3643 2733 3528 2867 q 3856 2459 3758 2600 q 4035 2163 3953 2318 q 4193 1824 4117 2007 q 4259 1669 4225 1744 q 4317 1513 4293 1593 q 4346 1395 4333 1454 q 4389 1283 4358 1336 l 4451 1036 q 4485 972 4474 1008 q 4504 897 4497 936 q 4517 819 4511 858 q 4535 746 4524 779 q 4576 633 4554 690 q 4617 519 4597 576 q 4654 405 4638 463 q 4681 290 4671 347 q 4692 258 4683 274 q 4710 228 4700 243 q 4726 198 4719 213 q 4733 167 4733 183 q 4724 124 4733 147 q 4699 79 4715 100 q 4663 44 4683 58 q 4618 31 4642 31 q 4540 58 4568 31 q 4493 124 4511 85 q 4463 206 4475 163 q 4432 279 4450 249 q 4378 367 4404 324 q 4328 456 4353 411 q 4298 530 4308 490 q 4265 601 4288 569 q 4164 759 4213 681 q 4069 921 4115 838 q 4053 968 4056 943 q 4038 1015 4051 993 q 3911 1178 3979 1103 q 3768 1325 3843 1254 q 3747 1275 3761 1314 q 3719 1191 3733 1236 q 3695 1105 3706 1146 q 3685 1049 3685 1064 q 3697 971 3685 1008 q 3724 896 3708 933 q 3756 822 3740 858 q 3778 746 3771 785 q 3794 637 3790 692 q 3797 524 3797 582 q 3797 412 3797 468 q 3799 300 3796 356 l 3799 253 l 3799 207 q 3754 164 3779 179 q 3701 140 3729 149 q 3643 129 3674 132 q 3582 125 3613 126 z "},"#":{"ha":6893,"x_min":69,"x_max":6824,"o":"m 2908 426 q 2908 440 2908 432 q 2909 457 2908 449 q 2910 471 2910 465 q 2910 478 2910 478 q 2974 694 2932 610 q 3080 839 3017 778 q 3228 950 3143 900 q 3424 1065 3314 1000 q 3455 1083 3431 1068 q 3512 1118 3479 1097 q 3581 1163 3544 1139 q 3651 1208 3618 1186 q 3706 1247 3683 1231 q 3735 1268 3729 1263 q 3754 1278 3740 1272 q 3772 1286 3768 1285 q 3806 1184 3779 1232 q 3872 1097 3833 1136 q 3958 1026 3911 1057 q 4049 975 4004 996 q 4085 956 4060 968 q 4143 928 4110 943 q 4213 897 4176 914 q 4283 867 4250 881 q 4342 842 4315 853 q 4379 828 4368 832 l 4453 681 q 4461 666 4456 675 q 4472 648 4467 657 q 4483 632 4478 639 q 4489 625 4488 625 q 4523 601 4497 617 q 4578 567 4549 585 q 4635 535 4608 550 q 4672 514 4663 519 q 4681 513 4675 514 q 4690 513 4688 513 q 4728 521 4714 513 q 4764 533 4743 529 l 4947 571 q 4949 578 4947 572 q 4951 588 4951 585 q 4926 643 4951 622 q 4868 676 4901 664 q 4800 697 4835 689 q 4746 717 4765 706 q 4697 758 4717 735 q 4660 806 4678 782 q 4624 856 4643 831 q 4581 901 4606 881 q 4526 931 4556 919 q 4464 952 4496 943 q 4401 969 4432 961 q 4342 992 4369 978 q 4273 1033 4307 1008 q 4206 1085 4239 1057 q 4143 1141 4174 1113 q 4085 1194 4113 1169 q 4084 1202 4085 1196 q 4083 1213 4083 1208 q 4097 1247 4083 1232 q 4130 1272 4111 1261 q 4167 1291 4149 1283 q 4196 1306 4186 1299 q 4306 1370 4251 1335 q 4415 1441 4360 1406 q 4524 1508 4469 1476 q 4636 1563 4579 1540 q 4637 1556 4636 1558 q 4638 1553 4638 1554 q 4634 1540 4638 1544 q 4626 1530 4631 1535 q 4619 1519 4622 1525 q 4615 1506 4615 1514 q 4628 1474 4615 1481 q 4665 1468 4642 1468 l 4693 1468 q 4753 1472 4719 1468 q 4819 1485 4788 1475 q 4877 1513 4851 1494 q 4911 1563 4903 1532 l 4985 1782 q 5014 1813 4993 1804 q 5053 1833 5035 1822 q 5082 1863 5072 1843 q 5076 1929 5092 1883 q 5121 1942 5089 1932 q 5188 1963 5153 1951 q 5253 1985 5222 1974 q 5297 2003 5285 1996 q 5378 2055 5351 2022 q 5422 2127 5406 2088 q 5453 2210 5439 2167 q 5499 2297 5468 2254 q 5600 2422 5549 2364 q 5701 2539 5651 2481 q 5798 2658 5751 2597 q 5885 2792 5844 2719 q 5942 2897 5917 2846 q 5990 2999 5968 2949 q 6031 3103 6011 3050 q 6069 3215 6050 3157 q 6124 3381 6100 3308 q 6172 3508 6147 3453 q 6230 3603 6197 3563 q 6311 3674 6263 3644 q 6430 3726 6360 3704 q 6600 3767 6500 3749 q 6631 3769 6614 3768 q 6667 3769 6647 3769 q 6721 3772 6693 3769 q 6772 3785 6749 3775 q 6809 3811 6794 3794 q 6824 3857 6824 3828 q 6783 3926 6824 3894 q 6685 3983 6742 3958 q 6569 4028 6629 4008 q 6472 4060 6510 4047 l 6453 4060 q 6422 4060 6438 4060 q 6392 4061 6407 4061 l 6372 4061 q 6248 4046 6299 4061 q 6163 4003 6197 4031 q 6105 3938 6128 3976 q 6065 3853 6082 3900 q 6033 3751 6049 3806 q 5996 3638 6017 3696 q 5938 3481 5974 3569 q 5855 3298 5903 3392 q 5749 3113 5807 3204 q 5622 2950 5690 3022 q 5474 2834 5553 2878 q 5310 2790 5396 2790 q 5053 2801 5179 2790 q 4794 2813 4928 2813 l 4736 2813 q 4669 2812 4701 2813 q 4608 2811 4636 2811 l 4581 2811 q 4519 2800 4565 2810 q 4410 2776 4472 2790 q 4278 2747 4349 2763 q 4146 2717 4208 2731 q 4037 2693 4083 2703 q 3975 2682 3990 2683 q 3941 2676 3968 2679 q 3883 2672 3914 2674 q 3824 2667 3851 2669 q 3792 2664 3797 2665 q 3654 2634 3719 2653 q 3526 2591 3589 2615 q 3401 2538 3463 2567 q 3276 2481 3340 2510 q 3060 2389 3176 2428 q 2824 2320 2944 2350 q 2583 2267 2703 2290 q 2358 2224 2464 2244 q 2271 2205 2324 2215 q 2159 2185 2218 2194 q 2040 2165 2100 2175 q 1931 2147 1981 2154 q 1847 2135 1881 2140 q 1807 2131 1814 2131 l 981 2131 q 822 2143 906 2131 q 655 2176 739 2156 q 490 2224 571 2197 q 338 2278 408 2250 q 288 2299 321 2283 q 217 2331 256 2314 q 138 2360 178 2347 q 69 2374 99 2374 q 87 2322 69 2346 q 129 2280 104 2299 q 181 2247 154 2261 q 228 2224 208 2233 q 613 2059 419 2121 q 1005 1964 806 1997 q 1409 1920 1204 1931 q 1829 1910 1614 1910 q 2406 1919 2122 1910 q 2983 1929 2690 1929 l 3240 1929 q 3297 1904 3258 1929 q 3381 1847 3336 1879 q 3467 1785 3425 1815 q 3533 1746 3508 1756 q 3558 1735 3540 1743 q 3597 1717 3576 1726 q 3636 1699 3618 1707 q 3661 1690 3654 1692 q 3681 1651 3681 1671 q 3682 1607 3682 1631 q 3662 1556 3682 1579 q 3610 1513 3642 1533 q 3540 1476 3579 1493 q 3465 1445 3501 1460 q 3397 1419 3428 1431 q 3350 1396 3367 1407 q 3238 1295 3285 1351 q 3144 1183 3192 1239 q 3038 1076 3096 1126 q 2890 992 2979 1025 q 2858 930 2869 958 q 2836 864 2846 901 q 2822 807 2832 846 q 2800 719 2813 768 q 2773 617 2788 671 q 2746 514 2758 563 q 2723 426 2733 465 q 2707 368 2713 386 l 2707 321 q 2705 253 2707 292 q 2706 177 2703 215 q 2722 106 2710 139 q 2763 56 2733 74 q 2783 44 2774 47 q 2799 36 2792 40 q 2810 24 2806 32 q 2817 0 2815 17 l 3251 0 q 3226 77 3251 51 q 3163 119 3200 103 q 3080 151 3125 136 q 2997 197 3035 167 q 2934 281 2960 228 q 2908 426 2908 335 m 3792 1322 q 3806 1306 3806 1322 q 3792 1286 3806 1286 q 3776 1306 3776 1286 q 3792 1322 3776 1322 m 3808 1342 q 3825 1322 3825 1342 q 3808 1306 3825 1306 q 3794 1322 3794 1306 q 3808 1342 3794 1342 m 3901 1378 q 3874 1352 3892 1363 q 3838 1342 3856 1342 l 3828 1342 q 3856 1367 3838 1357 q 3892 1378 3874 1378 l 3901 1378 m 3919 1415 q 3935 1396 3935 1415 q 3919 1378 3935 1378 q 3904 1396 3904 1378 q 3919 1415 3904 1415 m 3938 1433 q 3953 1415 3953 1433 q 3938 1396 3953 1396 q 3924 1415 3924 1396 q 3938 1433 3924 1433 m 3956 1451 q 3972 1433 3972 1451 q 3956 1415 3972 1415 q 3942 1433 3942 1415 q 3956 1451 3942 1451 m 4857 1710 q 4841 1666 4851 1692 q 4816 1616 4831 1640 q 4781 1575 4801 1592 q 4736 1558 4761 1558 q 4699 1565 4714 1558 q 4672 1599 4683 1571 q 4714 1649 4692 1619 q 4746 1710 4736 1679 l 4857 1710 z "},"$":{"ha":7857,"x_min":69,"x_max":7788,"o":"m 4589 308 q 4598 309 4590 308 q 4610 310 4606 310 q 4651 298 4635 310 q 4681 273 4667 286 q 4711 248 4696 260 q 4749 236 4726 236 q 4731 314 4749 278 q 4691 383 4713 350 q 4651 449 4669 417 q 4633 518 4633 482 l 4633 529 q 4665 510 4649 518 q 4701 501 4682 501 q 4695 539 4701 521 q 4681 574 4689 557 q 4665 607 4672 590 q 4654 640 4657 624 l 4654 671 l 4654 725 l 4654 783 l 4654 817 q 4645 838 4654 822 q 4633 861 4636 854 l 4633 1096 q 4681 1080 4646 1096 q 4760 1039 4715 1064 q 4853 982 4804 1014 q 4942 919 4901 950 q 5008 862 4982 889 q 5035 818 5035 835 q 5020 765 5035 789 q 4988 724 5006 742 q 4955 694 4969 707 q 4940 672 4940 681 q 4941 666 4940 671 q 4942 661 4942 661 q 4951 649 4943 657 q 4963 640 4958 642 q 4806 586 4897 586 q 4817 546 4806 563 q 4846 518 4829 529 q 4883 499 4863 507 q 4919 486 4903 492 l 4854 419 q 4853 415 4854 419 q 4851 408 4851 411 q 4869 383 4851 392 q 4908 373 4886 375 q 4950 372 4931 371 q 4974 372 4969 372 q 5038 377 5011 372 q 5087 392 5064 382 q 5132 420 5110 403 q 5183 464 5154 438 l 5207 419 l 5271 529 q 5331 490 5308 517 q 5365 428 5354 463 q 5374 356 5375 393 q 5360 288 5372 319 l 5471 396 q 5480 385 5472 393 q 5490 375 5488 376 q 5496 374 5490 375 q 5504 372 5501 372 q 5558 401 5535 372 q 5597 468 5581 429 q 5620 548 5613 507 q 5628 614 5628 589 q 5600 742 5628 681 q 5530 860 5572 804 q 5438 963 5488 915 q 5347 1051 5389 1011 q 5276 1124 5304 1092 q 5249 1181 5249 1157 q 5285 1240 5249 1206 q 5369 1312 5321 1275 q 5465 1381 5418 1349 q 5536 1435 5513 1414 q 5601 1497 5576 1468 q 5648 1551 5626 1526 q 5694 1595 5669 1575 q 5756 1631 5718 1615 q 5947 1713 5853 1667 q 6135 1799 6040 1758 q 6328 1869 6231 1840 q 6529 1897 6425 1897 l 6554 1897 q 6595 1897 6574 1897 q 6636 1896 6617 1896 l 6660 1896 q 6807 1817 6742 1863 q 6927 1715 6872 1771 q 7030 1593 6982 1658 q 7124 1456 7078 1528 q 7155 1374 7144 1424 q 7178 1276 7165 1324 q 7215 1196 7192 1229 q 7289 1163 7239 1163 q 7331 1179 7318 1163 q 7348 1219 7344 1196 q 7349 1269 7351 1243 q 7347 1313 7347 1294 q 7347 1390 7347 1356 q 7341 1456 7346 1424 q 7326 1525 7336 1489 q 7299 1610 7317 1561 l 7343 1654 q 7348 1656 7343 1654 q 7356 1657 7353 1657 q 7410 1628 7376 1657 q 7486 1565 7444 1600 q 7576 1502 7528 1531 q 7675 1474 7624 1474 q 7788 1588 7788 1474 q 7743 1784 7788 1686 q 7624 1970 7699 1882 q 7453 2134 7550 2058 q 7253 2265 7357 2210 q 7044 2352 7149 2321 q 6850 2383 6940 2383 q 6624 2365 6735 2383 q 6405 2326 6514 2347 q 6187 2286 6296 2304 q 5965 2268 6078 2268 l 5892 2268 q 5784 2281 5833 2268 q 5690 2336 5735 2293 l 5117 2910 q 5092 2929 5113 2914 q 5041 2965 5071 2944 q 4975 3010 5011 2986 q 4904 3058 4939 3035 q 4838 3100 4869 3081 q 4786 3131 4807 3119 q 4195 3369 4497 3297 q 3563 3442 3893 3442 q 3168 3412 3360 3442 q 2799 3316 2976 3382 q 2463 3144 2622 3250 q 2164 2888 2303 3039 q 2041 2703 2092 2810 q 1950 2477 1990 2597 q 1874 2229 1910 2357 q 1797 1980 1839 2101 q 1701 1751 1756 1858 q 1569 1562 1647 1643 q 1384 1433 1492 1481 q 1128 1386 1276 1386 q 874 1432 990 1386 q 665 1558 758 1478 q 501 1744 572 1638 q 383 1970 431 1850 q 312 2218 336 2090 q 288 2469 288 2346 q 337 2808 288 2647 q 474 3108 386 2969 q 683 3363 561 3247 q 949 3565 804 3478 q 1257 3710 1094 3653 q 1590 3792 1419 3768 l 1590 3831 q 1244 3778 1422 3831 q 897 3631 1067 3725 q 578 3408 728 3538 q 315 3126 428 3279 q 135 2803 201 2974 q 69 2457 69 2633 q 124 2052 69 2254 q 278 1667 178 1850 q 521 1333 378 1485 q 842 1082 664 1182 q 916 1042 876 1063 q 997 1006 956 1022 q 1080 980 1038 990 q 1163 969 1122 969 q 1481 1015 1325 969 q 1782 1136 1636 1061 q 2062 1306 1928 1211 q 2317 1499 2196 1400 q 2390 1573 2360 1531 q 2449 1661 2421 1615 q 2509 1751 2478 1707 q 2582 1831 2540 1796 q 2751 1863 2674 1835 q 2901 1924 2828 1892 q 3051 1983 2975 1957 q 3217 2010 3128 2010 q 3304 2008 3260 2010 q 3392 2001 3349 2007 q 3476 1980 3435 1994 q 3551 1939 3517 1965 q 3576 1489 3574 1718 q 3574 1036 3579 1260 q 3629 931 3597 979 q 3697 840 3661 883 q 3769 753 3732 796 q 3839 661 3806 710 q 3872 606 3857 636 q 3903 547 3888 576 q 3935 490 3918 518 q 3972 440 3951 463 q 4065 339 4019 386 q 4148 242 4110 292 q 4215 133 4186 192 q 4258 0 4243 75 q 4292 44 4279 15 q 4313 105 4306 72 q 4323 171 4321 138 q 4325 232 4325 204 l 4325 288 q 4394 219 4356 251 q 4469 154 4432 188 q 4539 83 4507 121 q 4589 0 4571 46 l 4619 0 l 4619 61 q 4618 124 4619 90 q 4614 190 4617 157 q 4605 254 4611 224 q 4589 308 4599 285 m 5490 440 q 5510 419 5510 440 q 5490 396 5510 396 q 5475 419 5475 396 q 5490 440 5475 440 m 4325 1014 q 4285 975 4311 982 q 4233 966 4260 968 q 4181 958 4206 964 q 4147 926 4157 953 q 4085 994 4106 961 q 4053 1062 4065 1028 q 4029 1133 4040 1096 q 3993 1214 4018 1171 l 3993 1236 q 3992 1279 3993 1258 q 3992 1319 3992 1300 l 3992 1344 q 4022 1613 3992 1486 q 4104 1875 4051 1740 q 4150 1864 4119 1872 q 4217 1844 4181 1856 q 4292 1817 4253 1832 q 4362 1785 4331 1801 q 4413 1751 4393 1768 q 4433 1718 4433 1735 q 4427 1707 4433 1717 q 4413 1686 4421 1697 q 4398 1665 4406 1675 q 4389 1654 4390 1656 q 4369 1594 4376 1629 q 4359 1525 4363 1560 q 4353 1459 4356 1490 q 4346 1410 4350 1428 q 4342 1365 4344 1396 q 4338 1295 4340 1335 q 4333 1213 4336 1256 q 4329 1130 4331 1169 q 4326 1059 4328 1090 q 4325 1014 4325 1028 z "},"%":{"ha":4311,"x_min":69,"x_max":4242,"o":"m 3258 18 q 3186 14 3238 17 q 3077 8 3135 11 q 2968 2 3019 4 q 2896 0 2917 0 l 2875 0 q 2833 -1 2856 0 q 2786 -1 2810 -1 l 2750 -1 l 2721 -1 q 2676 -1 2700 -1 q 2633 0 2653 0 l 2603 0 q 2585 6 2599 3 q 2568 8 2572 8 q 2539 14 2563 10 q 2488 22 2515 18 q 2438 30 2461 26 q 2408 35 2414 33 q 2276 75 2335 51 q 2168 132 2218 99 q 2074 209 2118 165 q 1983 310 2029 253 q 1982 317 1982 311 l 1982 324 q 1996 354 1982 344 q 2029 364 2010 364 q 2072 358 2050 364 q 2114 342 2093 351 q 2156 324 2135 333 q 2196 310 2176 315 q 2369 279 2283 286 q 2543 272 2454 272 q 2726 283 2643 272 q 2884 315 2808 294 q 3035 366 2960 336 q 3197 433 3110 396 q 3330 494 3265 463 q 3452 565 3394 525 q 3560 654 3510 604 q 3649 769 3610 704 q 3677 820 3664 799 q 3699 863 3690 842 q 3714 905 3708 883 q 3719 956 3719 926 q 3700 1069 3719 1015 q 3649 1173 3681 1124 q 3581 1267 3618 1222 q 3507 1354 3543 1313 l 3471 1389 q 3351 1467 3413 1432 q 3232 1540 3290 1503 q 3174 1579 3210 1556 q 3105 1626 3139 1603 q 3046 1665 3071 1649 q 3019 1682 3021 1682 l 2985 1718 q 2957 1738 2983 1718 q 2888 1788 2931 1757 q 2793 1860 2846 1819 q 2687 1940 2740 1900 q 2583 2017 2633 1981 q 2497 2081 2533 2054 q 2468 2099 2482 2092 q 2436 2107 2454 2107 l 2426 2107 q 2476 1959 2457 2029 q 2504 1818 2494 1889 q 2518 1673 2514 1747 q 2524 1514 2522 1599 q 2555 1429 2531 1468 q 2606 1352 2579 1390 q 2654 1274 2633 1314 q 2675 1186 2675 1233 q 2665 1140 2675 1161 q 2641 1099 2656 1118 q 2609 1062 2626 1079 q 2578 1026 2592 1044 q 2565 1002 2568 1015 q 2559 974 2563 989 q 2551 941 2556 958 q 2532 903 2546 924 q 2517 868 2522 888 q 2510 828 2513 849 q 2508 787 2508 807 q 2507 751 2507 767 q 2499 744 2504 744 q 2489 743 2494 743 q 2435 764 2453 743 q 2408 810 2418 785 q 2388 856 2397 835 q 2356 876 2378 876 q 2352 873 2354 876 q 2347 868 2350 869 l 2303 779 l 2303 769 l 2303 761 q 2304 754 2303 760 q 2307 742 2306 749 q 2310 731 2308 736 q 2311 726 2311 726 q 2306 710 2311 714 q 2294 707 2301 707 q 2261 728 2276 707 q 2234 776 2246 749 q 2215 829 2222 803 q 2206 868 2208 856 q 2190 849 2196 861 q 2177 826 2183 838 q 2163 805 2171 814 q 2143 796 2156 796 q 2116 810 2125 796 q 2102 844 2107 824 q 2092 888 2097 865 q 2078 929 2088 911 q 2051 956 2069 947 q 2001 956 2033 964 q 1993 974 1993 964 q 2013 1040 1993 1008 q 2064 1099 2033 1071 q 2131 1154 2094 1128 q 2197 1204 2167 1181 q 2248 1250 2228 1228 q 2268 1293 2268 1272 q 2263 1314 2268 1306 q 2249 1336 2258 1322 q 2226 1373 2244 1344 q 2187 1433 2208 1401 q 2147 1494 2165 1465 q 2125 1531 2129 1522 q 2117 1550 2124 1535 q 2101 1585 2110 1565 q 2085 1625 2093 1606 q 2072 1656 2076 1644 q 2051 1731 2058 1693 q 2040 1806 2044 1768 q 2029 1881 2035 1843 q 2011 1956 2024 1918 q 1994 1993 2006 1974 q 1969 2032 1983 2013 q 1943 2071 1956 2051 q 1922 2107 1931 2090 q 1919 2113 1921 2107 q 1915 2124 1917 2118 q 1913 2136 1914 2131 q 1913 2143 1913 2142 q 1903 2175 1910 2156 q 1892 2213 1897 2194 q 1882 2244 1886 2231 q 1878 2257 1878 2257 l 1869 2267 q 1849 2281 1868 2268 q 1805 2310 1831 2293 q 1753 2344 1779 2326 q 1710 2372 1726 2361 q 1692 2381 1701 2381 l 1688 2381 l 1682 2381 q 1652 2353 1667 2369 q 1624 2320 1638 2338 q 1597 2286 1611 2303 q 1568 2257 1583 2269 q 1540 2236 1560 2251 q 1496 2204 1519 2221 q 1450 2172 1472 2188 q 1417 2151 1428 2157 q 1405 2144 1415 2150 q 1383 2133 1394 2139 q 1360 2122 1371 2128 q 1346 2115 1349 2117 q 1338 2107 1338 2115 q 1337 2106 1338 2107 q 1336 2103 1336 2104 q 1351 2065 1336 2082 q 1384 2030 1365 2047 q 1421 1994 1403 2013 q 1444 1956 1439 1976 q 1469 1838 1460 1897 q 1479 1719 1479 1779 l 1479 1682 q 1477 1652 1479 1675 q 1472 1602 1475 1629 q 1465 1551 1468 1575 q 1461 1522 1463 1528 l 1461 1518 q 1475 1458 1461 1485 q 1506 1406 1489 1432 q 1536 1354 1522 1381 q 1550 1296 1550 1328 q 1546 1231 1550 1263 q 1515 1176 1542 1200 q 1485 1152 1504 1168 q 1449 1121 1467 1136 q 1416 1094 1431 1106 q 1399 1081 1401 1082 q 1375 1067 1392 1075 q 1356 1058 1358 1058 l 1161 1058 q 1154 1055 1161 1058 q 1139 1047 1147 1051 q 1122 1036 1131 1042 q 1107 1026 1113 1031 q 1089 1004 1094 1017 q 1078 980 1083 992 q 1063 959 1072 968 q 1036 947 1054 950 q 1013 962 1024 944 q 995 1003 1003 979 q 982 1050 988 1028 q 974 1081 976 1072 q 970 1081 972 1081 q 965 1082 968 1082 q 960 1081 963 1082 q 957 1081 957 1081 q 939 1069 949 1078 q 920 1050 929 1060 q 903 1033 911 1040 q 890 1026 896 1026 q 869 1042 875 1026 q 862 1077 864 1057 q 860 1116 860 1097 q 860 1142 861 1135 q 854 1147 860 1143 q 842 1156 849 1151 q 829 1163 835 1160 q 824 1168 824 1167 l 824 1172 q 834 1224 824 1194 q 863 1283 844 1254 q 903 1333 881 1311 q 949 1364 925 1356 q 995 1372 964 1369 q 1047 1374 1026 1374 q 1121 1360 1085 1374 q 1192 1346 1157 1346 q 1203 1353 1201 1346 q 1206 1368 1206 1360 q 1205 1375 1206 1371 q 1204 1381 1204 1379 q 1174 1439 1196 1397 q 1128 1527 1153 1481 q 1083 1615 1104 1574 q 1054 1672 1063 1656 q 1013 1803 1022 1739 q 1001 1939 1004 1868 q 974 1990 989 1972 q 948 2026 960 2008 q 928 2068 936 2043 q 919 2139 919 2093 q 926 2187 919 2164 q 941 2231 932 2210 q 959 2274 950 2253 q 974 2319 968 2296 q 977 2331 975 2321 q 981 2352 979 2340 q 985 2376 983 2364 q 989 2399 988 2389 q 992 2417 992 2414 q 996 2431 993 2419 q 1001 2443 999 2440 q 1012 2464 1004 2449 q 1028 2496 1019 2479 q 1043 2528 1036 2513 q 1054 2550 1050 2543 q 1078 2586 1061 2564 q 1117 2635 1096 2608 q 1163 2690 1139 2661 q 1205 2744 1186 2718 q 1236 2792 1224 2771 q 1249 2824 1249 2813 l 1249 2833 l 1107 3046 q 1101 3059 1106 3050 q 1093 3078 1097 3068 q 1085 3096 1089 3088 q 1081 3107 1082 3104 q 1060 3149 1075 3119 q 1029 3210 1046 3178 q 997 3271 1013 3242 q 974 3311 981 3300 q 962 3310 965 3308 q 956 3313 958 3311 q 951 3318 954 3315 q 943 3321 949 3321 q 914 3304 929 3321 q 882 3267 899 3288 q 848 3231 865 3247 q 814 3214 831 3214 q 788 3222 797 3214 q 774 3242 779 3231 q 766 3268 768 3254 q 761 3293 764 3282 q 759 3294 760 3293 q 757 3294 758 3294 l 753 3293 q 733 3281 740 3286 q 721 3273 726 3276 q 710 3268 715 3269 q 696 3267 706 3267 q 676 3279 682 3267 q 665 3307 669 3292 q 657 3335 661 3322 q 643 3347 653 3347 l 638 3347 l 594 3338 l 583 3338 q 573 3339 579 3338 q 567 3347 567 3340 l 567 3431 l 500 3431 q 501 3446 500 3431 q 506 3471 503 3461 q 528 3515 513 3496 q 564 3547 543 3533 q 608 3567 585 3560 q 656 3576 632 3575 q 656 3581 656 3578 q 657 3585 657 3583 q 645 3627 657 3607 q 615 3662 633 3647 q 574 3685 596 3676 q 531 3693 551 3693 q 496 3671 511 3693 q 467 3622 481 3649 q 440 3572 453 3594 q 411 3550 426 3550 q 390 3558 399 3550 q 376 3576 382 3565 q 368 3599 371 3588 q 364 3621 365 3611 q 360 3622 363 3621 q 354 3622 357 3622 q 335 3614 343 3622 q 323 3594 328 3606 q 315 3570 318 3582 q 311 3550 313 3558 l 301 3550 q 272 3564 283 3550 q 255 3597 261 3578 q 247 3635 249 3615 q 249 3665 246 3654 q 208 3645 228 3656 q 169 3621 188 3635 q 150 3638 157 3625 q 140 3665 143 3650 q 135 3693 136 3679 q 133 3714 133 3707 l 133 3718 q 138 3728 133 3721 q 142 3736 143 3735 q 132 3752 139 3749 q 115 3756 125 3756 q 99 3750 106 3756 q 83 3744 93 3744 q 69 3763 69 3744 q 94 3815 69 3789 q 142 3851 119 3840 l 283 3922 q 275 3931 281 3931 q 253 3950 267 3938 q 240 3963 240 3963 l 142 3963 q 138 3967 140 3963 q 133 3975 136 3972 l 133 3979 q 145 4021 133 4003 q 176 4051 157 4039 q 215 4068 194 4063 q 256 4074 236 4074 q 342 4058 303 4074 q 419 4023 382 4042 q 496 3989 457 4004 q 582 3974 535 3974 l 596 3974 q 622 3974 608 3974 q 638 3975 636 3975 q 695 3984 660 3978 q 765 3998 731 3990 q 824 4012 799 4006 q 850 4019 849 4018 l 868 4038 q 872 4059 868 4039 q 881 4108 876 4079 q 892 4165 886 4136 q 903 4214 899 4194 q 903 4222 903 4215 q 904 4232 904 4229 q 899 4274 904 4257 q 886 4321 894 4290 l 665 5019 q 628 5197 638 5107 q 618 5374 618 5286 q 635 5563 618 5468 q 688 5747 653 5658 q 777 5914 724 5835 q 903 6056 831 5993 q 1006 6131 956 6100 q 1107 6206 1057 6161 q 1181 6254 1139 6235 q 1270 6285 1224 6274 q 1364 6301 1317 6297 q 1453 6306 1411 6306 q 1528 6293 1485 6306 q 1617 6258 1571 6281 q 1709 6207 1664 6236 q 1790 6144 1754 6178 q 1847 6074 1825 6110 q 1869 6001 1869 6038 q 1849 5958 1869 5965 q 1793 5950 1828 5950 q 1735 5956 1764 5950 q 1677 5969 1706 5961 q 1619 5982 1649 5976 q 1560 5988 1590 5988 q 1540 5986 1554 5988 q 1524 5985 1525 5985 l 1515 5976 q 1539 5951 1525 5964 q 1568 5932 1553 5939 q 1606 5914 1578 5926 q 1666 5887 1635 5901 q 1725 5860 1697 5872 q 1763 5843 1753 5847 q 1764 5835 1763 5842 q 1765 5826 1765 5828 q 1748 5792 1765 5806 q 1708 5769 1731 5778 q 1660 5758 1685 5761 q 1621 5756 1635 5756 q 1563 5763 1592 5756 q 1507 5778 1535 5769 q 1451 5793 1479 5786 q 1394 5800 1424 5800 q 1364 5798 1378 5800 q 1336 5792 1350 5796 q 1306 5783 1322 5788 q 1267 5772 1289 5778 q 1213 5758 1233 5764 q 1178 5741 1192 5751 q 1154 5711 1164 5731 q 1133 5657 1144 5692 q 1129 5639 1132 5650 q 1123 5617 1126 5628 q 1117 5597 1119 5606 q 1115 5586 1115 5588 q 1114 5567 1115 5581 q 1111 5540 1113 5554 q 1108 5514 1110 5526 q 1107 5497 1107 5501 q 1131 5291 1107 5389 q 1197 5103 1154 5193 q 1299 4930 1240 5014 q 1426 4764 1357 4846 q 1485 4692 1446 4738 q 1564 4600 1524 4646 q 1636 4519 1604 4554 q 1674 4481 1668 4485 l 2426 3772 q 2437 3759 2429 3769 q 2454 3736 2444 3749 q 2474 3711 2464 3724 q 2489 3692 2483 3699 q 2519 3649 2500 3676 q 2559 3590 2538 3622 q 2603 3524 2581 3558 q 2644 3461 2625 3490 q 2676 3410 2663 3432 q 2692 3382 2689 3389 q 2724 3329 2703 3365 q 2769 3248 2744 3293 q 2822 3152 2794 3203 q 2875 3056 2850 3101 q 2919 2975 2900 3011 q 2949 2922 2939 2939 q 2958 2909 2951 2919 q 2967 2894 2964 2899 q 3038 2761 3003 2829 q 3112 2627 3072 2693 q 3198 2501 3151 2561 q 3303 2390 3244 2440 l 3728 2026 q 3783 1991 3756 2013 q 3837 1946 3811 1969 q 3887 1897 3863 1922 q 3932 1850 3911 1872 q 4020 1734 3983 1792 q 4085 1615 4057 1676 q 4136 1487 4114 1553 q 4179 1346 4158 1421 q 4221 1188 4200 1269 q 4242 1022 4242 1106 q 4235 905 4242 969 q 4214 774 4228 840 q 4178 646 4200 707 q 4126 539 4156 585 q 4115 522 4124 533 q 4096 497 4107 511 q 4072 468 4085 483 q 4050 440 4060 453 q 4028 415 4035 422 q 4011 397 4022 408 q 3976 362 3996 382 q 3936 322 3956 342 q 3901 287 3917 303 q 3878 265 3885 271 q 3867 258 3876 264 q 3847 246 3858 253 q 3825 232 3836 239 q 3807 221 3814 225 q 3542 92 3674 146 q 3258 18 3410 38 m 1090 5481 q 1082 5472 1082 5481 q 1090 5463 1082 5463 q 1097 5472 1097 5463 q 1090 5481 1097 5481 z "},"&":{"ha":6197,"x_min":69,"x_max":6128,"o":"m 2971 367 q 2969 335 2969 351 q 2969 301 2969 318 q 2961 203 2969 253 q 2926 111 2953 154 q 2914 86 2922 104 q 2893 49 2906 68 q 2865 14 2881 29 q 2832 -1 2850 -1 q 2799 19 2815 -1 q 2769 68 2782 40 q 2747 124 2756 96 q 2738 167 2739 151 q 2737 193 2738 174 q 2736 233 2736 213 q 2737 274 2736 254 q 2738 300 2738 293 q 2722 305 2733 301 q 2699 311 2711 308 q 2675 317 2686 314 q 2660 322 2664 321 q 2655 323 2658 322 q 2649 324 2651 324 q 2594 313 2614 324 q 2558 287 2574 303 q 2525 251 2542 271 q 2482 211 2508 231 q 2463 199 2479 208 q 2424 180 2446 190 q 2381 159 2403 169 q 2349 144 2360 149 q 2341 142 2347 143 q 2327 139 2335 140 q 2313 136 2319 138 q 2304 133 2306 135 q 2280 113 2289 126 q 2262 87 2271 100 q 2242 64 2253 74 q 2210 54 2231 54 q 2167 74 2176 54 q 2158 124 2158 94 q 2177 215 2158 171 q 2215 300 2196 260 q 2203 303 2213 301 q 2182 306 2193 304 q 2161 310 2171 308 q 2149 311 2151 311 l 2142 311 l 2138 311 q 2124 299 2136 310 q 2097 276 2113 289 q 2065 253 2081 264 q 2043 243 2050 243 q 2021 250 2029 243 q 2008 267 2013 257 q 2003 290 2004 278 q 2001 310 2001 301 q 2007 342 2001 329 q 2021 367 2013 356 q 2037 392 2029 379 q 2049 422 2044 404 l 2049 431 l 2049 444 l 2049 458 l 2049 467 q 2056 472 2049 468 q 2071 478 2064 475 l 2104 489 q 2117 495 2108 492 q 2126 500 2125 499 q 2135 519 2132 507 q 2143 543 2139 531 q 2153 565 2147 556 q 2171 578 2160 575 q 2225 586 2199 585 q 2278 589 2251 588 q 2330 594 2304 590 q 2382 611 2356 599 l 2404 622 q 2429 628 2410 624 q 2471 639 2449 633 q 2513 649 2493 644 q 2538 656 2532 654 q 2570 672 2563 664 q 2580 688 2578 679 q 2585 704 2582 696 q 2604 722 2589 713 q 2632 737 2619 732 q 2655 747 2644 742 q 2674 758 2665 751 q 2693 778 2683 765 q 2764 903 2732 828 q 2822 1068 2796 979 q 2868 1253 2849 1157 q 2901 1440 2888 1349 q 2921 1613 2914 1532 q 2928 1754 2928 1694 l 2928 1786 q 2927 1826 2928 1807 q 2926 1861 2926 1846 l 2926 1878 q 2922 1934 2925 1900 q 2915 2000 2918 1968 q 2908 2055 2911 2032 q 2904 2078 2906 2078 l 2893 2078 q 2874 2010 2889 2043 q 2844 1944 2860 1976 q 2817 1878 2829 1911 q 2804 1811 2804 1844 l 2804 1467 q 2788 1435 2804 1449 q 2756 1421 2771 1421 q 2731 1430 2739 1421 q 2716 1451 2722 1439 q 2703 1478 2710 1464 q 2682 1500 2696 1492 q 2663 1476 2669 1493 q 2660 1444 2657 1458 q 2610 1369 2636 1408 q 2553 1296 2585 1329 q 2483 1242 2522 1263 q 2393 1222 2444 1221 q 2366 1149 2388 1169 q 2317 1117 2344 1128 q 2261 1097 2289 1107 q 2215 1056 2233 1086 q 2210 1044 2214 1053 q 2200 1028 2206 1036 q 2190 1011 2194 1019 q 2182 1000 2185 1003 q 2177 999 2181 1000 q 2171 999 2174 999 q 2138 1022 2149 999 l 2138 1033 q 2137 1050 2138 1040 q 2136 1067 2136 1060 l 2136 1078 q 2143 1139 2136 1114 q 2150 1200 2150 1164 q 2149 1222 2150 1207 q 2149 1244 2149 1238 q 2135 1249 2144 1246 q 2114 1257 2125 1253 q 2092 1264 2103 1261 q 2076 1267 2082 1267 l 2071 1267 q 2043 1215 2056 1238 q 2015 1176 2031 1192 q 1979 1151 2000 1160 q 1926 1143 1958 1143 q 1885 1150 1900 1143 q 1847 1157 1871 1157 q 1819 1147 1831 1157 q 1796 1126 1807 1138 q 1772 1106 1785 1114 q 1738 1100 1758 1097 q 1725 1110 1733 1101 q 1715 1122 1717 1118 q 1713 1144 1714 1129 q 1713 1167 1713 1160 q 1713 1192 1713 1176 q 1715 1211 1714 1208 q 1720 1221 1715 1213 q 1731 1239 1725 1229 q 1743 1256 1738 1249 q 1749 1267 1749 1264 q 1740 1303 1749 1285 q 1720 1342 1731 1322 q 1701 1382 1710 1361 q 1692 1424 1692 1403 q 1708 1478 1692 1454 q 1749 1522 1725 1503 q 1823 1573 1788 1554 q 1893 1602 1858 1592 q 1963 1615 1928 1613 q 2035 1618 1997 1618 q 2149 1622 2086 1618 q 2188 1628 2174 1624 q 2214 1638 2203 1632 q 2237 1648 2225 1643 q 2271 1656 2249 1653 q 2354 1744 2315 1696 q 2422 1847 2393 1793 q 2467 1960 2450 1901 q 2483 2081 2483 2019 q 2483 2144 2483 2115 q 2480 2202 2482 2174 q 2473 2262 2478 2231 q 2460 2333 2468 2293 q 2419 2391 2444 2364 q 2362 2442 2393 2418 q 2298 2485 2331 2465 q 2238 2522 2265 2506 l 2226 2522 q 2210 2523 2219 2522 q 2193 2524 2200 2524 l 2182 2524 q 2124 2522 2156 2524 q 2061 2515 2093 2519 q 2000 2501 2029 2510 q 1949 2478 1971 2492 q 1860 2417 1910 2453 q 1764 2340 1811 2382 q 1676 2254 1717 2299 q 1615 2167 1636 2210 q 1613 2154 1614 2164 q 1610 2133 1611 2144 q 1607 2111 1608 2121 q 1604 2100 1606 2101 q 1587 2078 1597 2081 q 1563 2076 1576 2076 q 1529 2080 1547 2076 q 1496 2092 1511 2083 q 1469 2113 1481 2100 q 1458 2144 1458 2125 q 1469 2172 1458 2154 q 1494 2210 1481 2190 q 1522 2245 1508 2229 q 1538 2267 1535 2261 l 1515 2267 l 1382 2200 q 1377 2199 1381 2200 q 1371 2199 1374 2199 q 1339 2208 1353 2199 q 1325 2238 1325 2218 q 1340 2274 1325 2250 q 1374 2324 1354 2299 q 1415 2372 1394 2350 q 1449 2400 1436 2393 q 1497 2421 1463 2408 q 1569 2449 1532 2433 q 1633 2481 1606 2464 q 1661 2518 1661 2499 q 1643 2535 1661 2525 q 1597 2555 1625 2544 q 1533 2576 1568 2565 q 1467 2595 1499 2586 q 1408 2611 1435 2604 q 1371 2622 1382 2618 q 1353 2629 1368 2624 q 1317 2642 1338 2635 q 1278 2656 1297 2649 q 1249 2667 1258 2663 q 1216 2686 1231 2674 q 1188 2712 1201 2699 q 1159 2738 1174 2725 q 1126 2756 1144 2750 q 1035 2781 1075 2769 q 960 2808 996 2793 q 887 2845 924 2824 q 804 2900 850 2867 q 793 2902 801 2901 q 782 2903 785 2903 q 738 2889 754 2903 q 704 2844 721 2875 q 688 2862 701 2849 q 671 2878 675 2875 q 669 2878 671 2878 q 665 2879 667 2879 q 662 2878 664 2879 q 660 2878 660 2878 l 560 2822 q 554 2824 558 2824 q 549 2822 550 2824 q 491 2794 521 2810 q 430 2765 461 2779 q 367 2742 399 2751 q 304 2733 335 2733 q 267 2736 282 2733 q 240 2742 253 2739 q 215 2749 228 2746 q 182 2756 201 2753 l 176 2756 q 157 2750 165 2756 q 140 2738 149 2744 q 124 2726 132 2732 q 104 2721 115 2721 q 86 2728 93 2721 q 76 2744 79 2735 q 71 2764 72 2753 q 69 2783 69 2775 q 85 2841 69 2821 q 123 2872 100 2861 q 174 2887 146 2882 q 226 2900 201 2892 q 255 2914 239 2903 q 288 2937 271 2925 q 320 2958 304 2949 q 347 2968 336 2968 q 354 2967 350 2968 q 360 2967 358 2967 q 371 2960 363 2965 q 382 2956 379 2956 q 426 2977 404 2958 q 469 3019 449 2996 q 508 3066 490 3043 q 538 3100 525 3089 q 583 3110 558 3096 q 633 3149 608 3124 q 681 3207 658 3175 q 722 3272 704 3239 q 751 3333 740 3304 q 761 3378 761 3361 q 755 3398 761 3390 q 749 3417 749 3406 l 749 3422 q 753 3428 750 3424 q 760 3433 757 3432 q 783 3454 774 3443 q 799 3477 792 3465 q 816 3501 807 3489 q 838 3522 825 3513 q 808 3661 817 3593 q 782 3800 800 3729 l 771 3800 q 728 3794 747 3800 q 685 3788 710 3788 q 644 3796 675 3788 q 579 3818 613 3804 q 519 3851 546 3832 q 493 3889 493 3869 l 493 4067 q 502 4097 493 4081 q 522 4130 511 4113 q 541 4167 532 4147 q 550 4210 550 4188 q 544 4285 550 4246 q 515 4356 539 4325 l 515 4678 q 540 4753 531 4710 q 549 4828 549 4796 q 538 4847 549 4838 q 515 4867 528 4856 q 491 4893 501 4878 q 481 4932 481 4908 q 485 4962 481 4949 q 497 4988 490 4975 q 508 5015 503 5001 q 515 5044 514 5029 q 538 5178 524 5111 q 577 5305 551 5244 q 644 5416 603 5365 q 749 5500 686 5467 q 763 5508 751 5501 q 788 5522 775 5515 q 812 5536 800 5529 q 826 5544 824 5543 q 842 5545 828 5544 q 867 5546 857 5546 q 907 5538 890 5546 q 938 5522 924 5531 q 968 5506 953 5514 q 1004 5499 983 5499 q 1070 5511 1038 5499 q 1139 5524 1103 5524 q 1157 5523 1144 5524 q 1171 5522 1169 5522 q 1188 5517 1174 5522 q 1204 5511 1201 5511 q 1221 5517 1207 5511 q 1238 5522 1235 5522 l 1249 5522 q 1332 5490 1297 5522 q 1392 5413 1367 5458 q 1435 5317 1417 5367 q 1471 5233 1454 5268 q 1541 5125 1501 5176 q 1604 5011 1581 5074 q 1613 4977 1610 4996 q 1622 4940 1617 4958 q 1634 4904 1626 4921 q 1654 4878 1642 4888 l 1654 4511 q 1663 4500 1657 4508 q 1671 4489 1668 4492 l 1671 4483 l 1671 4478 q 1666 4467 1669 4475 q 1660 4456 1663 4458 l 1660 4278 q 1748 4306 1704 4288 q 1835 4344 1792 4324 q 1924 4386 1879 4365 q 2015 4422 1969 4407 q 2026 4427 2018 4424 q 2038 4433 2035 4431 l 2582 4467 q 2683 4533 2613 4506 q 2835 4578 2753 4560 q 2995 4604 2917 4596 q 3121 4613 3074 4613 q 3274 4605 3197 4613 q 3426 4578 3351 4597 l 3704 4578 q 3815 4607 3754 4594 q 3938 4628 3875 4619 q 4061 4642 4000 4638 q 4175 4646 4122 4646 q 4317 4635 4250 4646 q 4460 4622 4385 4625 q 4476 4613 4471 4617 q 4500 4607 4482 4610 q 4523 4602 4510 4604 q 4550 4597 4536 4600 q 4575 4592 4564 4594 q 4593 4589 4586 4590 l 4604 4589 q 4630 4580 4611 4586 q 4670 4567 4649 4574 q 4710 4553 4692 4560 q 4738 4544 4729 4547 q 4967 4451 4846 4506 q 5206 4328 5089 4396 q 5426 4180 5322 4260 q 5604 4011 5531 4100 q 5628 3981 5613 4001 q 5664 3935 5644 3961 q 5705 3879 5683 3908 q 5747 3824 5726 3850 q 5782 3776 5767 3797 q 5804 3744 5797 3754 q 5865 3625 5828 3686 q 5938 3511 5901 3564 l 5971 3478 q 5974 3465 5972 3475 q 5977 3444 5975 3456 q 5981 3423 5979 3433 q 5982 3411 5982 3413 q 6034 3205 6008 3307 q 6081 2999 6060 3103 q 6115 2790 6101 2896 q 6128 2575 6128 2685 l 6128 2513 q 6126 2395 6128 2464 q 6116 2251 6124 2326 q 6095 2100 6108 2175 q 6060 1965 6082 2025 q 6006 1869 6038 1906 q 5931 1832 5975 1832 q 5892 1856 5903 1832 q 5881 1903 5881 1879 q 5893 2025 5881 1965 q 5906 2147 5906 2085 q 5897 2394 5906 2263 q 5866 2660 5889 2526 q 5802 2922 5843 2793 q 5696 3160 5761 3050 q 5537 3356 5631 3271 q 5315 3489 5443 3442 q 5116 3535 5218 3525 q 4910 3546 5014 3546 l 4772 3546 q 4632 3538 4701 3546 q 4493 3520 4563 3531 q 4354 3498 4424 3510 q 4215 3478 4285 3486 q 4086 3466 4149 3468 q 3960 3444 4024 3464 q 3876 3390 3914 3429 q 3815 3311 3838 3351 q 3778 3208 3790 3261 q 3758 3100 3767 3154 q 3739 2992 3750 3046 q 3704 2889 3728 2939 q 3660 2801 3685 2846 q 3612 2711 3635 2757 q 3573 2617 3589 2665 q 3557 2519 3557 2569 q 3565 2438 3557 2478 q 3581 2358 3572 2397 q 3597 2277 3589 2318 q 3604 2193 3604 2236 q 3583 2022 3604 2096 q 3530 1880 3561 1947 q 3465 1747 3499 1813 q 3404 1600 3431 1681 q 3374 1481 3386 1543 q 3350 1358 3363 1419 q 3322 1236 3338 1296 q 3282 1122 3307 1176 l 3149 844 q 3113 751 3128 799 q 3086 656 3099 704 q 3060 561 3074 608 q 3026 467 3046 514 q 2999 417 3015 439 q 2971 367 2982 394 m 2226 322 q 2218 311 2218 322 q 2226 300 2218 300 q 2235 311 2235 300 q 2226 322 2235 322 z "},"'":{"ha":4803,"x_min":69,"x_max":4733,"o":"m 1221 125 l 1247 99 q 1253 88 1253 97 l 1253 72 q 1274 36 1258 50 q 1309 14 1289 22 q 1352 3 1329 6 q 1397 0 1375 0 l 1449 0 l 1460 0 q 1514 3 1481 1 q 1581 7 1547 6 q 1639 9 1614 8 q 1667 10 1664 10 q 1714 17 1688 11 q 1765 33 1740 22 q 1806 60 1789 43 q 1822 103 1822 78 q 1806 163 1822 142 q 1769 200 1790 185 q 1728 230 1749 215 q 1697 268 1707 244 l 1697 303 q 1696 323 1697 314 q 1694 336 1694 332 q 1700 394 1694 369 q 1715 440 1706 418 q 1735 484 1724 461 q 1760 539 1747 507 q 1824 710 1797 626 q 1885 881 1850 793 q 1935 979 1906 933 q 1988 1088 1964 1025 q 2003 1149 1999 1117 q 2010 1213 2007 1181 q 2019 1277 2013 1246 q 2040 1336 2025 1308 q 2059 1356 2050 1354 q 2086 1358 2068 1358 q 2100 1358 2090 1358 q 2113 1357 2110 1357 q 2136 850 2125 1100 q 2154 343 2147 600 q 2177 288 2154 307 q 2231 259 2200 268 q 2297 249 2263 250 q 2354 247 2331 247 q 2397 248 2367 247 q 2464 252 2426 249 q 2542 262 2501 256 q 2617 278 2583 268 q 2672 305 2650 289 q 2693 343 2693 321 q 2675 387 2693 368 q 2633 422 2657 406 q 2585 452 2610 438 q 2547 486 2560 467 q 2498 588 2511 536 q 2485 701 2485 639 l 2485 718 l 2485 756 l 2485 767 l 2538 1565 q 2551 1592 2539 1578 q 2578 1621 2563 1607 q 2608 1647 2593 1635 q 2629 1668 2622 1660 l 2692 1731 l 2733 1782 q 2758 1819 2742 1792 q 2792 1874 2775 1846 q 2822 1925 2808 1903 q 2838 1947 2835 1947 q 2865 1931 2854 1947 q 2882 1892 2875 1914 q 2893 1847 2889 1869 q 2900 1813 2897 1825 q 2903 1749 2901 1792 q 2906 1653 2904 1707 q 2910 1539 2908 1599 q 2913 1425 2911 1479 q 2915 1328 2914 1371 q 2915 1264 2915 1285 l 2915 1232 l 2951 736 q 2975 597 2967 664 q 2983 456 2983 531 l 2983 438 q 2983 408 2983 422 q 2982 381 2982 393 l 2982 363 q 2958 315 2967 339 q 2950 264 2950 292 q 2959 226 2950 243 q 2983 195 2968 208 q 3016 174 2997 182 q 3054 167 3035 167 l 3261 167 q 3301 178 3285 167 q 3328 208 3318 190 q 3342 245 3338 225 q 3346 282 3346 265 q 3338 337 3346 308 q 3321 394 3331 365 q 3303 455 3311 424 q 3293 518 3294 486 q 3295 983 3297 749 q 3278 1450 3293 1218 l 3278 1481 q 3277 1526 3278 1494 q 3275 1594 3276 1557 q 3273 1672 3274 1632 q 3272 1746 3272 1713 l 3272 1813 q 3275 1863 3272 1822 q 3281 1948 3278 1903 q 3288 2033 3285 1993 q 3293 2082 3292 2072 l 3293 2114 q 3267 2421 3293 2269 q 3210 2724 3242 2572 q 3189 2801 3203 2761 q 3161 2883 3175 2842 q 3137 2963 3147 2924 q 3126 3040 3126 3003 q 3127 3053 3126 3043 q 3128 3067 3128 3064 q 3208 3260 3164 3165 q 3298 3447 3251 3354 q 3391 3633 3344 3540 q 3479 3822 3438 3726 q 3492 3851 3482 3829 q 3517 3903 3503 3874 q 3547 3967 3531 3933 q 3576 4031 3563 4001 q 3601 4083 3590 4061 q 3614 4113 3611 4106 q 3689 4319 3658 4214 q 3746 4533 3719 4425 q 3797 4749 3772 4642 q 3853 4963 3821 4857 q 3858 4983 3854 4968 q 3863 5004 3863 4999 q 3908 5228 3885 5121 q 3967 5449 3932 5336 q 3976 5481 3968 5457 q 3994 5539 3983 5506 q 4017 5610 4004 5572 q 4040 5680 4029 5647 q 4058 5737 4050 5713 q 4069 5769 4067 5761 q 4099 5847 4079 5799 q 4147 5951 4119 5896 q 4206 6063 4174 6007 q 4272 6165 4239 6119 q 4339 6240 4306 6211 q 4401 6268 4372 6268 q 4455 6258 4431 6268 q 4501 6236 4479 6249 q 4547 6214 4524 6224 q 4594 6204 4569 6204 q 4646 6215 4621 6204 q 4690 6244 4671 6226 q 4722 6286 4710 6263 q 4733 6336 4733 6310 l 4733 6361 q 4642 6526 4706 6474 q 4465 6579 4579 6579 q 4289 6553 4365 6579 q 4150 6479 4213 6526 q 4033 6367 4088 6432 q 3925 6226 3979 6303 q 3860 6145 3897 6185 q 3801 6060 3824 6106 q 3709 5866 3753 5964 q 3625 5667 3665 5768 q 3616 5642 3622 5660 q 3603 5603 3610 5624 q 3590 5566 3596 5583 q 3583 5543 3585 5549 q 3567 5510 3578 5539 q 3540 5436 3556 5481 q 3509 5340 3525 5392 q 3478 5240 3493 5289 q 3453 5153 3464 5192 q 3438 5097 3442 5114 q 3413 5015 3428 5056 q 3380 4935 3397 4975 q 3345 4856 3363 4896 q 3314 4775 3328 4815 q 3198 4476 3264 4624 q 3043 4194 3132 4329 q 2982 4110 3015 4151 q 2931 4018 2949 4068 q 2767 3853 2851 3935 q 2579 3718 2683 3771 q 2525 3693 2564 3711 q 2444 3656 2486 3675 q 2363 3618 2401 3636 q 2308 3593 2324 3600 q 2188 3560 2253 3588 q 2052 3490 2122 3532 q 1911 3396 1982 3447 q 1774 3292 1840 3344 q 1651 3192 1708 3240 q 1553 3107 1594 3143 q 1485 3057 1521 3079 q 1418 3004 1450 3035 q 1160 2733 1275 2867 q 947 2459 1044 2600 q 768 2163 850 2318 q 610 1824 686 2007 q 544 1669 578 1744 q 486 1513 510 1593 q 457 1395 469 1454 q 414 1283 444 1336 l 351 1036 q 317 972 329 1008 q 299 897 306 936 q 285 819 292 858 q 268 746 279 779 q 227 633 249 690 q 185 519 206 576 q 149 405 165 463 q 122 290 132 347 q 111 258 119 274 q 93 228 103 243 q 76 198 83 213 q 69 167 69 183 q 78 124 69 147 q 103 79 88 100 q 140 44 119 58 q 185 31 161 31 q 263 58 235 31 q 310 124 292 85 q 340 206 328 163 q 371 279 353 249 q 424 367 399 324 q 475 456 450 411 q 492 492 485 472 q 505 530 499 511 q 519 567 511 549 q 538 601 526 586 q 639 759 590 681 q 733 921 688 838 q 749 968 747 943 q 765 1015 751 993 q 892 1178 824 1103 q 1035 1325 960 1254 q 1056 1275 1042 1314 q 1083 1191 1069 1236 q 1108 1105 1097 1146 q 1118 1049 1118 1064 q 1106 971 1118 1008 q 1078 896 1094 933 q 1047 822 1063 858 q 1025 746 1032 785 q 1009 637 1013 692 q 1006 524 1006 582 q 1006 412 1006 468 q 1004 300 1007 356 l 1004 253 l 1004 207 q 1048 164 1024 179 q 1101 140 1072 149 q 1160 129 1129 132 q 1221 125 1190 126 z "},"(":{"ha":5906,"x_min":69,"x_max":5838,"o":"m 5835 63 q 5833 44 5838 56 q 5822 23 5829 33 q 5806 6 5815 13 q 5792 -1 5797 -1 q 5788 -1 5790 -1 q 5785 0 5785 0 q 5772 13 5774 1 q 5572 359 5682 193 q 5335 680 5461 525 q 5071 980 5210 835 q 4785 1263 4932 1125 q 4711 1328 4761 1285 q 4597 1427 4661 1372 q 4463 1542 4533 1482 q 4328 1656 4393 1601 q 4213 1751 4264 1710 q 4135 1813 4161 1793 q 3789 2011 3976 1933 q 3410 2138 3601 2089 q 3317 2158 3372 2146 q 3199 2185 3261 2171 q 3074 2213 3138 2199 q 2960 2238 3011 2226 q 2874 2256 2908 2249 q 2835 2263 2840 2263 l 2660 2263 q 2584 2225 2617 2239 q 2504 2211 2551 2211 l 2479 2211 q 2447 2218 2460 2211 q 2433 2249 2433 2225 q 2437 2270 2433 2261 q 2446 2288 2440 2279 q 2458 2304 2451 2296 q 2472 2325 2465 2313 q 2480 2301 2468 2303 q 2503 2299 2492 2299 q 2513 2299 2506 2299 q 2522 2300 2521 2300 q 2550 2306 2531 2301 q 2592 2317 2569 2311 q 2633 2329 2614 2324 q 2660 2338 2653 2335 q 2717 2422 2681 2376 q 2788 2513 2753 2467 q 2848 2606 2822 2560 q 2874 2694 2874 2653 q 2871 2714 2874 2713 q 2865 2715 2868 2715 q 2860 2724 2863 2715 q 2857 2769 2857 2733 q 2806 2770 2843 2769 q 2728 2772 2769 2771 q 2649 2774 2686 2774 q 2597 2775 2611 2775 q 2534 2769 2581 2772 q 2435 2762 2488 2765 q 2337 2755 2383 2758 q 2272 2750 2290 2751 q 2213 2729 2239 2747 q 2163 2690 2188 2711 q 2111 2653 2139 2669 q 2046 2636 2083 2636 q 2019 2640 2031 2636 q 2008 2661 2008 2643 q 2012 2687 2008 2676 q 2022 2713 2015 2697 q 2027 2692 2025 2697 q 2032 2686 2029 2686 q 2040 2690 2035 2686 q 2053 2693 2044 2693 q 2067 2744 2053 2732 q 2103 2763 2081 2757 q 2153 2779 2125 2769 q 2210 2825 2181 2789 l 2172 3575 q 2171 3591 2172 3578 q 2167 3620 2169 3604 q 2163 3651 2165 3636 q 2160 3675 2161 3667 q 2072 4019 2132 3851 q 1932 4347 2011 4188 q 1760 4660 1853 4507 q 1572 4963 1667 4814 q 1565 4974 1569 4967 q 1553 4988 1560 4981 q 1542 5003 1547 4996 q 1535 5013 1538 5010 l 1235 5313 l 222 6138 q 184 6156 210 6149 q 133 6172 158 6164 q 89 6193 108 6181 q 69 6229 69 6206 q 222 6213 143 6229 q 379 6169 301 6196 q 532 6111 457 6143 q 672 6050 607 6079 q 740 6019 694 6040 q 844 5970 786 5997 q 965 5913 901 5943 q 1088 5855 1029 5882 q 1192 5806 1146 5828 q 1260 5775 1238 5785 q 1319 5753 1288 5768 q 1372 5725 1350 5738 q 1456 5675 1400 5708 q 1584 5599 1513 5642 q 1734 5511 1656 5557 q 1884 5423 1813 5465 q 2013 5348 1956 5381 q 2097 5300 2069 5315 q 2116 5290 2101 5297 q 2147 5274 2131 5282 q 2178 5258 2164 5265 q 2197 5250 2193 5251 q 2431 5081 2319 5168 q 2647 4899 2542 4993 q 2853 4706 2751 4806 q 3060 4500 2956 4606 q 3108 4483 3085 4489 q 3154 4469 3132 4476 q 3197 4449 3176 4461 q 3235 4413 3217 4436 q 3242 4267 3226 4339 q 3286 4124 3257 4194 q 3352 3988 3315 4054 q 3422 3863 3389 3922 q 3452 3811 3431 3846 q 3498 3739 3474 3776 q 3544 3669 3522 3701 q 3572 3625 3565 3636 q 3620 3565 3585 3610 q 3697 3469 3656 3521 q 3777 3369 3739 3417 q 3835 3300 3815 3321 q 3859 3275 3842 3293 q 3897 3237 3876 3257 q 3935 3199 3917 3217 q 3960 3175 3953 3181 q 3972 3174 3963 3175 q 3985 3174 3982 3174 q 4071 3196 4029 3174 q 4147 3238 4113 3218 q 4247 3331 4217 3276 q 4290 3450 4278 3386 q 4305 3584 4301 3514 q 4322 3725 4308 3654 q 4360 3846 4335 3788 q 4410 3963 4385 3904 q 4419 3983 4415 3972 q 4428 4002 4424 3993 q 4442 4017 4433 4011 q 4464 4022 4450 4022 q 4449 3839 4464 3931 q 4433 3656 4433 3747 l 4433 3638 q 4434 3615 4433 3626 q 4435 3596 4435 3604 l 4435 3588 q 4441 3528 4436 3571 q 4452 3437 4446 3485 q 4464 3347 4458 3389 q 4472 3288 4469 3304 q 4485 3246 4485 3267 l 4485 3206 q 4478 2998 4485 3100 q 4472 2788 4472 2896 l 4472 2713 q 4513 2676 4488 2690 q 4560 2650 4538 2661 q 4612 2623 4576 2642 q 4685 2584 4647 2604 q 4756 2547 4724 2564 q 4797 2525 4788 2531 q 4818 2517 4804 2522 q 4835 2513 4832 2513 q 4851 2517 4836 2513 q 4872 2525 4865 2522 q 4884 2531 4875 2526 q 4903 2539 4893 2535 q 4923 2547 4914 2543 q 4935 2550 4932 2550 q 4965 2544 4947 2551 q 4998 2525 4982 2538 q 5025 2497 5014 2513 q 5036 2468 5036 2482 q 5028 2443 5036 2454 q 5010 2423 5019 2432 q 4993 2407 5001 2414 q 4985 2394 4985 2400 l 4985 2388 q 4990 2368 4986 2382 q 4997 2350 4994 2354 l 5272 1725 q 5286 1681 5278 1708 q 5297 1638 5294 1653 l 5785 175 l 5835 63 m 5010 2463 q 5000 2450 5000 2463 q 5010 2438 5000 2438 q 5019 2450 5019 2438 q 5010 2463 5019 2463 m 4067 3039 q 4051 3038 4063 3039 q 4035 3038 4039 3038 q 4078 2985 4049 3021 q 4143 2913 4108 2949 q 4212 2851 4178 2878 q 4267 2824 4246 2824 q 4269 2824 4267 2824 q 4272 2825 4271 2825 q 4256 2898 4275 2860 q 4208 2967 4238 2936 q 4140 3019 4178 2999 q 4067 3039 4103 3039 z "},")":{"ha":7556,"x_min":93,"x_max":7463,"o":"m 3576 126 l 3776 126 q 3755 217 3776 186 q 3702 265 3733 249 q 3633 285 3671 281 q 3565 297 3596 290 q 3512 316 3533 303 q 3490 360 3490 329 q 3491 372 3490 364 q 3492 381 3492 379 q 3518 438 3500 400 q 3559 518 3536 476 q 3608 598 3582 560 q 3661 657 3635 636 q 3703 681 3674 667 q 3763 713 3732 696 q 3820 747 3794 729 q 3853 783 3846 765 q 3883 879 3869 825 q 3917 983 3896 933 q 3972 1066 3938 1032 q 4067 1100 4007 1100 q 4264 1074 4167 1100 q 4449 1001 4361 1049 q 4612 888 4538 954 q 4739 739 4686 821 q 4750 735 4740 735 q 4756 735 4751 735 q 4760 739 4760 736 q 4766 750 4763 740 q 4772 771 4769 760 q 4777 791 4775 782 q 4781 803 4779 800 q 4783 804 4781 803 q 4790 806 4786 806 q 4824 790 4808 806 q 4853 752 4840 774 q 4880 708 4867 731 q 4908 675 4893 686 q 4929 729 4926 708 q 4932 783 4932 750 q 4919 877 4932 832 q 4890 968 4906 922 q 4860 1061 4874 1014 q 4847 1163 4847 1108 l 5006 1163 q 4984 1229 5006 1201 q 4931 1275 4963 1257 q 4862 1301 4899 1293 q 4794 1310 4825 1310 q 4697 1303 4744 1310 q 4601 1288 4649 1296 q 4506 1272 4553 1279 q 4411 1265 4458 1265 q 4396 1266 4407 1265 q 4374 1267 4385 1267 q 4351 1267 4363 1267 q 4336 1268 4340 1268 q 4391 1313 4353 1301 q 4474 1326 4429 1324 q 4561 1332 4518 1329 q 4632 1351 4604 1335 l 4760 1436 l 4768 1436 q 4871 1424 4822 1436 q 4974 1413 4919 1413 q 5072 1432 5028 1413 q 5158 1475 5117 1451 q 5240 1518 5199 1499 q 5331 1538 5282 1538 l 5331 1342 q 5283 1346 5300 1342 q 5251 1357 5265 1350 q 5222 1374 5238 1364 q 5182 1394 5207 1383 q 5164 1398 5176 1397 q 5151 1399 5151 1399 l 5151 1310 l 5097 1332 q 5097 1315 5097 1325 q 5096 1299 5096 1306 q 5108 1229 5096 1260 q 5140 1172 5119 1199 q 5188 1123 5161 1146 q 5246 1078 5215 1100 q 5396 1119 5324 1107 q 5551 1140 5468 1131 l 5551 1394 q 5608 1377 5574 1390 q 5674 1345 5642 1364 q 5730 1306 5707 1326 q 5753 1268 5753 1285 l 5753 1043 q 5664 1052 5697 1043 q 5608 1072 5631 1061 q 5569 1091 5586 1082 q 5531 1100 5553 1100 q 5526 1099 5529 1100 q 5519 1099 5524 1099 q 5510 1074 5517 1092 q 5496 1034 5503 1056 q 5483 992 5489 1013 q 5476 960 5476 971 q 5490 899 5476 931 q 5524 840 5503 867 q 5574 797 5546 814 q 5635 779 5603 779 q 5654 781 5642 779 q 5668 783 5667 783 q 5729 793 5693 788 q 5805 806 5765 799 q 5884 822 5844 813 q 5956 847 5924 832 q 6007 881 5988 861 q 6026 929 6026 901 l 6026 1310 q 6003 1336 6026 1315 q 5944 1388 5979 1357 q 5867 1459 5908 1419 q 5791 1542 5826 1499 q 5732 1628 5756 1585 q 5708 1713 5708 1672 q 5747 1802 5708 1764 q 5838 1868 5786 1840 q 5944 1915 5890 1896 q 6026 1944 5997 1933 l 6069 2239 q 6090 2327 6076 2279 q 6126 2417 6103 2375 q 6183 2486 6149 2458 q 6269 2514 6218 2514 q 6386 2499 6336 2514 q 6492 2450 6436 2483 q 6545 2417 6508 2439 q 6628 2369 6582 2396 q 6724 2312 6674 2342 q 6821 2255 6775 2282 q 6903 2207 6867 2228 q 6956 2176 6939 2186 l 6989 2176 q 7045 2178 7011 2176 q 7112 2188 7079 2181 q 7167 2211 7144 2196 q 7190 2254 7190 2226 l 7190 2314 q 7188 2335 7190 2328 q 7178 2344 7185 2342 q 7157 2347 7171 2347 q 7122 2346 7143 2346 q 7119 2360 7122 2347 q 7112 2387 7115 2372 q 7106 2414 7108 2401 q 7104 2429 7103 2426 q 7131 2457 7115 2449 q 7159 2474 7146 2465 q 7181 2494 7172 2482 q 7190 2535 7190 2507 q 7182 2574 7190 2553 q 7160 2611 7174 2594 q 7129 2639 7147 2628 q 7092 2650 7111 2650 l 7092 2624 q 7085 2578 7092 2601 q 7051 2554 7078 2554 q 7019 2569 7035 2554 q 6990 2606 7003 2585 q 6970 2649 6978 2626 q 6963 2683 6963 2671 l 7358 2683 q 7387 2708 7369 2696 q 7421 2735 7404 2721 q 7450 2765 7438 2750 q 7463 2800 7463 2781 q 7428 2903 7463 2865 q 7344 2962 7393 2940 q 7240 2995 7294 2983 q 7147 3022 7186 3007 q 7106 3039 7133 3026 q 7042 3068 7078 3051 q 6967 3103 7006 3085 q 6892 3138 6928 3121 q 6828 3169 6856 3156 q 6786 3192 6800 3183 l 6344 3192 q 6218 3158 6274 3192 q 6117 3076 6163 3125 q 6035 2968 6072 3026 q 5961 2860 5997 2910 q 5888 2778 5925 2811 q 5806 2744 5850 2744 q 5792 2749 5797 2744 q 5781 2757 5786 2753 q 5769 2765 5775 2761 q 5753 2769 5763 2769 q 5703 2759 5728 2769 q 5654 2737 5679 2749 q 5605 2715 5629 2725 q 5556 2704 5581 2704 q 5421 2711 5488 2704 q 5288 2726 5354 2718 q 5154 2740 5221 2733 q 5019 2747 5088 2747 q 4783 2735 4897 2747 q 4547 2683 4669 2722 q 4385 2619 4467 2656 q 4219 2549 4303 2582 q 4048 2492 4135 2515 q 3872 2469 3961 2469 q 3855 2470 3867 2469 q 3831 2471 3843 2471 q 3806 2472 3818 2471 q 3788 2472 3793 2472 q 3369 2560 3578 2518 q 2953 2635 3161 2603 q 2533 2687 2744 2668 q 2107 2706 2322 2706 l 1999 2706 q 1820 2701 1911 2706 q 1654 2683 1729 2697 l 472 2461 l 93 2461 q 194 2403 131 2421 q 326 2382 257 2386 q 459 2381 394 2378 q 565 2385 524 2385 q 863 2399 715 2385 q 1158 2431 1011 2414 q 1453 2462 1306 2447 q 1753 2476 1601 2476 q 2282 2444 2018 2476 q 2796 2324 2546 2411 l 3788 1967 q 3828 1916 3813 1957 q 3854 1826 3843 1875 q 3874 1733 3865 1778 q 3894 1669 3883 1688 q 3849 1627 3883 1646 q 3770 1590 3815 1608 q 3676 1550 3725 1571 q 3587 1503 3628 1529 q 3519 1442 3546 1476 q 3492 1363 3492 1408 q 3508 1323 3492 1339 q 3547 1294 3524 1307 q 3599 1271 3571 1282 q 3651 1245 3628 1260 q 3691 1211 3675 1231 q 3707 1163 3707 1192 q 3681 1081 3707 1110 q 3619 1029 3656 1051 q 3542 985 3582 1007 q 3472 929 3501 964 q 3406 817 3432 875 q 3365 698 3381 760 q 3340 572 3349 636 q 3322 444 3331 508 l 3271 403 l 3271 169 q 3252 169 3267 171 q 3222 164 3238 167 q 3192 157 3206 161 q 3175 149 3179 153 q 3174 138 3175 149 q 3174 121 3174 128 q 3178 90 3174 110 q 3190 50 3182 69 q 3209 15 3197 31 q 3238 0 3221 0 l 3407 0 q 3438 31 3415 15 q 3488 61 3461 46 q 3539 92 3514 76 q 3576 126 3564 108 z "},"*":{"ha":6007,"x_min":69,"x_max":5938,"o":"m 4097 93 q 4085 115 4097 103 q 4056 140 4072 128 q 4026 160 4040 151 q 4010 172 4013 169 q 3985 462 3990 319 q 3979 754 3979 604 l 3979 807 q 3980 888 3979 846 q 3981 968 3981 929 l 3981 1021 q 4022 1103 4008 1053 q 4046 1206 4035 1154 q 4074 1301 4057 1257 q 4125 1365 4090 1346 q 4174 1244 4158 1313 q 4196 1104 4190 1176 q 4200 962 4201 1032 q 4196 833 4199 892 q 4204 813 4200 829 q 4211 790 4208 796 q 4230 646 4219 721 q 4248 495 4240 571 q 4258 345 4256 419 q 4254 201 4261 271 q 4266 176 4257 186 q 4288 160 4275 167 q 4314 149 4300 153 q 4340 144 4328 146 q 4374 137 4353 142 q 4417 127 4396 132 q 4453 119 4438 122 q 4469 115 4468 115 q 4520 118 4490 113 q 4581 134 4550 124 q 4640 158 4613 144 q 4685 188 4668 172 q 4564 372 4611 274 q 4489 575 4517 469 q 4450 792 4461 681 q 4439 1014 4439 903 q 4449 1138 4439 1076 q 4469 1262 4458 1200 q 4490 1385 4481 1324 q 4500 1510 4500 1447 l 4500 1531 q 4499 1560 4500 1543 q 4499 1589 4499 1576 l 4499 1610 q 4490 1624 4494 1614 q 4483 1639 4485 1635 l 4483 1646 l 4483 1653 q 4495 1667 4486 1654 q 4514 1696 4504 1681 q 4532 1724 4524 1711 q 4542 1739 4540 1736 l 4542 1749 l 4542 1768 l 4542 1786 l 4542 1797 q 4551 1837 4544 1815 q 4565 1880 4557 1858 q 4582 1921 4574 1901 q 4599 1956 4590 1940 l 4599 2343 q 4584 2367 4585 2357 q 4583 2393 4583 2378 q 4602 2475 4583 2426 q 4651 2580 4621 2524 q 4721 2695 4682 2636 q 4798 2809 4760 2754 q 4871 2911 4836 2864 q 4929 2990 4906 2958 q 4944 3008 4938 3003 q 4955 3018 4950 3014 q 4964 3028 4960 3022 q 4972 3047 4968 3033 l 5676 4025 q 5733 4133 5701 4083 q 5792 4240 5764 4182 q 5817 4309 5807 4274 q 5838 4380 5828 4344 q 5861 4449 5849 4415 q 5893 4514 5874 4483 q 5902 4561 5896 4526 q 5915 4635 5908 4596 q 5928 4709 5922 4674 q 5936 4758 5935 4744 l 5936 4769 q 5937 4797 5936 4783 q 5938 4826 5938 4811 l 5938 4851 q 5916 5044 5938 4949 q 5850 5222 5894 5139 q 5738 5370 5806 5304 q 5576 5476 5669 5436 q 5522 5494 5550 5488 q 5467 5505 5494 5500 q 5413 5516 5440 5510 q 5361 5535 5386 5522 q 5335 5535 5353 5535 q 5293 5536 5317 5536 q 5251 5537 5269 5536 q 5225 5538 5233 5538 q 5134 5537 5171 5538 q 5066 5529 5097 5536 q 5003 5507 5035 5522 q 4929 5463 4972 5492 q 4909 5449 4925 5458 q 4871 5426 4893 5439 q 4823 5397 4849 5413 q 4775 5369 4797 5382 q 4736 5346 4753 5356 q 4714 5333 4719 5336 q 4700 5319 4701 5331 q 4693 5334 4697 5324 q 4685 5347 4689 5344 l 4679 5349 q 4674 5348 4676 5349 q 4671 5347 4671 5347 q 4646 5322 4656 5335 q 4613 5304 4636 5308 l 4594 5304 q 4563 5305 4581 5304 q 4532 5306 4544 5306 q 4513 5304 4514 5306 q 4485 5283 4493 5296 q 4469 5256 4476 5269 q 4453 5234 4463 5243 q 4424 5225 4444 5225 q 4433 5181 4424 5201 q 4453 5139 4442 5161 q 4474 5091 4465 5117 q 4483 5032 4483 5065 q 4481 5015 4483 5028 q 4476 4988 4479 5003 q 4472 4961 4474 4974 q 4469 4944 4469 4949 l 4469 4929 q 4485 4889 4469 4906 q 4525 4872 4501 4872 q 4588 4890 4556 4872 q 4652 4937 4619 4908 q 4717 5001 4685 4965 q 4778 5072 4749 5038 q 4835 5138 4808 5107 q 4886 5189 4863 5169 q 5067 5282 4969 5258 q 5272 5306 5165 5306 q 5385 5282 5322 5306 q 5503 5218 5449 5258 q 5596 5126 5558 5178 q 5633 5017 5633 5074 l 5633 4801 q 5599 4724 5613 4763 q 5573 4647 5585 4685 q 5549 4572 5561 4608 q 5518 4500 5536 4535 q 5484 4440 5506 4474 q 5438 4370 5463 4406 q 5390 4301 5414 4335 q 5346 4240 5365 4267 q 5333 4226 5343 4238 q 5318 4213 5322 4215 q 5310 4206 5317 4210 q 5297 4197 5304 4201 q 5283 4189 5290 4193 q 5275 4183 5276 4185 l 5203 4068 q 5193 4058 5201 4067 q 5175 4040 5185 4050 q 5156 4021 5165 4029 q 5144 4011 5147 4013 l 4872 3694 q 4790 3595 4835 3650 q 4697 3482 4746 3540 q 4593 3367 4647 3424 q 4481 3265 4539 3311 q 4363 3188 4424 3219 q 4239 3149 4301 3157 l 3449 3033 q 3354 3007 3400 3025 q 3264 2967 3308 2989 q 3176 2920 3219 2944 q 3089 2875 3133 2896 q 2950 2810 3021 2842 q 2817 2732 2879 2778 q 2695 2631 2754 2683 q 2576 2525 2636 2578 q 2455 2422 2517 2472 q 2328 2329 2393 2372 q 2271 2297 2300 2311 q 2213 2266 2242 2282 q 2159 2231 2185 2250 q 2113 2185 2133 2211 q 2017 2027 2058 2110 q 1925 1869 1976 1944 q 1872 1809 1901 1833 q 1811 1765 1843 1785 q 1746 1726 1779 1744 q 1681 1682 1713 1707 q 1565 1586 1631 1643 q 1428 1476 1500 1529 q 1282 1386 1356 1424 q 1142 1349 1208 1349 q 1071 1360 1104 1349 q 1006 1388 1038 1372 q 943 1417 975 1403 q 875 1438 911 1432 q 806 1449 850 1442 q 715 1463 761 1456 q 633 1476 669 1471 q 588 1481 596 1481 l 569 1481 q 529 1481 550 1481 q 485 1482 508 1482 l 447 1482 q 329 1479 394 1482 q 206 1459 264 1476 q 109 1401 149 1442 q 69 1286 69 1361 q 120 1181 69 1232 q 250 1087 171 1131 q 426 1007 329 1043 q 617 945 524 971 q 790 906 711 919 q 913 892 869 892 q 1061 910 988 892 q 1206 950 1135 928 q 1345 990 1276 972 q 1479 1008 1414 1008 q 1533 1000 1506 1008 q 1585 978 1560 992 q 1635 949 1611 965 q 1681 919 1660 933 l 1694 935 q 1668 956 1683 947 q 1639 976 1653 965 q 1616 999 1625 986 q 1607 1031 1607 1011 q 1631 1068 1607 1056 q 1687 1088 1656 1081 q 1749 1102 1718 1096 q 1796 1121 1781 1108 l 2113 1207 q 2122 1208 2114 1207 q 2135 1210 2129 1210 q 2158 1207 2146 1210 q 2169 1185 2169 1204 q 2163 1156 2169 1169 q 2148 1129 2157 1142 q 2129 1104 2139 1117 q 2113 1078 2119 1092 q 2026 869 2068 974 q 1939 661 1983 765 q 1910 610 1929 638 q 1873 555 1892 583 q 1840 499 1854 526 q 1825 446 1825 471 q 1835 388 1825 415 q 1853 331 1844 360 q 1872 274 1863 294 q 1897 244 1882 254 q 1935 231 1911 233 q 1996 228 1958 228 l 2040 228 q 2088 230 2063 228 q 2134 238 2113 232 q 2170 253 2156 243 q 2185 279 2185 264 q 2173 300 2185 283 q 2147 341 2161 317 q 2122 394 2133 365 q 2110 451 2110 422 q 2125 546 2110 501 q 2163 631 2140 590 q 2215 711 2186 672 q 2269 790 2243 750 q 2281 806 2274 796 q 2294 826 2288 817 q 2307 842 2301 835 q 2313 849 2313 849 l 2328 849 q 2353 718 2338 781 q 2382 593 2368 656 q 2406 466 2396 531 q 2415 331 2415 401 q 2410 282 2415 306 q 2399 235 2406 258 q 2388 190 2393 213 q 2383 144 2383 167 q 2410 78 2383 100 q 2475 49 2438 57 q 2554 41 2513 40 q 2625 42 2596 42 q 2650 44 2638 42 q 2658 72 2663 47 q 2801 86 2733 64 q 2802 92 2801 88 q 2803 100 2803 97 q 2785 163 2803 132 q 2743 225 2767 194 q 2695 285 2719 256 q 2658 344 2671 315 l 2658 381 q 2658 435 2658 408 q 2657 489 2657 461 l 2657 524 q 2660 707 2657 617 q 2667 887 2664 797 q 2673 1067 2671 976 q 2672 1250 2675 1157 q 2756 1279 2711 1278 q 2842 1281 2800 1281 q 3027 1272 2938 1281 q 3213 1264 3117 1264 l 3276 1264 q 3314 1265 3297 1264 q 3349 1267 3331 1265 q 3387 1272 3367 1269 q 3435 1279 3407 1275 q 3502 1297 3468 1286 q 3569 1319 3536 1308 q 3635 1337 3603 1329 q 3701 1344 3668 1344 q 3706 1319 3701 1336 q 3707 1294 3710 1303 q 3684 1181 3694 1232 q 3665 1083 3674 1131 q 3653 983 3657 1035 q 3649 867 3649 932 q 3658 729 3649 796 q 3678 597 3667 663 q 3698 466 3689 532 q 3707 332 3707 400 q 3700 226 3707 274 q 3693 119 3693 178 l 3693 99 q 3707 86 3693 94 l 3881 0 l 3888 0 q 3933 10 3899 0 q 4003 34 3967 19 q 4069 65 4040 49 q 4097 93 4097 81 m 1033 1279 q 974 1228 1013 1247 q 890 1197 935 1208 q 801 1183 846 1186 q 725 1179 757 1179 q 674 1187 711 1179 q 589 1208 636 1194 q 490 1238 542 1221 q 397 1272 439 1254 q 326 1309 354 1290 q 299 1343 299 1328 q 299 1347 299 1344 q 300 1351 300 1350 q 571 1382 428 1382 q 808 1357 692 1382 q 1033 1279 925 1332 m 4585 2343 q 4596 2329 4596 2343 q 4585 2314 4596 2314 q 4574 2329 4574 2314 q 4585 2343 4574 2343 z "},"+":{"ha":2781,"x_min":69,"x_max":2711,"o":"m 1081 647 q 1055 442 1071 543 q 1025 240 1039 342 q 1014 192 1021 213 q 986 156 1007 171 q 976 150 983 153 q 967 144 968 147 q 953 115 957 131 q 947 85 950 100 q 939 55 944 69 q 918 28 933 40 q 858 3 892 8 q 788 -1 824 -1 l 746 -1 q 699 1 721 -1 q 657 8 678 4 q 613 15 636 11 q 561 19 590 18 q 552 33 553 22 q 551 49 551 43 q 565 91 551 75 q 598 119 579 107 q 637 144 617 132 q 668 174 657 156 q 685 221 682 196 q 706 268 689 246 q 742 325 726 299 q 766 378 757 351 q 780 437 775 406 q 785 508 785 468 q 780 549 785 529 q 769 588 775 568 q 759 629 764 608 q 754 675 754 650 q 749 670 751 674 q 744 665 746 667 q 710 613 728 639 q 678 562 693 588 q 655 508 664 536 q 646 449 646 481 q 658 392 646 418 q 669 335 669 365 q 647 252 669 296 q 589 171 624 208 q 512 109 554 133 q 431 85 469 85 q 401 88 417 85 q 371 97 385 90 q 348 115 357 104 q 339 142 339 125 q 351 199 339 172 q 379 251 364 225 q 407 303 394 276 q 419 360 419 329 q 413 425 419 394 q 406 490 406 456 q 415 544 406 518 q 437 597 425 569 q 458 656 449 625 q 468 726 468 688 q 455 802 468 772 q 424 859 442 832 q 391 914 407 886 q 369 983 375 942 q 366 1010 368 989 q 363 1055 364 1031 q 360 1100 361 1079 q 360 1128 360 1121 q 340 1204 356 1171 q 301 1267 324 1238 q 253 1326 279 1297 q 204 1386 228 1354 q 147 1491 172 1435 q 105 1607 122 1547 q 78 1728 88 1667 q 69 1847 69 1789 q 84 2010 69 1932 q 122 2163 99 2088 q 174 2313 144 2238 q 235 2467 204 2388 q 257 2536 247 2497 q 278 2616 267 2575 q 304 2696 289 2657 q 342 2765 319 2735 q 399 2815 365 2796 q 481 2833 433 2833 q 535 2831 503 2833 q 597 2820 568 2829 q 647 2793 626 2811 q 668 2743 668 2775 q 647 2690 668 2711 q 597 2651 625 2668 q 539 2619 568 2635 q 494 2582 510 2603 q 474 2540 488 2568 q 445 2475 461 2511 q 411 2399 429 2439 q 377 2324 393 2360 q 349 2258 361 2288 q 331 2215 336 2229 q 306 2135 311 2176 q 300 2050 300 2093 q 323 1917 300 1985 q 388 1793 346 1849 q 490 1702 431 1738 q 619 1667 549 1667 l 638 1667 q 798 1720 718 1689 q 958 1781 878 1751 q 1121 1830 1039 1810 q 1286 1850 1203 1850 q 1428 1833 1361 1850 q 1553 1761 1494 1815 q 1587 1730 1560 1756 q 1644 1675 1614 1704 q 1702 1621 1675 1646 q 1736 1590 1729 1596 q 1751 1579 1739 1588 q 1776 1561 1763 1571 q 1801 1543 1789 1551 q 1814 1532 1813 1535 l 1901 1444 q 1926 1397 1908 1432 q 1963 1324 1943 1363 q 2000 1251 1982 1286 q 2026 1203 2018 1217 q 2083 1066 2058 1136 q 2137 928 2108 996 q 2203 797 2165 860 q 2296 685 2240 735 q 2308 684 2299 685 q 2319 683 2317 683 q 2435 693 2378 683 q 2551 703 2492 703 l 2575 703 l 2629 703 l 2643 703 l 2654 703 q 2685 699 2667 703 q 2710 685 2704 696 q 2710 683 2710 685 q 2711 678 2711 681 l 2710 675 l 2536 636 q 2527 634 2535 636 q 2510 628 2519 632 q 2494 620 2501 625 q 2488 611 2488 615 q 2507 587 2488 601 q 2551 550 2526 572 q 2594 499 2575 528 q 2614 431 2614 469 q 2587 363 2614 385 q 2521 332 2560 340 q 2440 324 2482 324 q 2367 325 2397 325 q 2288 331 2326 325 q 2212 344 2250 338 q 2135 358 2174 351 q 2060 364 2097 364 l 2060 174 q 2054 164 2060 172 q 2044 156 2049 156 q 1950 110 2004 126 q 1847 94 1896 94 q 1826 101 1835 94 q 1804 107 1817 107 q 1764 101 1783 107 q 1722 94 1744 94 q 1706 96 1719 94 q 1688 97 1693 97 q 1678 108 1685 97 q 1664 133 1671 119 q 1652 160 1657 147 q 1647 176 1647 172 q 1661 213 1647 197 q 1692 242 1675 229 q 1722 263 1708 254 q 1736 278 1736 271 l 1736 443 q 1725 499 1736 469 q 1694 552 1714 528 q 1650 592 1675 576 q 1597 608 1625 608 q 1549 583 1565 608 q 1525 531 1532 557 q 1520 499 1524 522 q 1512 449 1517 475 q 1503 399 1507 422 q 1496 365 1499 375 q 1469 341 1476 357 q 1458 306 1463 325 q 1448 266 1454 286 q 1424 229 1442 246 q 1373 202 1407 213 q 1279 192 1339 192 q 1264 192 1272 192 q 1254 193 1256 193 q 1249 196 1254 193 q 1237 202 1243 199 q 1224 208 1231 206 q 1217 211 1218 211 q 1202 207 1214 211 q 1188 203 1190 203 q 1183 202 1186 203 q 1176 201 1179 201 q 1147 217 1157 201 q 1138 250 1138 232 q 1147 290 1138 272 q 1170 320 1156 307 q 1202 344 1185 333 q 1236 365 1219 356 q 1243 390 1239 372 q 1251 428 1247 408 q 1259 467 1256 449 q 1264 492 1263 485 l 1294 589 l 1294 592 q 1267 615 1294 604 q 1205 632 1239 625 q 1140 643 1171 639 q 1101 647 1108 647 l 1081 647 z "},",":{"ha":6033,"x_min":71,"x_max":5964,"o":"m 1204 53 q 1224 11 1204 24 q 1272 -4 1244 -1 q 1328 -4 1299 -7 q 1376 -1 1357 -1 q 1434 -3 1403 -1 q 1493 1 1465 -4 q 1542 22 1521 7 q 1571 71 1564 38 q 1575 94 1572 75 q 1581 136 1578 114 q 1588 177 1585 158 q 1594 200 1592 196 q 1626 277 1607 235 q 1669 362 1644 319 q 1722 442 1693 404 q 1783 507 1751 481 q 1822 449 1806 492 q 1847 358 1838 407 q 1861 261 1857 308 q 1865 189 1865 214 q 1853 160 1865 172 q 1828 138 1842 149 q 1803 114 1815 126 q 1792 82 1792 101 q 1797 55 1792 63 q 1831 47 1803 47 l 2101 47 q 2134 68 2122 47 q 2152 115 2146 89 q 2160 167 2158 142 q 2161 200 2161 192 q 2155 306 2161 253 q 2149 414 2149 360 q 2147 449 2149 425 q 2147 500 2146 474 q 2153 549 2147 526 q 2172 578 2158 571 l 2374 672 q 2378 673 2375 672 q 2385 674 2382 674 q 2399 672 2392 674 q 2408 661 2406 671 q 2417 562 2413 615 q 2424 454 2421 508 q 2430 347 2428 400 q 2432 247 2432 294 q 2415 202 2432 221 q 2379 165 2399 183 q 2343 128 2360 147 q 2326 82 2326 108 q 2335 63 2326 75 q 2350 47 2343 51 l 2375 47 q 2415 47 2394 47 q 2454 46 2435 46 l 2479 46 q 2528 44 2499 46 q 2591 44 2558 43 q 2653 51 2624 46 q 2704 71 2683 57 q 2758 144 2738 96 q 2792 252 2778 193 q 2815 374 2806 311 q 2838 487 2825 436 q 2868 570 2850 538 q 2915 603 2886 603 q 2929 601 2925 603 q 2940 590 2933 600 l 3117 247 q 3117 235 3117 247 q 3118 217 3118 224 q 3112 169 3118 189 q 3093 133 3106 150 q 3063 99 3081 117 q 3022 58 3044 82 l 3022 35 q 3032 33 3022 35 q 3055 28 3042 31 q 3082 25 3068 26 q 3106 24 3096 24 l 3119 24 q 3149 23 3133 24 q 3182 22 3165 22 l 3211 22 q 3245 22 3222 22 q 3296 21 3268 21 q 3354 22 3324 21 q 3411 28 3385 24 q 3457 39 3438 32 q 3483 58 3476 46 l 3483 79 q 3484 110 3483 94 q 3485 139 3485 125 l 3485 160 q 3476 272 3485 219 q 3455 376 3468 325 q 3427 480 3442 428 q 3400 590 3413 532 l 3400 618 q 3431 691 3400 663 q 3507 719 3463 719 q 3569 706 3536 719 q 3625 672 3603 693 q 3677 620 3639 657 q 3759 542 3715 583 q 3842 463 3803 500 q 3896 413 3881 426 q 3918 396 3901 410 q 3956 365 3935 382 q 3996 331 3976 347 q 4026 307 4015 315 q 4065 281 4043 294 q 4111 253 4088 268 q 4156 222 4135 239 q 4192 189 4178 206 l 4344 118 q 4360 105 4350 103 q 4381 106 4371 107 q 4394 104 4385 106 q 4415 101 4404 103 q 4437 98 4426 100 q 4451 94 4447 96 l 4557 71 q 4578 67 4564 69 q 4607 63 4592 65 q 4635 60 4622 61 q 4651 58 4647 58 l 4667 58 l 4732 58 l 4763 58 q 5070 86 4931 58 q 5320 181 5210 114 q 5512 358 5431 247 q 5643 638 5593 469 q 5652 688 5650 663 q 5657 739 5654 714 q 5667 789 5660 764 q 5690 838 5674 814 q 5730 874 5704 858 q 5786 901 5756 889 q 5849 926 5817 914 q 5906 953 5881 938 q 5948 992 5932 969 q 5964 1046 5964 1014 q 5954 1078 5964 1065 q 5930 1098 5944 1090 q 5898 1108 5915 1106 q 5867 1111 5881 1111 q 5743 1085 5804 1111 q 5631 1015 5682 1058 q 5543 916 5581 971 q 5490 803 5506 861 q 5484 776 5489 797 q 5473 731 5479 756 q 5461 686 5467 707 q 5454 661 5456 665 q 5374 505 5422 576 q 5260 381 5325 433 q 5117 300 5196 329 q 4949 271 5039 271 q 4718 310 4817 271 q 4543 415 4619 349 q 4408 568 4467 481 q 4298 753 4349 656 q 4199 951 4247 850 q 4097 1144 4151 1051 q 3935 1413 4021 1278 q 3752 1671 3850 1547 q 3543 1901 3654 1794 q 3303 2087 3432 2008 q 3027 2210 3175 2165 q 2710 2256 2879 2256 q 2317 2205 2506 2256 q 1949 2054 2129 2154 q 1817 1958 1882 2017 q 1684 1845 1753 1900 q 1541 1751 1615 1790 q 1381 1711 1467 1711 q 1240 1764 1299 1711 q 1134 1903 1181 1817 q 1048 2101 1088 1990 q 967 2326 1008 2211 q 875 2551 925 2440 q 756 2748 825 2661 q 596 2888 688 2835 q 378 2940 504 2940 q 276 2928 329 2940 q 176 2891 222 2917 q 101 2824 131 2865 q 71 2725 71 2783 q 72 2694 71 2710 q 76 2668 72 2679 q 90 2650 81 2657 q 119 2643 100 2643 q 156 2647 142 2643 q 189 2668 169 2651 l 189 2663 q 183 2624 189 2642 q 176 2585 176 2607 q 177 2567 176 2581 q 178 2550 178 2553 q 194 2540 188 2542 q 213 2538 201 2538 q 271 2554 244 2538 q 323 2592 297 2571 q 376 2629 349 2613 q 438 2646 404 2646 q 508 2617 479 2646 q 557 2547 538 2588 q 588 2460 576 2506 q 603 2385 599 2415 q 606 2354 604 2378 q 610 2299 608 2331 q 615 2231 613 2267 q 619 2164 617 2196 q 623 2108 621 2132 q 626 2078 625 2085 q 633 2032 628 2065 q 643 1961 638 1999 q 653 1890 649 1924 q 661 1842 658 1856 q 754 1481 697 1657 q 910 1144 811 1304 q 1026 987 964 1056 q 1160 864 1089 918 q 1312 766 1231 810 q 1488 685 1393 722 q 1500 673 1499 681 q 1501 656 1501 665 q 1501 647 1501 653 q 1500 638 1500 640 q 1479 590 1493 622 q 1448 517 1465 558 q 1412 431 1431 476 q 1376 345 1393 386 q 1344 272 1358 304 q 1322 224 1329 239 q 1292 179 1311 197 q 1253 143 1272 161 q 1219 104 1233 125 q 1204 53 1204 83 z "},"-":{"ha":3722,"x_min":69,"x_max":3653,"o":"m 1757 36 q 1773 8 1757 17 q 1810 -2 1789 0 q 1851 -3 1831 -4 q 1881 -1 1871 -1 l 1897 -1 q 1922 -1 1908 -1 q 1947 0 1935 0 l 1963 0 q 1973 8 1967 1 q 1982 19 1979 14 q 1988 49 1983 28 q 1999 93 1993 69 q 2011 138 2006 117 q 2019 167 2017 158 q 2026 161 2021 161 q 2036 167 2035 161 q 2041 176 2038 168 q 2048 192 2044 183 q 2053 209 2051 201 q 2056 221 2056 217 q 1999 342 2022 278 q 1958 472 1976 406 q 1924 605 1940 538 q 1890 735 1908 672 q 1858 774 1882 758 q 1808 807 1833 790 q 1762 843 1782 824 q 1742 893 1742 863 q 1766 954 1742 933 q 1824 983 1790 975 q 1894 992 1858 992 q 1956 993 1931 993 q 2143 984 2050 993 q 2329 963 2236 975 q 2516 942 2422 951 q 2706 933 2610 933 q 2828 942 2768 933 q 2947 963 2888 951 q 3065 984 3006 975 q 3188 993 3125 993 q 3292 978 3243 993 q 3390 945 3342 963 q 3486 913 3438 928 q 3589 897 3535 897 q 3621 899 3597 897 q 3653 901 3644 901 l 3635 918 q 3601 935 3633 919 q 3524 972 3568 951 q 3435 1014 3481 993 q 3360 1047 3389 1035 q 3160 1099 3263 1090 q 2956 1107 3058 1107 q 2751 1117 2853 1107 q 2551 1175 2649 1128 l 1853 1378 q 1844 1382 1851 1378 q 1828 1392 1838 1386 q 1811 1403 1819 1397 q 1799 1415 1803 1410 q 1781 1427 1794 1417 q 1752 1451 1768 1438 q 1723 1475 1736 1464 q 1706 1489 1710 1486 q 1594 1545 1647 1524 q 1486 1579 1540 1567 q 1374 1596 1432 1592 q 1247 1600 1315 1600 q 1035 1583 1126 1600 q 865 1531 943 1567 q 712 1440 786 1496 q 550 1306 638 1385 q 544 1303 547 1306 q 540 1301 542 1301 q 504 1325 521 1301 q 471 1383 488 1349 q 435 1460 454 1418 q 394 1536 417 1501 q 345 1594 372 1571 q 283 1618 318 1618 q 203 1577 238 1618 q 144 1481 169 1536 q 101 1371 118 1426 q 72 1286 83 1315 q 71 1276 72 1285 q 69 1260 69 1267 q 76 1213 69 1240 q 95 1160 82 1185 q 128 1117 108 1135 q 172 1100 147 1100 q 209 1113 188 1100 q 251 1143 231 1126 q 289 1175 272 1160 q 310 1194 306 1190 q 314 1195 310 1194 q 319 1196 318 1196 q 324 1195 321 1196 q 329 1194 326 1194 q 397 1129 357 1174 q 479 1039 436 1085 q 565 958 522 993 q 640 918 607 922 q 566 888 613 901 q 474 860 519 875 q 396 824 429 844 q 363 771 363 803 q 369 749 363 757 q 386 738 376 742 q 408 734 396 735 q 429 733 419 733 q 522 749 475 733 q 617 783 569 764 q 713 821 665 803 q 807 844 761 839 q 831 843 814 844 q 868 840 849 842 q 906 836 888 838 q 932 835 924 835 q 922 755 932 794 q 901 676 913 715 q 877 596 889 636 q 861 514 865 556 q 885 517 876 519 q 901 509 894 514 q 915 499 907 504 q 935 493 922 493 q 967 501 954 493 q 990 533 979 510 q 989 567 989 539 q 994 640 989 596 q 1010 726 999 685 q 1038 798 1021 768 q 1082 828 1056 828 l 1285 828 q 1292 814 1286 828 q 1301 790 1299 800 q 1357 715 1319 743 q 1440 669 1394 688 q 1532 638 1485 650 q 1618 610 1579 625 q 1682 573 1657 594 q 1707 514 1707 551 q 1706 505 1707 511 q 1706 497 1706 499 q 1688 447 1697 469 q 1670 403 1678 425 q 1657 357 1663 381 q 1651 304 1651 333 q 1669 238 1651 271 q 1706 183 1686 206 q 1728 194 1710 188 q 1766 210 1746 201 q 1801 226 1786 218 q 1817 240 1817 233 l 1817 258 l 1817 294 l 1817 329 l 1817 350 q 1819 367 1817 354 q 1826 394 1822 379 q 1832 423 1829 410 q 1835 440 1835 436 q 1833 450 1835 443 q 1832 460 1832 457 l 1853 460 q 1872 431 1861 460 q 1890 367 1882 403 q 1904 297 1899 331 q 1910 254 1910 264 q 1886 168 1910 204 q 1833 106 1863 132 q 1781 64 1804 81 q 1757 36 1757 47 z "},".":{"ha":3829,"x_min":69,"x_max":3760,"o":"m 1864 219 q 1881 319 1864 274 q 1920 408 1897 365 q 1969 492 1943 450 q 2014 582 1994 535 q 2023 615 2018 593 q 2033 659 2028 636 q 2046 702 2039 682 q 2063 732 2053 722 l 2179 860 l 2179 885 q 2172 947 2179 924 q 2153 988 2164 971 q 2133 1024 2143 1006 q 2117 1071 2122 1042 q 2115 1092 2117 1075 q 2113 1128 2114 1108 q 2111 1165 2113 1147 q 2110 1188 2110 1182 q 2092 1249 2106 1213 q 2063 1321 2078 1285 q 2037 1388 2049 1357 q 2025 1438 2025 1419 q 2035 1468 2025 1453 q 2058 1499 2046 1483 q 2078 1528 2069 1514 q 2083 1558 2086 1543 q 2073 1572 2081 1563 q 2063 1583 2065 1581 l 2083 1606 q 2072 1615 2074 1608 q 2071 1629 2071 1621 q 2076 1656 2071 1639 q 2092 1690 2082 1674 q 2115 1717 2101 1707 q 2143 1722 2128 1726 q 2130 1738 2132 1735 q 2130 1744 2128 1742 q 2133 1750 2132 1746 q 2131 1768 2135 1754 q 2106 1796 2124 1788 q 2083 1815 2089 1804 q 2074 1847 2078 1828 q 2066 1889 2069 1867 q 2058 1933 2063 1911 q 2046 1974 2053 1956 q 2031 2006 2040 1994 q 2008 2024 2021 2017 q 1982 2035 1996 2031 q 1954 2050 1968 2040 q 1940 2067 1951 2051 q 1921 2094 1928 2083 q 1894 2122 1917 2103 q 1847 2163 1872 2142 q 1802 2203 1822 2185 q 1782 2228 1782 2222 l 1782 2233 q 1787 2240 1783 2238 q 1793 2243 1790 2243 q 1763 2264 1783 2246 q 1715 2307 1742 2282 q 1661 2361 1689 2332 q 1610 2415 1633 2390 q 1574 2458 1588 2440 q 1561 2478 1560 2475 q 1369 2674 1460 2574 q 1178 2874 1278 2775 q 1145 2894 1168 2879 q 1097 2925 1122 2908 q 1051 2957 1072 2942 q 1025 2978 1029 2972 l 838 3071 q 792 3103 829 3083 q 712 3141 756 3122 q 628 3176 668 3160 q 571 3200 588 3193 q 329 3285 450 3243 q 83 3363 208 3326 q 69 3383 69 3369 l 106 3383 q 135 3380 111 3383 q 192 3370 158 3376 q 267 3356 226 3364 q 348 3341 308 3349 q 422 3326 388 3333 q 479 3315 457 3319 q 517 3303 483 3313 q 594 3281 551 3293 q 679 3255 636 3268 q 746 3233 722 3242 q 815 3206 768 3225 q 920 3160 863 3186 q 1040 3105 978 3133 q 1155 3051 1103 3076 q 1242 3005 1207 3025 q 1281 2978 1276 2985 q 1324 2949 1294 2968 q 1392 2906 1354 2931 q 1471 2854 1429 2881 q 1551 2803 1513 2828 q 1619 2760 1589 2779 q 1665 2735 1650 2742 q 1701 2714 1675 2728 q 1758 2685 1728 2700 q 1815 2658 1788 2671 q 1853 2639 1842 2644 q 1872 2644 1863 2646 q 1886 2631 1882 2642 q 1891 2642 1888 2633 q 1897 2653 1894 2650 q 1899 2654 1897 2653 q 1904 2656 1901 2656 q 1914 2650 1904 2656 q 1938 2637 1924 2644 q 1969 2620 1953 2629 q 1999 2604 1985 2611 q 2021 2595 2013 2597 q 2032 2593 2029 2593 l 2044 2593 q 2053 2592 2051 2593 q 2063 2585 2056 2592 l 2071 2606 q 2097 2593 2082 2604 q 2128 2569 2111 2582 q 2168 2547 2146 2557 q 2218 2536 2190 2536 q 2249 2544 2239 2536 q 2265 2564 2258 2553 q 2280 2587 2272 2575 q 2303 2606 2288 2599 q 2319 2610 2307 2608 q 2342 2615 2332 2613 q 2349 2617 2347 2615 q 2351 2618 2351 2618 q 2357 2628 2354 2618 q 2363 2639 2360 2639 q 2385 2640 2371 2643 q 2413 2633 2399 2638 q 2442 2623 2428 2628 q 2464 2618 2456 2618 q 2481 2633 2464 2618 q 2521 2667 2499 2649 q 2565 2703 2543 2686 q 2596 2724 2586 2721 q 2611 2728 2600 2725 q 2635 2734 2622 2731 q 2661 2740 2649 2738 q 2678 2746 2674 2743 l 2690 2768 q 2694 2762 2690 2765 q 2699 2757 2697 2758 q 2719 2742 2706 2750 q 2736 2735 2733 2735 q 2747 2738 2739 2735 q 2760 2746 2754 2742 q 2816 2710 2783 2733 q 2883 2663 2849 2686 q 2952 2622 2918 2639 q 3013 2604 2986 2604 q 3035 2616 3032 2604 q 3038 2647 3038 2628 l 3038 2653 q 3031 2660 3036 2656 q 3026 2665 3026 2665 q 3032 2681 3026 2668 q 3038 2700 3038 2694 l 3038 2710 q 3038 2733 3038 2721 q 3039 2760 3039 2744 l 3039 2781 l 3039 2794 q 3038 2819 3039 2806 q 3038 2844 3038 2833 l 3038 2863 q 3031 2868 3035 2864 q 3026 2874 3026 2872 l 3026 2878 l 3026 2885 l 3038 2967 l 3038 2978 q 3032 3014 3038 2999 q 3017 3042 3026 3029 q 2996 3067 3007 3056 q 2974 3094 2985 3079 l 2974 3058 l 2933 3142 l 2910 3129 l 2910 3175 q 2899 3146 2904 3160 q 2888 3117 2894 3132 q 2882 3122 2888 3118 q 2870 3131 2876 3126 q 2858 3138 2864 3135 q 2853 3142 2853 3142 q 2841 3135 2850 3142 q 2828 3129 2832 3129 q 2824 3134 2828 3129 q 2817 3142 2819 3139 l 2769 3211 l 2769 3151 q 2756 3166 2763 3157 q 2744 3184 2750 3175 q 2734 3201 2738 3193 q 2731 3211 2731 3208 l 2731 3175 q 2724 3188 2728 3178 q 2716 3210 2721 3199 q 2706 3232 2711 3222 q 2699 3244 2701 3242 q 2653 3287 2688 3271 q 2569 3313 2618 3303 q 2460 3328 2519 3322 q 2340 3338 2400 3333 q 2223 3349 2279 3343 q 2122 3364 2167 3354 q 2051 3390 2078 3374 q 2025 3431 2025 3406 q 2026 3460 2025 3447 q 2036 3492 2026 3474 q 2065 3491 2043 3492 q 2113 3490 2088 3490 q 2160 3491 2138 3490 q 2190 3492 2182 3492 q 2206 3496 2193 3492 q 2225 3501 2219 3500 q 2196 3533 2210 3515 q 2182 3571 2182 3551 q 2223 3567 2204 3571 q 2260 3560 2242 3564 q 2299 3552 2279 3556 q 2342 3549 2318 3549 l 2404 3549 q 2467 3560 2442 3549 q 2467 3563 2467 3561 q 2468 3568 2468 3564 q 2435 3598 2468 3585 q 2353 3625 2403 3611 q 2247 3658 2304 3639 q 2140 3703 2189 3676 q 2058 3766 2090 3729 q 2025 3856 2025 3803 q 2044 3915 2025 3893 q 2090 3949 2063 3938 q 2148 3965 2117 3961 q 2204 3968 2179 3968 l 2217 3968 q 2233 3967 2224 3968 q 2249 3967 2242 3967 l 2258 3967 q 2387 3925 2322 3946 q 2517 3888 2451 3904 q 2649 3860 2582 3871 q 2785 3850 2717 3850 q 2805 3858 2796 3850 q 2822 3873 2814 3865 q 2840 3885 2831 3881 q 2864 3886 2850 3890 l 2933 3956 l 2944 3956 l 2944 3875 q 2956 3878 2947 3875 q 2967 3886 2965 3882 l 3038 3956 l 3051 3956 q 3050 3951 3051 3956 q 3049 3943 3049 3946 q 3044 3926 3049 3940 q 3038 3908 3040 3913 l 3094 3967 l 3107 3967 l 3107 3943 l 3131 3956 l 3131 3950 l 3131 3943 q 3125 3926 3128 3940 q 3118 3908 3122 3913 l 3136 3908 q 3134 3903 3136 3908 q 3131 3897 3132 3897 q 3120 3874 3128 3890 q 3107 3850 3113 3857 l 3118 3840 q 3087 3808 3107 3824 q 3049 3781 3067 3793 l 3142 3781 q 3120 3765 3135 3771 q 3106 3751 3106 3760 l 3107 3749 q 3140 3733 3121 3742 q 3165 3706 3158 3725 l 3118 3706 q 3128 3694 3121 3703 q 3142 3678 3135 3686 q 3156 3662 3149 3669 q 3165 3651 3163 3654 q 3263 3519 3219 3603 q 3337 3342 3306 3436 q 3387 3151 3368 3247 q 3411 2978 3406 3054 q 3416 2955 3413 2969 q 3424 2925 3419 2940 q 3431 2894 3428 2910 q 3433 2867 3433 2878 l 3433 2863 q 3428 2854 3432 2858 q 3422 2850 3425 2850 l 3422 2840 l 3422 2808 l 3422 2796 q 3428 2744 3422 2769 q 3433 2693 3433 2719 l 3433 2688 q 3427 2676 3432 2683 q 3422 2665 3422 2668 q 3435 2577 3422 2619 q 3449 2490 3449 2535 l 3439 2490 q 3443 2292 3439 2392 q 3449 2281 3443 2290 q 3458 2268 3456 2272 q 3459 2263 3458 2268 q 3460 2256 3460 2258 q 3440 2258 3446 2256 q 3422 2268 3433 2261 l 3422 2261 q 3431 2224 3422 2242 q 3439 2182 3439 2206 q 3407 2199 3419 2182 q 3389 2221 3394 2215 l 3389 2215 l 3389 2210 q 3390 2198 3389 2207 q 3392 2179 3390 2189 q 3395 2162 3393 2169 q 3399 2154 3397 2154 q 3465 2156 3447 2165 q 3491 2128 3483 2147 q 3506 2087 3499 2110 q 3539 2050 3513 2064 q 3572 2105 3554 2090 q 3631 2119 3590 2119 q 3669 2117 3650 2119 q 3700 2094 3688 2114 q 3718 2022 3708 2057 q 3738 1950 3728 1986 q 3753 1878 3747 1914 q 3760 1804 3760 1842 l 3760 1789 q 3759 1767 3760 1778 q 3758 1747 3758 1757 l 3758 1733 q 3732 1674 3747 1706 q 3690 1629 3717 1643 q 3640 1601 3668 1615 q 3588 1570 3613 1588 q 3546 1530 3563 1553 q 3529 1476 3529 1507 l 3528 1476 l 3528 1442 l 3503 1456 l 3503 1447 q 3510 1423 3503 1433 q 3518 1396 3518 1413 l 3492 1396 q 3499 1385 3494 1393 q 3503 1371 3503 1378 q 3503 1367 3503 1368 q 3504 1360 3504 1365 l 3472 1360 q 3476 1350 3472 1358 q 3481 1333 3479 1342 q 3478 1317 3482 1324 q 3458 1313 3474 1310 q 3468 1295 3464 1303 q 3472 1276 3472 1288 q 3443 1286 3457 1276 q 3422 1303 3429 1296 l 3422 1267 q 3406 1272 3414 1267 q 3392 1285 3399 1278 q 3382 1301 3386 1293 q 3375 1313 3378 1308 l 3375 1276 q 3339 1296 3354 1276 q 3313 1340 3324 1315 q 3291 1389 3301 1365 q 3271 1421 3281 1413 q 3263 1419 3268 1421 q 3251 1413 3257 1417 q 3240 1408 3244 1410 q 3233 1406 3235 1406 q 3234 1383 3233 1390 q 3235 1368 3235 1375 q 3234 1355 3235 1361 q 3226 1326 3233 1349 q 3214 1338 3224 1333 q 3201 1338 3204 1342 q 3181 1318 3190 1332 q 3162 1290 3172 1304 q 3140 1266 3151 1276 q 3114 1256 3128 1256 q 3101 1262 3107 1256 q 3089 1276 3094 1268 q 3079 1292 3083 1285 q 3072 1303 3075 1300 l 3068 1303 l 3061 1303 l 3049 1290 l 3044 1290 q 3027 1303 3032 1290 q 3015 1331 3022 1317 q 2995 1352 3008 1344 q 2956 1349 2982 1360 l 2933 1421 l 2922 1421 l 2922 1524 l 2899 1536 q 2873 1449 2885 1489 q 2847 1369 2861 1408 q 2815 1292 2833 1331 q 2769 1208 2796 1253 q 2722 1152 2750 1178 q 2678 1093 2694 1126 q 2663 1041 2667 1069 q 2644 990 2658 1013 q 2631 983 2642 985 q 2618 978 2621 981 q 2574 914 2594 951 q 2528 849 2553 876 q 2417 746 2474 794 q 2310 647 2361 697 q 2215 538 2258 596 q 2143 407 2171 481 q 2149 376 2144 399 q 2160 331 2154 354 q 2172 286 2167 307 q 2179 257 2176 265 q 2200 205 2188 225 q 2226 170 2213 185 q 2252 142 2239 156 q 2276 111 2265 129 q 2292 67 2286 93 q 2299 0 2299 42 l 2036 0 q 2000 14 2013 0 q 1980 47 1988 28 q 1967 85 1972 65 q 1954 118 1963 106 q 1934 133 1949 126 q 1903 148 1919 139 q 1876 174 1888 157 q 1864 219 1864 190 m 2268 1378 q 2278 1324 2268 1353 q 2302 1268 2289 1296 q 2329 1215 2315 1240 q 2351 1174 2343 1190 q 2365 1219 2353 1199 q 2390 1260 2376 1240 q 2413 1299 2403 1279 q 2424 1344 2424 1319 q 2417 1367 2424 1363 q 2388 1371 2411 1371 q 2376 1369 2385 1371 q 2358 1365 2368 1367 q 2340 1361 2349 1363 q 2328 1360 2331 1360 q 2312 1365 2326 1360 q 2293 1371 2297 1371 q 2281 1375 2290 1372 q 2268 1378 2271 1378 m 3118 1290 q 3111 1279 3111 1290 q 3118 1268 3111 1268 q 3128 1279 3128 1268 q 3118 1290 3128 1290 m 3154 1313 q 3144 1303 3144 1313 q 3154 1290 3144 1290 q 3164 1303 3164 1290 q 3154 1313 3164 1313 m 3411 1326 q 3404 1321 3404 1328 q 3410 1315 3404 1313 q 3415 1321 3415 1318 q 3411 1326 3415 1325 m 3189 1360 q 3181 1349 3181 1360 q 3189 1338 3181 1338 q 3197 1349 3197 1338 q 3189 1360 3197 1360 m 3176 1385 q 3169 1371 3169 1385 q 3176 1360 3169 1360 q 3188 1371 3188 1360 q 3176 1385 3188 1385 m 3226 1385 q 3215 1371 3215 1385 q 3217 1364 3215 1368 q 3226 1360 3218 1360 q 3233 1371 3233 1360 q 3226 1385 3233 1385 m 3481 1421 q 3472 1406 3472 1421 q 3481 1396 3472 1396 q 3490 1406 3490 1396 q 3481 1421 3490 1421 m 3246 1456 q 3240 1442 3240 1456 q 3246 1431 3240 1431 q 3257 1442 3257 1431 q 3246 1456 3257 1456 m 3492 1476 q 3483 1468 3483 1476 q 3492 1456 3483 1456 q 3501 1468 3501 1456 q 3492 1476 3501 1476 m 3515 1501 q 3504 1490 3504 1501 q 3515 1476 3504 1476 q 3525 1490 3525 1476 q 3515 1501 3525 1501 m 3118 1815 q 3111 1788 3117 1794 q 3099 1776 3106 1781 q 3088 1764 3093 1772 q 3083 1733 3083 1756 l 3083 1726 q 3084 1716 3083 1721 q 3085 1704 3085 1711 l 3085 1699 q 3095 1706 3089 1700 q 3109 1720 3101 1713 q 3122 1735 3117 1728 q 3131 1744 3128 1742 q 3131 1749 3131 1744 q 3132 1756 3132 1753 q 3131 1763 3132 1758 q 3131 1768 3131 1768 q 3125 1792 3128 1775 q 3118 1815 3122 1808 m 3433 1885 l 3422 1885 q 3419 1880 3422 1885 q 3413 1867 3417 1875 q 3404 1851 3408 1860 q 3399 1838 3400 1843 q 3394 1826 3397 1835 q 3387 1805 3390 1817 q 3380 1783 3383 1793 q 3375 1768 3376 1772 l 3375 1763 l 3375 1756 q 3408 1817 3394 1786 q 3433 1885 3421 1849 m 3411 2292 q 3401 2281 3401 2292 q 3411 2268 3401 2268 q 3421 2281 3421 2268 q 3411 2292 3421 2292 m 2001 2606 q 1993 2593 1993 2606 q 2001 2585 1993 2585 q 2011 2593 2011 2585 q 2001 2606 2011 2606 m 3107 3722 q 3097 3710 3097 3722 q 3101 3703 3097 3707 q 3107 3699 3104 3699 q 3115 3703 3114 3699 q 3115 3710 3115 3707 q 3107 3722 3115 3722 z "},"/":{"ha":4483,"x_min":69,"x_max":4414,"o":"m 1843 69 q 1859 117 1843 94 q 1896 163 1875 140 q 1935 209 1917 185 q 1957 263 1953 233 q 1955 276 1957 265 q 1951 300 1953 288 q 1947 324 1949 313 q 1944 338 1944 335 l 1944 346 q 1944 366 1944 354 q 1943 389 1943 378 l 1943 406 q 1951 488 1943 449 q 1958 568 1958 528 q 1958 584 1958 572 q 1957 600 1957 596 q 1878 694 1913 649 q 1813 785 1843 739 q 1755 881 1783 832 q 1694 988 1726 931 l 1682 1000 q 1651 1021 1665 1013 q 1623 1039 1636 1029 q 1597 1063 1610 1049 q 1569 1100 1583 1076 q 1561 1121 1567 1104 q 1549 1156 1556 1138 q 1538 1192 1543 1175 q 1532 1213 1533 1208 q 1525 1226 1529 1217 q 1519 1238 1521 1236 q 1517 1238 1519 1238 q 1513 1239 1515 1239 l 1507 1238 q 1369 1169 1436 1204 q 1244 1075 1303 1133 q 1240 1068 1243 1074 q 1232 1056 1236 1063 q 1224 1044 1228 1050 q 1219 1038 1221 1039 q 1195 1012 1213 1029 q 1160 977 1178 994 q 1126 944 1142 960 q 1107 925 1111 929 q 1077 910 1104 922 q 1011 881 1050 897 q 927 844 972 864 q 844 805 882 824 q 781 772 806 786 q 756 751 756 757 q 760 731 756 740 q 770 712 765 721 q 780 693 775 703 q 785 672 785 683 q 702 683 740 672 q 619 694 664 694 l 619 647 q 607 648 617 647 q 594 650 597 649 q 582 657 592 651 q 569 663 572 663 q 533 648 553 658 q 491 627 513 638 q 448 608 469 617 q 407 600 426 600 q 391 613 400 600 q 374 644 382 626 q 358 677 365 661 q 344 700 350 693 l 282 763 l 282 781 q 288 822 282 803 q 294 864 294 842 q 278 891 294 881 q 242 908 263 901 q 200 919 221 915 q 169 925 179 922 q 149 928 163 926 q 119 933 135 931 q 89 936 103 935 q 69 938 75 938 l 69 1013 q 85 1024 69 1021 q 107 1026 100 1026 q 169 1013 139 1026 q 232 999 199 999 q 244 999 235 999 q 257 1000 254 1000 q 225 1010 242 1004 q 194 1025 208 1017 q 194 1041 194 1029 q 193 1056 193 1053 q 199 1092 193 1083 q 233 1101 204 1101 q 265 1093 250 1101 q 294 1076 279 1085 q 323 1058 308 1067 q 357 1050 338 1050 q 369 1060 368 1050 q 371 1079 371 1071 l 371 1088 q 353 1131 371 1115 q 313 1161 335 1147 q 274 1191 292 1175 q 256 1235 256 1207 q 260 1267 256 1257 q 288 1276 265 1276 q 332 1263 314 1276 q 366 1231 350 1249 q 400 1200 382 1214 q 444 1186 418 1186 q 471 1188 458 1186 q 494 1200 483 1189 q 468 1222 483 1213 q 439 1241 453 1231 q 415 1265 425 1251 q 406 1299 406 1278 q 413 1332 406 1325 q 449 1339 421 1339 q 460 1338 451 1339 q 469 1338 468 1338 l 557 1263 l 569 1263 q 583 1272 578 1263 q 592 1293 589 1281 q 595 1318 594 1306 q 596 1338 596 1331 q 572 1413 596 1383 q 519 1466 547 1443 q 466 1509 490 1489 q 442 1556 442 1529 q 458 1599 442 1582 q 500 1615 475 1615 q 510 1615 503 1615 q 519 1613 517 1614 q 540 1591 525 1606 q 574 1561 556 1576 q 608 1532 592 1546 q 632 1513 625 1518 q 646 1501 636 1508 q 667 1488 656 1494 q 689 1478 678 1482 q 707 1475 700 1474 q 728 1488 719 1476 q 744 1513 738 1499 q 755 1543 751 1528 q 758 1568 758 1558 q 754 1601 758 1586 q 744 1631 750 1617 q 735 1661 739 1646 q 731 1694 731 1676 q 744 1740 731 1726 q 788 1753 757 1753 q 826 1742 811 1753 q 849 1715 840 1732 q 861 1678 857 1699 q 869 1638 865 1657 q 882 1644 872 1640 q 894 1650 892 1649 q 950 1685 919 1660 q 1014 1743 981 1710 q 1081 1815 1047 1776 q 1144 1891 1114 1854 q 1201 1960 1175 1928 q 1244 2013 1226 1992 q 1263 2032 1249 2017 q 1282 2050 1276 2047 q 1419 2148 1353 2103 q 1557 2238 1485 2193 q 1648 2303 1606 2268 q 1733 2368 1690 2338 q 1824 2419 1776 2399 q 1931 2439 1871 2439 q 2040 2428 1986 2439 q 2147 2406 2093 2418 q 2253 2384 2200 2394 q 2364 2374 2307 2374 q 2469 2375 2418 2374 q 2570 2380 2519 2376 q 2673 2388 2621 2383 q 2782 2400 2725 2393 q 2809 2407 2788 2401 q 2856 2419 2831 2413 q 2904 2431 2882 2425 q 2932 2438 2926 2436 q 2969 2440 2939 2439 q 3032 2444 2999 2442 q 3095 2447 3065 2446 q 3132 2450 3125 2449 q 3152 2456 3139 2451 q 3178 2467 3165 2461 q 3203 2478 3192 2472 q 3219 2488 3215 2485 l 3432 2488 l 3644 2363 q 3657 2351 3647 2360 q 3669 2338 3667 2342 q 3690 2308 3674 2332 q 3726 2256 3707 2283 q 3761 2205 3744 2229 q 3782 2175 3778 2181 q 3800 2161 3785 2172 q 3832 2138 3815 2150 q 3864 2114 3849 2125 q 3882 2100 3879 2103 q 3915 2058 3904 2079 q 3929 2014 3925 2036 q 3935 1967 3933 1992 q 3944 1913 3938 1942 q 3997 1773 3961 1842 q 4081 1641 4033 1704 q 4185 1523 4129 1578 q 4294 1425 4240 1468 q 4319 1385 4311 1408 q 4333 1339 4326 1363 q 4347 1292 4339 1315 q 4369 1250 4354 1268 q 4385 1234 4376 1240 q 4399 1222 4393 1228 q 4410 1208 4406 1215 q 4414 1188 4414 1200 l 4397 1188 q 4399 1162 4397 1174 q 4405 1139 4401 1150 q 4410 1115 4408 1128 q 4413 1085 4413 1101 q 4403 1085 4410 1085 q 4394 1088 4396 1086 q 4382 1094 4392 1089 q 4369 1100 4372 1100 q 4357 1093 4367 1100 q 4344 1088 4347 1086 q 4317 1103 4325 1094 q 4307 1121 4310 1111 q 4300 1141 4304 1131 q 4282 1163 4296 1151 q 4269 1163 4279 1164 q 4257 1163 4260 1161 q 4229 1190 4242 1167 q 4205 1245 4217 1213 q 4182 1317 4193 1278 q 4160 1392 4171 1356 q 4140 1457 4150 1428 q 4119 1500 4131 1486 q 4045 1572 4081 1542 q 3982 1650 4010 1603 q 3978 1651 3981 1650 q 3975 1651 3976 1651 q 3955 1614 3968 1651 q 3926 1528 3942 1576 q 3892 1431 3910 1479 q 3857 1363 3874 1383 q 3844 1351 3854 1360 q 3824 1331 3835 1342 q 3805 1312 3814 1321 q 3794 1300 3796 1303 q 3778 1274 3790 1294 q 3752 1224 3767 1253 q 3723 1164 3738 1196 q 3697 1103 3708 1132 q 3681 1053 3686 1075 q 3682 1025 3676 1032 l 3769 925 l 3769 915 q 3763 828 3769 871 q 3756 740 3756 785 q 3764 669 3756 704 q 3782 602 3772 635 q 3800 538 3792 569 q 3808 475 3808 506 q 3808 456 3808 469 q 3807 438 3807 442 q 3776 417 3789 431 q 3744 400 3763 403 q 3715 399 3738 399 q 3668 397 3692 400 q 3626 385 3644 394 q 3607 356 3607 376 q 3614 310 3607 331 q 3621 263 3621 289 q 3620 238 3621 256 q 3619 213 3619 219 q 3608 199 3615 207 q 3590 182 3600 190 q 3570 168 3581 174 q 3550 163 3560 163 l 3544 163 q 3532 169 3542 164 q 3519 175 3522 175 q 3501 169 3517 175 q 3482 163 3485 163 q 3472 159 3479 161 q 3456 155 3464 157 q 3440 151 3447 153 q 3432 150 3433 150 l 3425 150 l 3419 150 q 3407 156 3417 151 q 3394 163 3397 160 q 3341 180 3368 179 q 3292 185 3314 181 q 3257 209 3271 190 q 3243 281 3243 228 q 3251 313 3243 301 q 3269 333 3258 324 q 3294 351 3281 342 q 3319 375 3308 360 q 3384 528 3369 443 q 3399 693 3399 613 q 3398 714 3399 699 q 3397 746 3397 729 q 3395 778 3396 763 q 3394 800 3394 793 q 3347 879 3374 847 q 3289 938 3319 911 q 3225 994 3258 965 q 3157 1063 3192 1022 l 3146 1063 q 3129 1063 3139 1063 q 3113 1064 3119 1064 l 3100 1064 q 2976 1050 3036 1064 q 2850 1036 2915 1036 q 2759 1042 2804 1036 q 2669 1056 2714 1049 q 2579 1070 2625 1064 q 2488 1076 2533 1076 q 2473 1076 2485 1076 q 2457 1075 2461 1075 q 2406 969 2424 1025 q 2376 856 2388 914 q 2352 740 2364 799 q 2319 625 2340 681 q 2359 594 2332 610 q 2413 562 2386 578 q 2461 530 2440 546 q 2482 500 2482 514 l 2482 300 q 2453 263 2482 282 q 2387 228 2424 243 q 2315 204 2350 213 q 2269 200 2281 196 q 2254 170 2257 189 q 2251 129 2251 151 q 2252 84 2251 107 q 2247 42 2253 61 q 2227 12 2242 24 q 2182 0 2213 0 l 1907 0 q 1892 13 1903 11 q 1871 17 1882 14 q 1851 30 1860 19 q 1843 69 1843 40 m 4357 1125 q 4347 1113 4347 1125 q 4357 1100 4347 1100 q 4367 1113 4367 1100 q 4357 1125 4367 1125 z "},":":{"ha":7083,"x_min":69,"x_max":7014,"o":"m 7014 42 l 7014 68 q 6966 104 6996 92 q 6913 131 6936 117 q 6524 256 6729 233 q 6251 288 6385 267 q 5982 349 6117 310 q 5840 400 5907 369 q 5700 450 5772 431 q 5405 619 5538 522 q 5155 826 5272 715 q 4926 1056 5038 936 q 4692 1296 4814 1176 q 4356 1614 4524 1460 q 4024 1935 4188 1768 q 3956 1991 3990 1956 q 3899 2060 3921 2026 q 3874 2074 3896 2057 q 3821 2119 3853 2092 q 3750 2179 3789 2146 q 3676 2243 3711 2213 q 3613 2297 3640 2274 q 3575 2329 3586 2321 q 3556 2341 3571 2329 q 3522 2369 3540 2353 q 3485 2400 3503 2385 q 3457 2422 3467 2415 q 3318 2515 3393 2474 q 3176 2610 3243 2557 q 3172 2608 3175 2608 q 3168 2610 3169 2608 q 3096 2651 3129 2629 q 3022 2689 3063 2672 q 2972 2699 2997 2697 q 2921 2708 2946 2701 q 2759 2747 2842 2735 q 2593 2769 2676 2760 q 2577 2770 2589 2769 q 2551 2772 2565 2771 q 2519 2774 2536 2774 q 2489 2775 2503 2775 l 2461 2775 l 2428 2775 q 2367 2772 2399 2775 q 2331 2769 2335 2769 q 2303 2766 2325 2769 q 2257 2758 2282 2763 q 2210 2751 2232 2754 q 2182 2747 2188 2747 l 2174 2747 l 1990 2701 q 1965 2689 1975 2690 l 1842 2642 q 1803 2633 1833 2642 q 1737 2613 1772 2624 q 1669 2592 1701 2601 q 1625 2579 1638 2582 q 1604 2569 1619 2575 q 1571 2556 1589 2563 q 1537 2545 1553 2550 q 1515 2538 1521 2540 q 1485 2533 1507 2540 q 1435 2517 1463 2526 q 1378 2500 1407 2508 q 1331 2492 1350 2492 q 1299 2498 1315 2492 q 1267 2501 1283 2504 l 1057 2617 q 1049 2625 1057 2625 q 928 2726 982 2679 q 838 2826 875 2774 q 781 2943 800 2879 q 761 3097 761 3007 l 761 3138 q 762 3161 761 3150 q 763 3175 763 3172 q 773 3208 769 3194 q 778 3235 776 3222 q 783 3264 781 3249 q 792 3303 786 3279 q 849 3438 813 3369 q 933 3557 885 3507 q 1165 3760 1046 3667 q 1414 3944 1285 3853 q 1447 3974 1429 3956 q 1483 4011 1464 3993 q 1522 4042 1501 4029 q 1563 4056 1542 4056 q 1576 4051 1565 4056 q 1590 4046 1588 4047 l 1608 4046 l 1656 4046 l 1675 4046 q 1744 4047 1710 4046 q 1812 4056 1779 4049 q 1875 4077 1844 4063 q 1933 4118 1906 4092 q 1942 4124 1935 4118 q 1956 4139 1949 4131 q 1971 4154 1964 4147 q 1981 4163 1978 4161 q 2009 4174 1994 4171 q 2040 4181 2024 4178 q 2072 4190 2056 4185 q 2104 4208 2088 4196 q 2119 4231 2108 4210 q 2141 4278 2129 4253 q 2161 4328 2153 4304 q 2169 4356 2169 4351 q 2156 4400 2169 4382 q 2123 4431 2143 4418 q 2081 4456 2103 4444 q 2043 4481 2060 4467 q 1973 4539 2001 4519 q 1917 4569 1944 4558 q 1858 4585 1890 4579 q 1778 4604 1826 4592 q 1763 4613 1765 4608 q 1747 4629 1760 4617 q 1653 4684 1700 4663 q 1546 4706 1606 4706 q 1473 4696 1515 4706 q 1385 4669 1431 4686 q 1292 4629 1339 4653 q 1207 4579 1246 4606 q 1140 4524 1168 4553 q 1103 4465 1113 4494 q 1042 4408 1072 4433 q 983 4358 1013 4382 q 923 4309 953 4333 q 863 4256 893 4285 q 779 4171 818 4217 q 699 4085 740 4125 l 521 3836 q 498 3814 507 3828 q 481 3785 489 3800 q 467 3754 474 3769 q 451 3728 460 3739 q 281 3463 353 3597 q 162 3189 208 3329 q 92 2899 115 3049 q 69 2588 69 2750 q 79 2382 69 2486 q 110 2174 89 2278 q 168 1972 132 2071 q 257 1785 204 1874 q 298 1726 275 1751 q 347 1677 321 1700 q 399 1632 372 1654 q 451 1583 426 1610 q 453 1577 451 1583 q 463 1568 456 1571 l 506 1444 q 517 1400 500 1428 q 558 1343 535 1372 q 601 1288 581 1314 q 621 1249 621 1263 q 608 1178 621 1215 q 597 1103 596 1140 q 616 1014 601 1058 q 631 926 631 969 q 618 892 631 906 q 589 869 606 879 q 556 849 572 858 q 531 825 539 839 q 495 782 515 806 q 456 732 475 758 q 425 679 438 706 q 413 629 413 653 q 426 592 413 606 q 460 571 440 579 q 500 558 479 563 q 536 549 521 554 q 546 545 538 549 q 564 538 554 542 q 581 531 574 535 q 592 528 589 528 q 603 527 593 528 q 619 526 613 526 q 668 531 644 526 q 715 542 692 536 q 763 553 739 549 q 813 558 788 558 l 821 558 q 841 558 831 558 q 853 557 851 557 q 860 553 853 554 q 869 549 868 553 q 872 550 872 549 l 872 554 q 864 528 872 540 q 847 505 856 517 q 829 480 838 493 q 821 450 821 467 q 830 418 821 429 q 853 400 839 407 q 885 389 868 393 q 917 378 901 385 q 947 360 933 372 q 979 349 960 349 l 1111 349 q 1159 326 1133 333 q 1211 318 1185 318 q 1288 331 1253 318 q 1365 343 1322 343 l 1375 343 q 1384 342 1378 343 q 1396 342 1390 342 l 1397 342 q 1413 338 1401 342 q 1428 333 1425 333 q 1487 353 1463 338 q 1526 393 1511 369 q 1548 446 1542 417 q 1554 507 1554 475 q 1549 575 1554 543 q 1543 639 1543 607 q 1549 668 1543 653 q 1563 698 1556 683 q 1576 725 1571 713 q 1578 746 1581 738 q 1628 840 1608 792 q 1672 939 1649 888 q 1674 943 1672 940 q 1676 949 1676 946 q 1816 948 1747 942 q 1953 964 1885 954 q 2090 983 2022 974 q 2228 993 2158 993 l 2228 961 q 2225 946 2228 957 q 2207 922 2222 935 q 2174 906 2190 915 q 2153 893 2158 896 q 2110 865 2133 881 q 2065 831 2086 850 q 2030 789 2044 813 q 2015 736 2015 765 q 2029 711 2015 729 q 2060 674 2043 693 q 2094 638 2078 654 q 2114 621 2110 622 q 2147 608 2135 610 q 2174 606 2158 606 l 2201 606 q 2276 614 2243 606 q 2346 644 2308 622 l 2578 644 q 2676 684 2632 658 q 2749 760 2719 710 q 2761 797 2761 778 q 2775 831 2761 817 q 2826 906 2807 868 q 2855 983 2844 943 q 2868 1065 2865 1022 q 2871 1157 2871 1108 l 2883 1157 q 2953 1108 2914 1129 q 3031 1072 2992 1088 l 3036 1072 q 3096 1008 3065 1051 q 3151 913 3126 964 q 3192 810 3176 861 q 3208 722 3208 758 q 3205 715 3208 719 q 3200 706 3201 710 l 3083 557 q 3076 538 3083 554 q 3069 514 3069 521 l 3069 506 q 3083 471 3069 483 q 3114 451 3096 458 q 3152 441 3132 444 q 3185 433 3172 438 q 3208 426 3199 431 q 3227 419 3218 422 q 3247 413 3236 415 q 3272 410 3257 410 q 3313 417 3293 410 q 3351 434 3332 425 q 3389 451 3369 443 q 3431 458 3408 458 q 3481 454 3460 458 q 3531 450 3501 450 q 3624 464 3578 450 q 3709 504 3669 478 q 3778 568 3749 531 q 3824 653 3808 606 q 3828 685 3828 672 q 3828 710 3829 699 q 3827 735 3828 722 q 3828 769 3826 749 q 3831 782 3828 771 q 3837 806 3833 793 q 3843 831 3840 819 q 3846 844 3846 842 l 3846 853 l 3846 881 l 3846 893 q 3837 985 3846 936 q 3804 1072 3828 1035 q 3766 1116 3792 1090 q 3715 1169 3740 1142 q 3669 1226 3689 1197 q 3650 1278 3650 1254 l 3650 1281 q 3654 1286 3651 1285 q 3658 1288 3657 1288 q 3672 1286 3663 1288 q 3690 1281 3682 1285 q 3812 1229 3753 1260 q 3928 1163 3871 1199 q 4040 1088 3985 1128 q 4147 1010 4094 1049 l 4193 981 q 4199 975 4196 979 q 4203 969 4201 971 l 5150 349 q 5169 338 5154 346 q 5200 322 5183 331 q 5233 306 5217 314 q 5258 296 5250 299 q 5512 194 5378 246 q 5778 118 5646 143 q 5969 89 5869 97 q 6165 78 6069 81 q 6406 71 6288 75 q 6647 46 6525 67 q 6809 16 6728 33 q 6969 -1 6890 -1 l 6978 -1 q 6988 -1 6982 -1 q 6999 0 6993 0 l 7003 0 q 7014 19 7014 11 l 7014 42 m 3325 443 q 3329 433 3329 443 q 3325 425 3329 425 q 3318 433 3318 425 q 3325 443 3318 443 z "},";":{"ha":7083,"x_min":69,"x_max":7014,"o":"m 69 42 l 69 68 q 117 104 88 92 q 171 131 147 117 q 560 256 354 233 q 833 288 699 267 q 1101 349 967 310 q 1244 400 1176 369 q 1383 450 1311 431 q 1678 619 1546 522 q 1928 826 1811 715 q 2158 1056 2046 936 q 2392 1296 2269 1176 q 2728 1614 2560 1460 q 3060 1935 2896 1768 q 3128 1991 3093 1956 q 3185 2060 3163 2026 q 3208 2074 3186 2057 q 3263 2119 3231 2092 q 3333 2179 3294 2146 q 3408 2243 3372 2213 q 3470 2297 3443 2274 q 3508 2329 3497 2321 q 3528 2341 3513 2329 q 3562 2369 3543 2353 q 3599 2400 3581 2385 q 3626 2422 3617 2415 q 3765 2515 3690 2474 q 3907 2610 3840 2557 q 3911 2608 3908 2608 q 3915 2610 3914 2608 q 3988 2651 3954 2629 q 4061 2689 4021 2672 q 4112 2699 4086 2697 q 4163 2708 4138 2701 q 4324 2747 4242 2735 q 4490 2769 4407 2760 q 4506 2770 4494 2769 q 4533 2772 4518 2771 q 4564 2774 4547 2774 q 4594 2775 4581 2775 l 4622 2775 l 4656 2775 q 4717 2772 4685 2775 q 4753 2769 4749 2769 q 4780 2766 4758 2769 q 4826 2758 4801 2763 q 4873 2751 4851 2754 q 4901 2747 4894 2747 l 4910 2747 l 5093 2701 q 5118 2689 5107 2690 l 5242 2642 q 5281 2633 5250 2642 q 5347 2613 5311 2624 q 5414 2592 5382 2601 q 5458 2579 5446 2582 q 5479 2569 5464 2575 q 5512 2556 5494 2563 q 5545 2545 5529 2550 q 5568 2538 5561 2540 q 5599 2533 5576 2540 q 5649 2517 5621 2526 q 5705 2500 5676 2508 q 5753 2492 5733 2492 q 5784 2498 5768 2492 q 5817 2501 5800 2504 l 6026 2617 q 6035 2625 6026 2625 q 6155 2726 6101 2679 q 6246 2826 6208 2774 q 6303 2943 6283 2879 q 6322 3097 6322 3007 l 6322 3138 q 6322 3161 6322 3150 q 6321 3175 6321 3172 q 6310 3208 6314 3194 q 6305 3235 6307 3222 q 6300 3264 6303 3249 q 6292 3303 6297 3279 q 6235 3438 6271 3369 q 6150 3557 6199 3507 q 5918 3760 6038 3667 q 5669 3944 5799 3853 q 5637 3974 5654 3956 q 5601 4011 5619 3993 q 5562 4042 5582 4029 q 5521 4056 5542 4056 q 5507 4051 5518 4056 q 5493 4046 5496 4047 l 5475 4046 l 5428 4046 l 5408 4046 q 5338 4047 5372 4046 q 5272 4056 5304 4049 q 5208 4077 5239 4063 q 5150 4118 5178 4092 q 5141 4124 5147 4118 q 5127 4139 5135 4131 q 5113 4154 5119 4147 q 5103 4163 5106 4161 q 5074 4174 5089 4171 q 5044 4181 5060 4178 q 5012 4190 5028 4185 q 4979 4208 4996 4196 q 4965 4231 4975 4210 q 4942 4278 4954 4253 q 4922 4328 4931 4304 q 4914 4356 4914 4351 q 4927 4400 4914 4382 q 4960 4431 4940 4418 q 5002 4456 4981 4444 q 5040 4481 5024 4467 q 5110 4539 5082 4519 q 5166 4569 5139 4558 q 5225 4585 5193 4579 q 5306 4604 5257 4592 q 5321 4613 5318 4608 q 5336 4629 5324 4617 q 5431 4684 5383 4663 q 5538 4706 5478 4706 q 5653 4685 5583 4706 q 5791 4629 5724 4664 q 5912 4551 5858 4594 q 5981 4465 5965 4508 q 6041 4408 6011 4433 q 6101 4358 6071 4382 q 6160 4309 6131 4333 q 6221 4256 6190 4285 q 6304 4171 6265 4217 q 6385 4085 6343 4125 l 6563 3836 q 6585 3814 6576 3828 q 6602 3785 6594 3800 q 6617 3754 6610 3769 q 6632 3728 6624 3739 q 6803 3463 6731 3597 q 6922 3189 6875 3329 q 6991 2899 6968 3049 q 7014 2588 7014 2750 q 7004 2382 7014 2486 q 6973 2174 6994 2278 q 6915 1972 6951 2071 q 6826 1785 6879 1874 q 6785 1726 6808 1751 q 6737 1677 6763 1700 q 6684 1632 6711 1654 q 6632 1583 6657 1610 q 6630 1577 6632 1583 q 6621 1568 6628 1571 l 6578 1444 q 6566 1400 6583 1428 q 6526 1343 6549 1372 q 6483 1288 6503 1314 q 6463 1249 6463 1263 q 6475 1178 6463 1215 q 6486 1103 6488 1140 q 6467 1014 6482 1058 q 6453 926 6453 969 q 6465 892 6453 906 q 6494 869 6478 879 q 6528 849 6511 858 q 6553 825 6544 839 q 6588 782 6568 806 q 6627 732 6608 758 q 6658 679 6646 706 q 6671 629 6671 653 q 6657 592 6671 606 q 6624 571 6643 579 q 6583 558 6604 563 q 6547 549 6561 554 q 6537 545 6544 549 q 6519 538 6529 542 q 6501 531 6510 535 q 6492 528 6493 528 q 6481 527 6490 528 q 6464 526 6471 526 q 6415 531 6439 526 q 6368 542 6392 536 q 6320 553 6344 549 q 6271 558 6296 558 l 6263 558 q 6242 558 6253 558 q 6231 557 6232 557 q 6223 553 6231 554 q 6214 549 6215 553 q 6211 550 6211 549 l 6211 554 q 6219 528 6211 540 q 6237 505 6228 517 q 6254 480 6246 493 q 6263 450 6263 467 q 6253 418 6263 429 q 6230 400 6244 407 q 6199 389 6215 393 q 6167 378 6182 385 q 6137 360 6150 372 q 6104 349 6124 349 l 5972 349 q 5924 326 5950 333 q 5872 318 5899 318 q 5796 331 5831 318 q 5718 343 5761 343 l 5708 343 q 5699 342 5706 343 q 5688 342 5693 342 l 5686 342 q 5670 338 5682 342 q 5656 333 5658 333 q 5596 353 5619 338 q 5557 393 5572 369 q 5535 446 5542 417 q 5529 507 5529 475 q 5535 575 5529 543 q 5540 639 5540 607 q 5534 668 5540 653 q 5520 698 5528 683 q 5508 725 5513 713 q 5506 746 5503 738 q 5455 840 5475 792 q 5411 939 5435 888 q 5409 943 5411 940 q 5407 949 5407 946 q 5267 948 5336 942 q 5130 964 5199 954 q 4993 983 5061 974 q 4856 993 4925 993 l 4856 961 q 4858 946 4856 957 q 4876 922 4861 935 q 4909 906 4893 915 q 4931 893 4925 896 q 4974 865 4950 881 q 5018 831 4997 850 q 5053 789 5039 813 q 5068 736 5068 765 q 5054 711 5068 729 q 5023 674 5040 693 q 4990 638 5006 654 q 4969 621 4974 622 q 4937 608 4949 610 q 4910 606 4925 606 l 4882 606 q 4808 614 4840 606 q 4738 644 4775 622 l 4506 644 q 4408 684 4451 658 q 4335 760 4364 710 q 4322 797 4322 778 q 4308 831 4322 817 q 4258 906 4276 868 q 4228 983 4239 943 q 4215 1065 4218 1022 q 4213 1157 4213 1108 l 4200 1157 q 4131 1108 4169 1129 q 4053 1072 4092 1088 l 4047 1072 q 3988 1008 4018 1051 q 3932 913 3957 964 q 3891 810 3907 861 q 3875 722 3875 758 q 3878 715 3875 719 q 3883 706 3882 710 l 4000 557 q 4007 538 4000 554 q 4014 514 4014 521 l 4014 506 q 4001 471 4014 483 q 3969 451 3988 458 q 3931 441 3951 444 q 3899 433 3911 438 q 3875 426 3885 431 q 3856 419 3865 422 q 3837 413 3847 415 q 3811 410 3826 410 q 3771 417 3790 410 q 3733 434 3751 425 q 3694 451 3714 443 q 3653 458 3675 458 q 3603 454 3624 458 q 3553 450 3582 450 q 3460 464 3506 450 q 3374 504 3414 478 q 3305 568 3335 531 q 3260 653 3275 606 q 3255 685 3256 672 q 3255 710 3254 699 q 3256 735 3256 722 q 3256 769 3257 749 q 3253 782 3256 771 q 3247 806 3250 793 q 3240 831 3243 819 q 3238 844 3238 842 l 3238 853 l 3238 881 l 3238 893 q 3247 985 3238 936 q 3279 1072 3256 1035 q 3317 1116 3292 1090 q 3369 1169 3343 1142 q 3414 1226 3394 1197 q 3433 1278 3433 1254 l 3433 1281 q 3429 1286 3432 1285 q 3425 1288 3426 1288 q 3411 1286 3421 1288 q 3393 1281 3401 1285 q 3272 1229 3331 1260 q 3156 1163 3213 1199 q 3044 1088 3099 1128 q 2936 1010 2989 1049 l 2890 981 q 2885 975 2888 979 q 2881 969 2882 971 l 1933 349 q 1915 338 1929 346 q 1883 322 1900 331 q 1850 306 1867 314 q 1825 296 1833 299 q 1572 194 1706 246 q 1306 118 1438 143 q 1114 89 1214 97 q 918 78 1014 81 q 677 71 796 75 q 436 46 558 67 q 274 16 356 33 q 114 -1 193 -1 l 106 -1 q 96 -1 101 -1 q 85 0 90 0 l 81 0 q 69 19 69 11 l 69 42 m 3758 443 q 3754 433 3754 443 q 3758 425 3754 425 q 3765 433 3765 425 q 3758 443 3765 443 z "},"<":{"ha":6033,"x_min":69,"x_max":5963,"o":"m 4829 53 q 4809 11 4829 24 q 4762 -4 4789 -1 q 4705 -4 4735 -7 q 4657 -1 4675 -1 q 4599 -3 4631 -1 q 4540 1 4568 -4 q 4490 22 4511 7 q 4463 71 4469 38 q 4458 94 4461 75 q 4452 136 4456 114 q 4445 177 4449 158 q 4439 200 4442 196 q 4408 277 4426 235 q 4365 362 4389 319 q 4311 442 4340 404 q 4250 507 4282 481 q 4212 449 4228 492 q 4186 358 4196 407 q 4172 261 4176 308 q 4168 189 4168 214 q 4180 160 4168 172 q 4205 138 4192 149 q 4230 114 4218 126 q 4242 82 4242 101 q 4236 55 4242 63 q 4203 47 4231 47 l 3932 47 q 3899 68 3911 47 q 3881 115 3888 89 q 3874 167 3875 142 q 3872 200 3872 192 q 3878 306 3872 253 q 3885 414 3885 360 q 3886 449 3885 425 q 3887 500 3888 474 q 3881 549 3886 526 q 3861 578 3875 571 l 3660 672 q 3655 673 3658 672 q 3649 674 3651 674 q 3635 672 3642 674 q 3625 661 3628 671 q 3617 562 3621 615 q 3609 454 3613 508 q 3603 347 3606 400 q 3601 247 3601 294 q 3618 202 3601 221 q 3654 165 3635 183 q 3690 128 3674 147 q 3707 82 3707 108 q 3699 63 3707 75 q 3683 47 3690 51 l 3658 47 q 3619 47 3639 47 q 3579 46 3599 46 l 3554 46 q 3505 44 3535 46 q 3442 44 3475 43 q 3380 51 3410 46 q 3329 71 3350 57 q 3276 144 3296 96 q 3242 252 3256 193 q 3218 374 3228 311 q 3196 487 3208 436 q 3165 570 3183 538 q 3118 603 3147 603 q 3104 601 3108 603 q 3093 590 3100 600 l 2917 247 q 2916 235 2917 247 q 2915 217 2915 224 q 2922 169 2915 189 q 2940 133 2928 150 q 2971 99 2953 117 q 3011 58 2989 82 l 3011 35 q 3001 33 3011 35 q 2978 28 2992 31 q 2951 25 2965 26 q 2928 24 2938 24 l 2914 24 q 2884 23 2900 24 q 2851 22 2868 22 l 2822 22 q 2788 22 2811 22 q 2738 21 2765 21 q 2679 22 2710 21 q 2622 28 2649 24 q 2576 39 2596 32 q 2550 58 2557 46 l 2550 79 q 2549 110 2550 94 q 2549 139 2549 125 l 2549 160 q 2557 272 2549 219 q 2578 376 2565 325 q 2606 480 2592 428 q 2633 590 2621 532 l 2633 618 q 2602 691 2633 663 q 2526 719 2571 719 q 2464 706 2497 719 q 2408 672 2431 693 q 2356 620 2394 657 q 2274 542 2318 583 q 2192 463 2231 500 q 2138 413 2153 426 q 2115 396 2132 410 q 2078 365 2099 382 q 2037 331 2057 347 q 2007 307 2017 315 q 1968 281 1990 294 q 1922 253 1946 268 q 1877 222 1899 239 q 1842 189 1856 206 l 1689 118 q 1673 105 1683 103 q 1653 106 1663 107 q 1639 104 1649 106 q 1618 101 1629 103 q 1597 98 1607 100 q 1582 94 1586 96 l 1476 71 q 1456 67 1469 69 q 1426 63 1442 65 q 1399 60 1411 61 q 1382 58 1386 58 l 1367 58 l 1301 58 l 1271 58 q 963 86 1103 58 q 713 181 824 114 q 522 358 603 247 q 390 638 440 469 q 381 688 383 663 q 376 739 379 714 q 367 789 374 764 q 343 838 360 814 q 303 874 329 858 q 247 901 278 889 q 185 926 217 914 q 127 953 153 938 q 85 992 101 969 q 69 1046 69 1014 q 79 1078 69 1065 q 103 1098 89 1090 q 135 1108 118 1106 q 167 1111 151 1111 q 290 1085 229 1111 q 402 1015 351 1058 q 490 916 453 971 q 543 803 528 861 q 549 776 544 797 q 560 731 554 756 q 572 686 567 707 q 579 661 578 665 q 660 505 611 576 q 773 381 708 433 q 916 300 838 329 q 1085 271 994 271 q 1315 310 1215 271 q 1490 415 1414 349 q 1626 568 1567 481 q 1735 753 1685 656 q 1834 951 1786 850 q 1936 1144 1882 1051 q 2098 1413 2013 1278 q 2281 1671 2183 1547 q 2490 1901 2378 1794 q 2730 2087 2601 2008 q 3006 2210 2858 2165 q 3324 2256 3153 2256 q 3716 2205 3528 2256 q 4085 2054 3904 2154 q 4216 1958 4151 2017 q 4349 1845 4281 1900 q 4492 1751 4418 1790 q 4653 1711 4567 1711 q 4794 1764 4735 1711 q 4899 1903 4853 1817 q 4985 2101 4946 1990 q 5067 2326 5025 2211 q 5158 2551 5108 2440 q 5277 2748 5208 2661 q 5438 2888 5346 2835 q 5656 2940 5529 2940 q 5757 2928 5703 2940 q 5857 2891 5811 2917 q 5933 2824 5903 2865 q 5963 2725 5963 2783 q 5962 2694 5963 2710 q 5957 2668 5961 2679 q 5942 2650 5953 2657 q 5914 2643 5932 2643 q 5878 2647 5892 2643 q 5844 2668 5864 2651 l 5844 2663 q 5851 2624 5844 2642 q 5857 2585 5857 2607 q 5856 2567 5857 2581 q 5856 2550 5856 2553 q 5839 2540 5846 2542 q 5821 2538 5832 2538 q 5763 2554 5789 2538 q 5710 2592 5736 2571 q 5657 2629 5685 2613 q 5596 2646 5629 2646 q 5525 2617 5554 2646 q 5476 2547 5496 2588 q 5446 2460 5457 2506 q 5431 2385 5435 2415 q 5427 2354 5429 2378 q 5423 2299 5425 2331 q 5419 2231 5421 2267 q 5415 2164 5417 2196 q 5410 2108 5413 2132 q 5407 2078 5408 2085 q 5401 2032 5406 2065 q 5390 1961 5396 1999 q 5380 1890 5385 1924 q 5372 1842 5375 1856 q 5279 1481 5336 1657 q 5124 1144 5222 1304 q 5007 987 5069 1056 q 4874 864 4944 918 q 4721 766 4803 810 q 4546 685 4639 722 q 4533 673 4535 681 q 4532 656 4532 665 q 4533 647 4532 653 q 4533 638 4533 640 q 4554 590 4540 622 q 4585 517 4568 558 q 4622 431 4603 476 q 4658 345 4640 386 q 4690 272 4675 304 q 4711 224 4704 239 q 4742 179 4722 197 q 4781 143 4761 161 q 4815 104 4800 125 q 4829 53 4829 83 z "},"=":{"ha":2781,"x_min":69,"x_max":2711,"o":"m 1700 647 q 1726 442 1710 543 q 1756 240 1742 342 q 1767 192 1760 213 q 1794 156 1774 171 q 1805 150 1797 153 q 1814 144 1813 147 q 1827 115 1824 131 q 1833 85 1831 100 q 1842 55 1836 69 q 1863 28 1847 40 q 1923 3 1889 8 q 1993 -1 1957 -1 l 2035 -1 q 2081 1 2060 -1 q 2124 8 2103 4 q 2167 15 2144 11 q 2219 19 2190 18 q 2228 33 2228 22 q 2229 49 2229 43 q 2215 91 2229 75 q 2183 119 2201 107 q 2144 144 2164 132 q 2113 174 2124 156 q 2095 221 2099 196 q 2075 268 2092 246 q 2039 325 2054 299 q 2015 378 2024 351 q 2001 437 2006 406 q 1996 508 1996 468 q 2001 549 1996 529 q 2011 588 2006 568 q 2022 629 2017 608 q 2026 675 2026 650 q 2032 670 2029 674 q 2036 665 2035 667 q 2070 613 2053 639 q 2102 562 2088 588 q 2126 508 2117 536 q 2135 449 2135 481 q 2123 392 2135 418 q 2111 335 2111 365 q 2134 252 2111 296 q 2192 171 2157 208 q 2269 109 2226 133 q 2350 85 2311 85 q 2380 88 2364 85 q 2410 97 2396 90 q 2433 115 2424 104 q 2442 142 2442 125 q 2429 199 2442 172 q 2401 251 2417 225 q 2374 303 2386 276 q 2361 360 2361 329 q 2368 425 2361 394 q 2375 490 2375 456 q 2365 544 2375 518 q 2344 597 2356 569 q 2322 656 2332 625 q 2313 726 2313 688 q 2326 802 2313 772 q 2356 859 2339 832 q 2390 914 2374 886 q 2411 983 2406 942 q 2415 1010 2413 989 q 2418 1055 2417 1031 q 2420 1100 2419 1079 q 2421 1128 2421 1121 q 2441 1204 2425 1171 q 2479 1267 2457 1238 q 2527 1326 2501 1297 q 2576 1386 2553 1354 q 2633 1491 2608 1435 q 2676 1607 2658 1547 q 2702 1728 2693 1667 q 2711 1847 2711 1789 q 2697 2010 2711 1932 q 2659 2163 2682 2088 q 2606 2313 2636 2238 q 2546 2467 2576 2388 q 2524 2536 2533 2497 q 2503 2616 2514 2575 q 2476 2696 2492 2657 q 2438 2765 2461 2735 q 2381 2815 2415 2796 q 2300 2833 2347 2833 q 2244 2831 2276 2833 q 2183 2820 2213 2829 q 2133 2793 2154 2811 q 2113 2743 2113 2775 q 2134 2690 2113 2711 q 2184 2651 2156 2668 q 2242 2619 2213 2635 q 2286 2582 2271 2603 q 2306 2540 2293 2568 q 2335 2475 2319 2511 q 2369 2399 2351 2439 q 2403 2324 2388 2360 q 2432 2258 2419 2288 q 2450 2215 2444 2229 q 2475 2135 2469 2176 q 2481 2050 2481 2093 q 2458 1917 2481 1985 q 2392 1793 2435 1849 q 2291 1702 2350 1738 q 2161 1667 2232 1667 l 2143 1667 q 1983 1720 2063 1689 q 1822 1781 1903 1751 q 1660 1830 1742 1810 q 1494 1850 1578 1850 q 1353 1833 1419 1850 q 1228 1761 1286 1815 q 1194 1730 1221 1756 q 1136 1675 1167 1704 q 1078 1621 1106 1646 q 1044 1590 1051 1596 q 1030 1579 1042 1588 q 1004 1561 1018 1571 q 979 1543 990 1551 q 967 1532 968 1535 l 879 1444 q 855 1397 872 1432 q 818 1324 838 1363 q 781 1251 799 1286 q 754 1203 763 1217 q 697 1066 722 1136 q 644 928 672 996 q 578 797 615 860 q 485 685 540 735 q 473 684 482 685 q 461 683 464 683 q 346 693 403 683 q 229 703 289 703 l 206 703 l 151 703 l 138 703 l 126 703 q 95 699 114 703 q 71 685 76 696 q 70 683 71 685 q 69 678 69 681 l 71 675 l 244 636 q 253 634 246 636 q 270 628 261 632 q 286 620 279 625 q 293 611 293 615 q 274 587 293 601 q 230 550 254 572 q 186 499 206 528 q 167 431 167 469 q 194 363 167 385 q 260 332 221 340 q 341 324 299 324 q 414 325 383 325 q 492 331 453 325 q 569 344 531 338 q 645 358 607 351 q 721 364 683 364 l 721 174 q 726 164 721 172 q 736 156 732 156 q 831 110 776 126 q 933 94 885 94 q 955 101 946 94 q 976 107 964 107 q 1017 101 997 107 q 1058 94 1036 94 q 1074 96 1061 94 q 1093 97 1088 97 q 1103 108 1096 97 q 1117 133 1110 119 q 1128 160 1124 147 q 1133 176 1133 172 q 1119 213 1133 197 q 1089 242 1106 229 q 1058 263 1072 254 q 1044 278 1044 271 l 1044 443 q 1056 499 1044 469 q 1086 552 1067 528 q 1131 592 1106 576 q 1183 608 1156 608 q 1232 583 1215 608 q 1256 531 1249 557 q 1260 499 1257 522 q 1269 449 1264 475 q 1278 399 1274 422 q 1285 365 1282 375 q 1311 341 1304 357 q 1322 306 1318 325 q 1333 266 1326 286 q 1356 229 1339 246 q 1408 202 1374 213 q 1501 192 1442 192 q 1517 192 1508 192 q 1526 193 1525 193 q 1532 196 1526 193 q 1544 202 1538 199 q 1556 208 1550 206 q 1564 211 1563 211 q 1578 207 1567 211 q 1593 203 1590 203 q 1598 202 1594 203 q 1604 201 1601 201 q 1633 217 1624 201 q 1643 250 1643 232 q 1634 290 1643 272 q 1610 320 1625 307 q 1578 344 1596 333 q 1544 365 1561 356 q 1538 390 1542 372 q 1529 428 1533 408 q 1522 467 1525 449 q 1517 492 1518 485 l 1486 589 l 1486 592 q 1514 615 1486 604 q 1576 632 1542 625 q 1641 643 1610 639 q 1679 647 1672 647 l 1700 647 z "}}}
